<svg width="1919" height="1000" viewBox="0 0 1919 1000" fill="none" xmlns="http://www.w3.org/2000/svg">
<g clip-path="url(#clip0_2287_12013)">
<path d="M171 1086.15C278 1094.15 484.4 793.058 579 850.153C748 952.153 827.547 875.462 949 723.153C1009 641.153 1067.6 647.153 1206 759.153C1379 899.153 1508 946.153 1623 888.153C1738 830.153 1848 556.153 1779 385.153C1710 214.153 1879 102.153 1989 133.153" stroke="#ADDDC2" stroke-width="2.5"/>
<mask id="mask0_2287_12013" style="mask-type:alpha" maskUnits="userSpaceOnUse" x="1112" y="248" width="624" height="621">
<path d="M1727.75 684.398C1727.66 684.767 1727.59 685.084 1727.5 685.453C1725.79 688.283 1723.72 690.976 1722.41 694.009C1720.17 699.332 1718.18 704.822 1716.56 710.397C1715.71 713.317 1717.13 715.867 1720.18 717.126C1720.14 717.284 1720.09 717.495 1720.06 717.654C1714.77 722.717 1710.09 728.256 1706.89 734.858C1705.7 737.364 1705.49 739.707 1707.26 741.225C1703.01 747.807 1698.67 754.036 1694.82 760.598C1693.33 763.148 1691.91 766.433 1695.48 769.036C1692.82 770.924 1690.3 772.678 1687.87 774.51C1680.67 779.857 1673.76 785.436 1668.5 792.786C1666.19 796.034 1664.51 799.429 1666.35 803.522C1665.3 803.948 1664.45 804.253 1663.65 804.622C1653.76 808.626 1643.91 812.694 1635.14 818.846C1631.42 821.436 1627.27 823.982 1627.79 829.44C1619.91 828.846 1612.01 827.859 1604.11 827.818C1597.61 827.765 1590.38 826.267 1585.44 832.69C1585.28 832.93 1584.82 832.991 1584.49 833.194C1581.6 834.639 1578.61 836.008 1575.75 837.518C1574.29 838.294 1573.26 838.168 1571.89 837.128C1564.85 831.946 1557.14 828.669 1548.13 828.649C1540.51 828.616 1533.59 830.857 1527.28 834.519C1523.13 831.283 1519.24 827.884 1515.01 825.017C1501.71 816.059 1487.5 811.782 1471.53 817.276C1471.05 817.442 1470.1 817.223 1469.75 816.809C1463.84 810.555 1456.2 807.737 1448.15 805.714C1435.01 802.351 1421.61 801.543 1408.13 801.827C1406.39 801.871 1405.17 801.368 1403.99 799.983C1400.8 796.19 1397.7 792.251 1394.01 788.954C1390.32 785.656 1386.06 782.895 1381.82 780.251C1379.77 779.001 1377.4 779.175 1375.3 781.027C1374.66 781.603 1373.18 781.762 1372.36 781.461C1367.62 779.536 1362.73 777.851 1358.36 775.288C1344.36 767 1331.81 756.714 1319.94 745.693C1315.73 741.774 1311.87 741.331 1307.08 743.508C1305.78 744.097 1304.46 744.738 1303.24 745.457C1296.34 749.537 1290.62 755.003 1285.2 760.87C1270.04 777.283 1257.52 795.579 1245.95 814.542C1235.43 831.856 1225.53 849.645 1215.36 867.15C1214.91 867.881 1213.97 869.055 1213.48 868.998C1210.05 868.429 1206.69 867.544 1203.1 866.716C1203.53 865.814 1203.69 865.351 1203.96 864.913C1212.1 852.11 1220.04 839.205 1228.52 826.593C1247.66 797.979 1267.05 769.531 1286.43 741.083C1288.03 738.728 1288.36 736.58 1287.61 734.07C1285.83 728.267 1282.13 723.801 1277.91 719.659C1267.01 709.027 1254.15 701.06 1241.09 693.49C1236.72 690.981 1232.2 688.605 1227.64 686.164C1230.1 682.059 1229.54 678.206 1227.59 674.364C1224.91 669.077 1220.88 664.866 1216.11 661.654C1207.45 655.766 1198.48 650.251 1189.89 644.769C1189.72 643.339 1189.9 641.378 1189.22 639.721C1188.38 637.581 1187.08 635.502 1185.53 633.756C1179.96 627.523 1174.26 621.371 1168.54 615.272C1166.7 613.347 1164.72 611.556 1162.79 609.777C1165.61 605.534 1165.97 603.504 1164.49 598.826C1162.19 591.456 1157.71 585.308 1152.75 579.55C1146.64 572.472 1140.13 565.743 1133.66 558.803C1136.53 557.686 1136.67 554.714 1137.28 552.075C1137.95 549.171 1137.99 546.569 1135.59 544.181C1133.82 542.439 1132.58 540.096 1131.43 537.883C1122.88 521.623 1119.18 503.923 1116.19 486.052C1116.08 485.528 1116.2 484.554 1116.51 484.403C1119.15 483.12 1119.05 480.651 1118.8 478.593C1117.59 469.862 1116.14 461.189 1114.63 452.556C1113.98 448.901 1112.91 445.32 1112 441.551C1118.42 442.697 1120.64 441.763 1122.63 436.772C1123.53 434.535 1124.15 432.119 1124.53 429.76C1126.28 419.044 1125.72 408.238 1124.81 397.466C1124.6 394.749 1124.34 392.02 1124.09 389.015C1127.87 390.997 1130.04 388.829 1132.03 386.73C1138.9 379.417 1143.28 370.585 1147.87 361.802C1150.16 357.437 1152.21 352.905 1154.48 348.37C1157.64 351.821 1159.98 352.028 1163.26 349.17C1168.21 344.862 1170.99 339.108 1173.91 333.443C1174.6 332.156 1175.22 330.91 1175.97 329.359C1179.01 335.454 1182.17 336.737 1187.43 334.224C1188.86 333.554 1190.29 332.66 1191.58 331.678C1199.62 325.579 1205.74 317.649 1211.71 309.629C1214.31 306.113 1216.75 302.507 1219.32 298.873C1223.27 303.953 1226.29 304.595 1231.46 301.281C1233.34 300.104 1235.27 298.768 1236.81 297.176C1240.71 293.071 1244.38 288.747 1248.14 284.5C1251.92 287.651 1254.94 288.345 1259.8 285.629C1265.31 282.506 1270.38 278.617 1275.6 275.092C1277.67 279.851 1280.9 280.095 1285.01 279.653C1286.66 279.478 1288.42 279.105 1289.93 278.341C1295.37 275.536 1300.86 272.742 1306.05 269.547C1310.07 267.082 1313.78 264.045 1317.72 261.227C1318.44 265.34 1319.91 266.68 1323.79 266.295C1326.47 266.023 1329.15 265.475 1331.65 264.549C1336.28 262.835 1340.71 260.744 1345.4 258.767C1345.32 261.305 1347.16 261.784 1349.05 261.776C1350.55 261.788 1352.11 261.537 1353.58 261.208C1364.25 258.886 1374.04 254.358 1383.96 249.973C1385.38 249.356 1386.87 248.698 1388.43 248C1388.05 253.25 1390.13 255.788 1395.1 256.211C1396.91 256.349 1398.74 256.382 1400.48 256.061C1406.2 254.932 1411.86 253.568 1417.66 252.293C1417.61 255.172 1419.45 256.874 1422.51 257.357C1423.75 257.532 1425.05 257.666 1426.26 257.499C1430.16 257.008 1434.03 256.399 1437.9 255.79C1439.04 260.277 1440.76 261.731 1445.52 261.605C1448.38 261.541 1451.28 261.265 1454.06 260.57C1458.71 259.474 1463.29 257.972 1467.93 256.652C1468.36 262.033 1470.48 264.412 1475.68 266C1482.7 268.173 1489.85 268.543 1497.06 268.425C1502.26 268.344 1507.41 267.975 1512.59 267.723C1512.51 271.93 1513.61 273.185 1517.74 273.36C1519.96 273.425 1522.27 273.291 1524.44 272.791C1530.2 271.504 1535.88 270.035 1541.74 268.549C1541.41 269.251 1541.09 269.901 1540.77 270.551C1538.51 275.034 1539.46 279.366 1543.67 282.115C1545.79 283.549 1548.26 284.897 1550.7 285.405C1558.52 286.985 1566.43 288.195 1574.46 289.548C1574.21 294.493 1577.61 297.113 1582.25 298.961C1588.18 301.271 1594.46 301.052 1600.6 301.743C1608.9 302.657 1616.5 300.627 1623.83 297.09C1635.17 291.641 1644.95 284 1653.97 275.347C1654.68 274.677 1655.45 274.019 1655.95 273.524C1654.39 280.28 1652.67 287.001 1651.32 293.806C1649.74 301.562 1648.23 309.33 1647.13 317.195C1646.37 322.637 1646.2 328.212 1646.14 333.759C1646.08 339.305 1646.18 344.889 1646.81 350.371C1647.29 354.541 1648.87 355.406 1653.02 355.528C1653.08 357.209 1652.95 358.959 1653.18 360.624C1654.24 367.596 1655.05 374.678 1656.82 381.48C1657.61 384.554 1659.96 387.652 1662.5 389.682C1664.23 391.083 1667.42 390.763 1670.26 391.25C1671.11 394.559 1671.94 398.421 1673.08 402.185C1675.3 409.426 1677.33 416.788 1682.11 422.838C1683.4 424.471 1685.22 426.225 1687.06 426.704C1688.95 427.195 1691.21 426.103 1693.12 425.766C1693.96 432.743 1694.69 440.194 1695.83 447.519C1697.2 456.063 1699.09 464.505 1703.57 472.099C1706.57 477.183 1710.65 480.236 1717.07 478.937C1716.77 481.926 1716.5 484.809 1716.22 487.692C1714.99 499.975 1714.43 512.299 1716.67 524.493C1718.22 532.745 1720.1 541.24 1730.35 543.38C1730.37 543.774 1730.42 544.009 1730.36 544.273C1728.38 559.83 1726.83 575.43 1727.55 591.109C1727.78 595.888 1728.79 600.68 1729.86 605.431C1730.49 608.245 1732.45 610.141 1736 609.459C1735.82 610.251 1735.71 610.726 1735.59 611.254C1731.33 628.231 1726.75 645.135 1724.83 662.596C1724.24 668.244 1724.45 674.075 1724.75 679.76C1725.03 681.437 1726.76 682.891 1727.75 684.398ZM1287.48 638.296C1286.24 636.676 1285.38 635.587 1284.63 634.524C1262.91 604.665 1243.58 573.409 1227.48 540.229C1217.53 519.698 1208.94 498.591 1203.2 476.472C1201.75 470.913 1200.53 465.35 1199.2 459.815C1198.99 460.213 1199 460.66 1199.07 461.066C1201.33 481.158 1206.34 500.662 1213.02 519.714C1228.31 563.383 1251.47 602.638 1280.58 638.539C1283.35 641.959 1286.77 645.248 1288.13 649.231C1291.2 658.112 1293.82 667.224 1295.52 676.511C1298.36 691.901 1298.16 707.477 1295.79 723.001C1295.51 724.715 1296.02 726.834 1296.88 728.422C1301.01 736.324 1308.44 738.871 1317.1 735.363C1320.66 733.905 1323.97 731.664 1327.55 730.377C1342.62 724.899 1357.75 719.658 1372.94 714.428C1374.09 714.026 1375.75 714.298 1376.84 714.883C1386.01 719.777 1394.96 725.121 1404.23 729.815C1424.78 740.167 1446.26 748.398 1468.17 755.229C1483.59 760.062 1499.17 764.432 1514.89 768.221C1530.91 772.136 1547.18 775.219 1563.36 778.448C1572.4 780.255 1581.51 781.575 1590.6 782.948C1596.58 783.825 1602.6 784.491 1608.59 785.093C1609.3 785.145 1610.1 784.329 1610.87 783.895C1610.23 783.302 1609.66 782.392 1608.97 782.234C1605.17 781.58 1601.29 781.243 1597.43 780.629C1581.78 777.969 1566.03 775.56 1550.48 772.478C1518.65 766.142 1487.23 758.288 1456.54 747.765C1437.51 741.211 1418.82 733.901 1400.9 724.711C1393.44 720.877 1386.22 716.711 1378.84 712.731C1381.51 711.29 1384.04 710.482 1386.5 709.714C1408.95 702.434 1431.54 695.743 1454.66 690.896C1466.7 688.391 1478.84 686.239 1491.26 686.435C1495.15 686.496 1498.64 687.024 1501.64 689.939C1503.97 692.145 1506.89 693.761 1509.61 695.446C1525.73 705.444 1543.41 711.576 1561.67 716.174C1582.59 721.498 1603.98 724.37 1625.51 726.108C1647.44 727.827 1669.36 728.376 1691.36 727.386C1692.2 727.358 1693.02 726.489 1693.85 726.014C1692.99 725.648 1692.1 724.889 1691.22 724.852C1674.95 724.661 1658.65 724.851 1642.38 724.436C1619.36 723.802 1596.52 720.983 1573.93 716.332C1552.68 711.934 1531.98 705.607 1513.11 694.528C1508.75 691.966 1504.72 688.924 1500.47 686.11C1500.97 685.392 1501.08 685.14 1501.29 684.965C1518.79 669.259 1536.29 653.501 1553.75 637.73C1554.89 636.658 1555.96 636.573 1557.39 636.902C1568.27 639.688 1579.41 640.866 1590.64 640.951C1625.19 641.075 1657.77 632.573 1689.01 618.366C1689.77 617.984 1690.23 616.925 1690.84 616.23C1689.85 616.169 1688.71 615.796 1687.85 616.153C1676.95 620.201 1666.24 624.85 1655.2 628.309C1626.85 637.233 1597.98 640.976 1568.35 636.48C1564.96 635.976 1561.62 634.985 1558.03 634.157C1569.33 624.529 1580.3 615.105 1591.27 605.734C1590.04 606.006 1589.15 606.692 1588.23 607.313C1558.28 628.265 1529.47 650.76 1501.56 674.408C1499.28 676.328 1496.97 677.632 1493.98 678.054C1488.91 678.776 1483.91 679.958 1478.89 680.969C1443.77 687.887 1408.7 695.316 1374.23 704.995C1355.77 710.192 1337.61 716.461 1319.35 722.259C1317.79 722.734 1316.3 723.392 1314.28 724.204C1314.9 723.181 1315.18 722.689 1315.49 722.316C1336.7 694.4 1358 666.561 1379.02 638.543C1382.24 634.227 1385.45 632.132 1391.08 631.649C1407.25 630.318 1422.53 624.942 1437.69 619.318C1461.74 610.406 1485.03 599.76 1507.82 588.111C1523.48 580.1 1538.99 571.777 1554.49 563.506C1555.31 563.083 1555.65 561.829 1556.23 561.017C1555.21 561.114 1553.98 560.886 1553.16 561.309C1548.41 563.773 1543.79 566.433 1539.15 568.922C1511.58 583.641 1483.64 597.551 1454.79 609.639C1436.31 617.333 1417.66 624.544 1397.88 628.214C1394.16 628.912 1390.35 629.257 1386.04 629.821C1386.67 628.798 1386.85 628.506 1387.03 628.213C1405.59 603.802 1424.1 579.378 1442.7 555.031C1443.27 554.271 1444.6 553.8 1445.58 553.638C1448.67 553.293 1451.84 553.301 1454.99 552.916C1473.62 550.594 1490.96 544.024 1507.99 536.553C1532.03 526.025 1554.82 513.207 1577.22 499.633C1604.03 483.351 1629.93 465.745 1655.29 447.347C1659.23 444.476 1663.13 441.593 1667 438.593C1667.48 438.203 1667.53 437.269 1667.79 436.607C1667.01 436.595 1666.21 436.465 1665.46 436.571C1664.99 436.684 1664.6 437.151 1664.13 437.488C1657.71 442.178 1651.41 447.01 1644.86 451.505C1628.39 462.776 1611.96 474.113 1595.25 484.995C1566.54 503.677 1536.96 520.824 1505.5 534.588C1489.63 541.551 1473.38 547.536 1456.14 550.122C1452.79 550.629 1449.43 550.743 1445.45 551.104C1495.35 485.767 1544.85 421.001 1594.28 356.277C1594.13 356.187 1594.05 356.058 1593.9 355.968C1567.38 387.608 1540.85 419.247 1513.92 451.459C1513.51 446.972 1512.96 443.066 1512.75 439.18C1511.74 421.378 1514.59 404.019 1519.11 386.879C1525.37 363.189 1534.43 340.592 1545.59 318.811C1546.08 317.922 1545.82 316.639 1545.92 315.494C1545.03 316.18 1544.15 316.866 1543.33 317.512C1543.27 317.553 1543.24 317.658 1543.22 317.764C1535.22 333.1 1528.44 348.941 1522.82 365.272C1517.72 380.11 1513.72 395.256 1511.55 410.881C1509.74 424.253 1509.17 437.575 1511.43 450.886C1511.87 453.323 1511.23 454.898 1509.82 456.685C1491.21 479.139 1472.58 501.647 1454.01 524.166C1442.64 537.948 1431.3 551.847 1419.83 565.827C1419.16 564.617 1418.57 563.537 1417.99 562.457C1410.31 547.01 1407.9 530.495 1408.33 513.469C1408.9 490.526 1414.33 468.481 1421.61 446.863C1427.36 429.727 1434.58 413.156 1442.53 396.861C1456.04 369.229 1471.66 342.86 1488.96 317.433C1489.64 316.422 1489.65 314.923 1489.98 313.721C1488.92 314.477 1487.52 314.988 1486.89 316.011C1477.24 331.247 1467.3 346.303 1458.19 361.883C1440.7 391.992 1425.89 423.327 1415.78 456.693C1410.2 475.035 1406.22 493.689 1405.74 512.872C1405.26 531.555 1407.91 549.681 1417.15 566.322C1417.93 567.78 1417.73 568.625 1416.73 569.839C1408.64 579.763 1400.66 589.711 1392.68 599.659C1386.43 607.447 1380.19 615.182 1373.44 623.636C1371.15 616.713 1368.65 610.411 1367.05 603.869C1360.15 576.147 1360.31 547.994 1362.89 519.733C1363.19 516.521 1363.71 513.305 1363.9 510.068C1363.96 509.358 1363.18 508.623 1362.79 507.92C1362.32 508.48 1361.77 508.964 1361.35 509.536C1361.11 509.869 1361.09 510.421 1361.1 510.868C1360.39 518.766 1359.52 526.627 1359.08 534.533C1358.1 552.043 1358.39 569.569 1360.83 586.924C1362.67 599.69 1365.55 612.254 1371.2 623.953C1371.91 625.452 1371.5 626.247 1370.65 627.275C1365.3 634.048 1359.91 640.756 1354.65 647.606C1336.8 670.848 1318.49 693.705 1303.16 718.807C1303.12 718.019 1303.03 717.219 1303.03 716.496C1302.94 705.577 1303.2 694.573 1302.6 683.703C1301.95 671.098 1299.75 658.693 1294.37 647.055C1293.33 644.814 1293.27 642.909 1293.69 640.615C1295.27 631.584 1296.66 622.452 1298.19 613.409C1300.08 602.112 1301.92 590.803 1304.02 579.556C1306.82 564.3 1309.84 549.093 1312.75 533.862C1317.41 509.859 1322.44 485.942 1329.21 462.428C1331.98 452.836 1334.93 443.229 1338.99 434.101C1342.66 425.939 1346.9 417.964 1349.96 409.551C1355.96 392.752 1362.21 376.067 1367.74 359.106C1372.1 345.82 1375.62 332.286 1379.33 318.854C1380.16 315.987 1380.43 312.933 1380.95 309.941C1378.58 315.845 1376.81 321.83 1374.97 327.856C1371.96 337.504 1369.06 347.176 1365.85 356.723C1362.34 367.313 1358.73 377.878 1354.8 388.371C1351.31 397.686 1347.25 406.814 1343.59 416.145C1341.26 422.114 1336.17 426.556 1334.73 433.008C1334.21 435.278 1333.37 437.475 1332.68 439.708C1329.72 449.645 1326.7 459.569 1323.84 469.529C1321.24 478.605 1318.78 487.77 1316.2 497.016C1315.08 496.313 1313.99 495.728 1312.99 494.997C1298.17 484.687 1285.8 471.993 1276.06 456.793C1261.21 433.631 1253.59 408.077 1250.79 380.911C1249.44 368.201 1249.39 355.455 1250.39 342.676C1250.48 341.807 1249.65 340.837 1249.25 339.911C1248.78 340.747 1247.99 341.511 1247.9 342.38C1247.56 346.026 1247.26 349.738 1247.14 353.38C1246.46 378.69 1249.82 403.427 1258.55 427.292C1268.96 455.713 1285.96 479.257 1310.92 496.743C1315.48 499.907 1315.32 499.87 1314.11 505.319C1308.03 532.607 1301.78 559.857 1296.01 587.218C1293.5 599.038 1291.9 611.013 1289.92 622.955C1289.07 627.596 1288.34 632.656 1287.48 638.296Z" fill="black"/>
</mask>
<g mask="url(#mask0_2287_12013)">
<path d="M171 1086.15C278 1094.15 484.4 793.058 579 850.153C748 952.153 827.547 875.462 949 723.153C1009 641.153 1067.6 647.153 1206 759.153C1379 899.153 1508 946.153 1623 888.153C1738 830.153 1848 556.153 1779 385.153C1710 214.153 1879 102.153 1989 133.153" stroke="white" stroke-width="2.5"/>
</g>
</g>
<defs>
<clipPath id="clip0_2287_12013">
<rect width="1919" height="1000" fill="white"/>
</clipPath>
</defs>
</svg>
