<svg width="1751" height="1131" viewBox="0 0 1751 1131" fill="none" xmlns="http://www.w3.org/2000/svg">
<path d="M-19 46.9909C66.6667 27.9909 186 -13.0087 304 10.991C460.9 42.9026 676 192.999 818 60.9909C958.85 -69.9477 1408.5 47.5 1369 123.991C1325.7 207.837 1181 77.9909 1316 16.9909C1451 -44.0091 1791 151.991 1745 300.991C1699 449.991 1335 484.991 1352 730.991C1369 976.991 1582 880.991 1518 1031.99C1461.98 1164.17 1246 916.991 1070 1038.99C949.964 1122.2 677.173 1003.99 599 857.991C531 730.991 344 730.991 284 808.991C198.065 920.706 -9 1224.99 -78 1098.99" stroke="#E3DA9D" stroke-width="2.5"/>
</svg>
