 <svg xmlns="http://www.w3.org/2000/svg">

    <symbol id="triangle" viewBox="0 0 9 7">                                    
         <path d="M7.72676 0.5H1.27324C0.40313 0.5 -0.0518693 1.53432 0.536082 2.17573L3.76285 5.69583C4.15918 6.1282 4.84082 6.1282 5.23715 5.69583L8.46392 2.17572C9.05187 1.53432 8.59687 0.5 7.72676 0.5Z"/>         
    </symbol>

    <symbol id="phone" viewBox="0 0 18 18">                                    
        <path d="M15.9238 18H15.8062C2.20732 17.2177 0.276492 5.73923 0.00659168 2.23615C-0.0151559 1.96379 0.0170338 1.6898 0.101316 1.4299C0.185599 1.17 0.320318 0.929287 0.497754 0.721559C0.67519 0.513831 0.891856 0.343168 1.13534 0.21935C1.37882 0.0955323 1.64433 0.020992 1.91666 6.49101e-07H5.72987C6.00708 -0.000267803 6.27798 0.0827381 6.50748 0.238266C6.73699 0.393795 6.91452 0.614679 7.01709 0.872309L8.06901 3.46154C8.17029 3.71323 8.19543 3.98913 8.14129 4.25499C8.08715 4.52084 7.95613 4.76493 7.7645 4.95692L6.29043 6.44539C6.52069 7.75436 7.14732 8.961 8.08554 9.90205C9.02377 10.8431 10.2283 11.4731 11.5362 11.7069L13.0379 10.2185C13.2328 10.0289 13.4791 9.90087 13.7461 9.85039C14.0132 9.79991 14.2892 9.82921 14.5397 9.93462L17.1487 10.98C17.4024 11.0858 17.6188 11.2648 17.7704 11.4942C17.922 11.7235 18.0019 11.9928 18 12.2677V15.9231C18 16.4739 17.7812 17.0022 17.3919 17.3917C17.0025 17.7812 16.4744 18 15.9238 18ZM2.08275 1.38462C1.89921 1.38462 1.72318 1.45756 1.5934 1.58739C1.46361 1.71722 1.3907 1.89331 1.3907 2.07692V2.13231C1.70904 6.23077 3.7506 15.9231 15.8823 16.6154C15.9732 16.621 16.0643 16.6086 16.1505 16.5789C16.2366 16.5492 16.316 16.5028 16.3841 16.4424C16.4523 16.3819 16.5079 16.3086 16.5476 16.2266C16.5874 16.1446 16.6106 16.0556 16.6159 15.9646V12.2677L14.0068 11.2223L12.0206 13.1954L11.6884 13.1538C5.66758 12.3992 4.85096 6.37615 4.85096 6.31385L4.80944 5.98154L6.77487 3.99462L5.73679 1.38462H2.08275Z"/>  
    </symbol>

    <symbol id="hatch" viewBox="0 0 120 13">                                    
         <path d="M27.6097 5.14659C33.8952 5.50544 40.1591 5.45246 46.4532 5.4805C49.6913 5.5035 52.9222 5.38924 56.1546 5.30243C73.0425 4.88539 89.9276 4.90898 106.784 3.88793C110.32 3.67506 113.837 3.57336 117.376 3.41539C117.789 3.39374 118.227 3.34328 118.634 3.2118C119.323 3.01053 119.604 2.44519 119.594 1.75747C119.584 1.06975 119.247 0.564345 118.611 0.294824C118.135 0.0995465 117.673 0.178817 117.208 0.203179C110.027 0.551971 102.824 0.957026 95.64 1.25091C82.5656 1.79846 69.4624 1.79691 56.3708 2.015C55.2847 2.04439 54.1943 1.99141 53.1413 2.15672C49.8802 2.68552 46.685 1.50399 43.4325 1.70197C38.8903 1.99508 34.3064 1.98754 29.7483 1.97865C23.559 1.97266 17.3869 1.80058 11.2449 1.70951C8.36829 1.66756 5.47594 1.81914 2.58791 2.05308C2.25219 2.07068 1.92223 2.19809 1.59083 2.29805C0.699921 2.59251 0.00273357 3.1246 0.111936 4.22008C0.249842 5.36913 1.05479 5.90508 2.03612 5.85365C5.99159 5.72894 9.82528 6.73936 13.7277 7.08544C17.1883 7.39963 20.656 7.85108 24.0994 8.33135C20.7852 8.33986 17.4955 8.31956 14.1813 8.32806C11.9805 8.33328 9.78249 8.39341 7.58453 8.45354C6.26604 8.49511 5.67647 9.10415 5.75984 10.201C5.87912 11.4887 6.71989 11.7199 7.70122 11.6685C11.5261 11.5231 15.3725 11.294 19.2104 11.3957C25.2018 11.5772 31.1687 11.7876 37.1357 11.9979C41.3394 12.163 45.5733 12.4092 49.7741 12.5194C60.3308 12.8471 70.8772 12.4871 81.4323 12.2918C89.7895 12.1567 98.1509 12.1039 106.487 11.5569C107.184 11.5204 107.884 11.5387 108.283 10.747C108.798 9.70139 108.271 8.5452 107.099 8.41392C105.51 8.24938 103.928 8.19466 102.321 8.16875C95.0126 8.05623 87.6813 7.99996 80.3714 7.85998C73.9683 7.72754 67.558 7.45783 61.129 7.32674C56.3845 7.2175 51.6671 7.13436 46.9168 6.9153C41.4132 6.65313 35.9254 6.19741 30.4347 5.68679C29.3156 5.58026 28.1979 5.50118 27.0803 5.4221C26.3629 5.07428 25.591 5.16979 24.8392 5.15413C25.7962 5.13151 26.7058 5.19396 27.6097 5.14659Z"/>
        <path d="M27.6097 5.14659C26.6541 4.70113 25.7158 5.08066 24.7618 5.15819C25.5623 5.11623 26.3142 5.62744 27.1319 5.4194C27.2826 5.32891 27.4332 5.23843 27.6097 5.14659Z"/>        
    </symbol>

    <symbol id="line" viewBox="0 0 1436 768">
        <path d="M1.65291 770.602C11.9429 747.829 1.6529 601.452 120.584 575.723C200.825 558.363 288.384 630 262.28 678.351C240.272 719.117 173.928 674.928 213.928 611.576C277.064 511.582 341.816 670.123 432.5 631.849C523.184 593.574 465.923 377.756 568.602 324.362C603.902 306.005 665.047 320.78 729 408C808.942 517.025 675.754 533.298 666.22 482.797C652.639 410.861 895.549 339.557 1014.45 356.356C1133.35 373.155 1165.66 523.537 1285.5 466.579C1405.34 409.621 1247 1.57914 1481 1.57952" stroke-width="2.5"/>
    </symbol> 

    <symbol id="bg-line" viewBox="0 0 1556 2314">
        <path d="M860 0.5C861.667 83.1667 972.626 308.777 1117 337C1383 389 715 580 598 512C462.603 433.307 622 223 924 512C1178.11 755.167 896.001 1266 1391 1333C1492 1346.67 1659.8 1418.4 1183 1640C1036 1703 932 1797 876 1674C820 1551 665.286 1535.09 498 1654C332 1772 127 1663 188 1561C232.255 1487 386.591 1648.96 232 1754C154 1807 -32.9999 1765 7.0001 1860C85.7336 2046.99 653.5 2078.5 687.5 1962.5C720.506 1849.89 486.5 1855.5 492.5 1946.5C498.474 2037.11 699 2011 837 2001C975 1991 1216 1949 1291 2118C1335.63 2218.56 1371 2327 1483 2310C1572.6 2296.4 1658.33 2191 1690 2140" stroke-width="2.5"/>
    </symbol>

    <symbol id="vk" viewBox="0 0 56 56">
        <rect width="56" height="56" rx="28" fill="white"/>
        <path fill-rule="evenodd" clip-rule="evenodd" d="M27.7784 34.912H29.2336C29.2336 34.912 29.6701 34.838 29.8884 34.616C30.1066 34.394 30.1066 33.95 30.1066 33.95C30.1066 33.95 30.1066 32.026 30.9797 31.73C31.8528 31.434 33.0169 33.654 34.181 34.468C35.0541 35.134 35.7089 34.986 35.7089 34.986L38.9102 34.912C38.9102 34.912 40.5835 34.838 39.7832 33.432C39.7105 33.358 39.3467 32.47 37.3823 30.62C35.3451 28.696 35.6361 29.066 38.0371 25.736C39.4922 23.738 40.0743 22.554 39.9287 21.962C39.7832 21.444 38.6919 21.592 38.6919 21.592H35.0541C35.0541 21.592 34.763 21.518 34.6175 21.666C34.3993 21.814 34.3265 22.036 34.3265 22.036C34.3265 22.036 33.7445 23.59 33.0169 24.922C31.4163 27.66 30.7614 27.808 30.5432 27.66C29.9611 27.29 30.1066 26.032 30.1066 25.218C30.1066 22.554 30.5432 21.444 29.3063 21.148C28.9425 21.074 28.6515 21 27.6329 21C26.3233 21 25.232 21 24.6499 21.296C24.2134 21.518 23.9224 21.962 24.1406 21.962C24.3589 21.962 24.9409 22.11 25.232 22.48C25.523 23.146 25.523 24.256 25.523 24.256C25.523 24.256 25.7413 27.438 25.0137 27.808C24.5044 28.104 23.8496 27.512 22.3945 24.996C21.6669 23.738 21.0849 22.258 21.0849 22.258C21.0849 22.258 21.0121 21.962 20.7938 21.814C20.5756 21.666 20.2118 21.592 20.2118 21.592H16.7922C16.7922 21.592 16.2829 21.592 16.0647 21.814C15.9192 22.036 16.0647 22.406 16.0647 22.406C16.0647 22.406 18.7567 28.77 21.8124 32.026C24.6499 35.134 27.7784 34.912 27.7784 34.912Z"/>
    </symbol> 

    <symbol id="youtube" viewBox="0 0 56 56">
        <rect width="56" height="56" rx="28" fill="white"/>
        <path d="M39.4991 22.4994C39.3625 22.0154 39.0946 21.574 38.7223 21.2195C38.35 20.8649 37.8863 20.6095 37.3777 20.479C35.5054 20 28 20 28 20C28 20 20.4946 20 18.6223 20.4764C18.1134 20.6066 17.6495 20.8618 17.2772 21.2164C16.9048 21.571 16.6371 22.0126 16.5009 22.4968C16 24.2803 16 28 16 28C16 28 16 31.7197 16.5009 33.5006C16.7768 34.4841 17.5911 35.2586 18.6223 35.521C20.4946 36 28 36 28 36C28 36 35.5054 36 37.3777 35.521C38.4116 35.2586 39.2232 34.4841 39.4991 33.5006C40 31.7197 40 28 40 28C40 28 40 24.2803 39.4991 22.4994ZM25.6161 31.414V24.586L31.8304 27.9745L25.6161 31.414Z"/>
    </symbol> 

    <symbol id="2gis" viewBox="0 0 56 56">
        <rect width="56" height="56" rx="28" fill="white"/>
        <path d="M34.077 30.2813C29.9247 30.3025 29.2531 32.9125 29.0292 35.1194L28.9275 36.0955H28.0929L27.9911 35.1194C27.7673 32.9125 27.0753 30.3025 23.0655 30.2813C22.3938 28.8382 22.1089 27.6711 22.1089 26.3555C22.1089 23.0664 24.6938 19.9894 28.5203 19.9894C32.3469 19.9894 34.8911 23.0451 34.8911 26.3768C34.8911 27.6711 34.769 28.8382 34.077 30.2813ZM28.4797 16C22.17 16 17 21.39 17 27.9893C17 34.6101 22.17 40 28.4797 40C34.8504 40 40 34.6101 40 27.9893C40 21.39 34.8504 16 28.4797 16Z"/>
    </symbol> 

    <symbol id="vector" viewBox="0 0 14 14">
        <path d="M0.385616 4.70179L13.2175 0.0351858C13.3218 -0.00278324 13.4347 -0.0102021 13.5431 0.0138005C13.6515 0.037803 13.7507 0.0922306 13.8292 0.170691C13.9078 0.249152 13.9623 0.348389 13.9863 0.456748C14.0104 0.565106 14.0031 0.678088 13.9652 0.782426L9.29909 13.6156C9.25872 13.7267 9.18559 13.8229 9.08936 13.8916C8.99313 13.9602 8.87833 13.998 8.76015 14H8.75082C8.63417 14 8.52019 13.9651 8.4236 13.8997C8.327 13.8343 8.25224 13.7414 8.20896 13.6331L5.96864 8.032L0.368118 5.79203C0.258096 5.7483 0.163982 5.67213 0.0982857 5.57363C0.032589 5.47513 -0.00158024 5.35896 0.000318527 5.24057C0.00221729 5.12219 0.0400953 5.00718 0.108918 4.91084C0.17774 4.8145 0.274248 4.74138 0.385616 4.70121V4.70179ZM6.63473 7.04093L6.86687 7.13426L8.72516 11.781L12.4417 1.55883L2.22057 5.27578L6.63473 7.04093Z"/>
    </symbol>

    <!-- <symbol id="hatch" viewBox="0 0 120 13">

    </symbol>  -->
</svg>


