<svg width="1436" height="768" viewBox="0 0 1436 768" fill="none" xmlns="http://www.w3.org/2000/svg">
<path d="M1.65291 770.602C11.9429 747.829 1.6529 601.452 120.584 575.723C200.825 558.363 288.384 630 262.28 678.351C240.272 719.117 173.928 674.928 213.928 611.576C277.064 511.582 341.816 670.123 432.5 631.849C523.184 593.574 465.923 377.756 568.602 324.362C603.902 306.005 665.047 320.78 729 408C808.942 517.025 675.754 533.298 666.22 482.797C652.639 410.861 895.549 339.557 1014.45 356.356C1133.35 373.155 1165.66 523.537 1285.5 466.579C1405.34 409.621 1247 1.57914 1481 1.57952" stroke="#ADDDC2" stroke-width="2.5"/>
</svg>
