<svg width="56" height="56" viewBox="0 0 56 56" fill="none" xmlns="http://www.w3.org/2000/svg">
<rect width="56" height="56" rx="28" fill="white"/>
<path d="M34.077 30.2813C29.9247 30.3025 29.2531 32.9125 29.0292 35.1194L28.9275 36.0955H28.0929L27.9911 35.1194C27.7673 32.9125 27.0753 30.3025 23.0655 30.2813C22.3938 28.8382 22.1089 27.6711 22.1089 26.3555C22.1089 23.0664 24.6938 19.9894 28.5203 19.9894C32.3469 19.9894 34.8911 23.0451 34.8911 26.3768C34.8911 27.6711 34.769 28.8382 34.077 30.2813ZM28.4797 16C22.17 16 17 21.39 17 27.9893C17 34.6101 22.17 40 28.4797 40C34.8504 40 40 34.6101 40 27.9893C40 21.39 34.8504 16 28.4797 16Z" fill="#29B24A"/>
</svg>
