<svg width="32" height="16" viewBox="0 0 32 16" fill="none" xmlns="http://www.w3.org/2000/svg">
<g clip-path="url(#clip0_1102_2637)">
<path d="M5.89152 6.73715C6.66648 6.67264 7.43097 6.59892 8.20593 6.53441C13.6621 6.05519 19.1391 5.88931 24.6162 6.03676C26.5117 6.08284 28.3863 6.36853 30.2713 6.56206C30.5541 6.5897 30.8369 6.70029 31.1091 6.80167C31.5699 6.97676 32.0202 7.17951 31.9993 7.70481C31.9888 8.2854 31.8108 8.82912 31.1091 9.03187C30.6169 9.17932 30.0933 9.30834 29.5802 9.29912C27.559 9.28991 25.5378 9.2254 23.5166 9.1701C18.0395 9.04108 12.5625 8.90285 7.08538 8.77383C7.03301 8.77383 6.98065 8.78304 6.81309 8.79226C7.0016 8.93971 7.13774 9.04108 7.27388 9.14246C8.76096 10.2944 10.2899 11.4187 11.7351 12.626C12.3006 13.096 12.73 13.7319 13.0756 14.3586C13.4317 15.0037 12.9709 15.7778 12.1855 15.9713C11.9341 16.0358 11.5362 15.9897 11.3372 15.8515C7.61947 13.2803 3.93318 10.6815 0.225935 8.10108C-0.0463489 7.91677 -0.0568203 7.73245 0.110737 7.52049C0.330658 7.22559 0.550581 6.92147 0.822864 6.67264C3.28389 4.46087 5.99624 2.50714 9.06467 0.977331C10.2481 0.387525 11.4838 -0.0732608 12.8871 0.00968076C13.0442 0.0188965 13.1908 0.0926222 13.3479 0.129485C13.2851 0.286152 13.2641 0.498114 13.1384 0.599487C12.0388 1.54871 10.9288 2.47949 9.80821 3.41028C8.61435 4.39636 7.41002 5.38244 6.20569 6.35931C6.08002 6.46068 5.92294 6.52519 5.77632 6.60813C5.81821 6.645 5.8601 6.69108 5.89152 6.73715Z" fill="#00A649"/>
</g>
<defs>
<clipPath id="clip0_1102_2637">
<rect width="16" height="32" fill="white" transform="translate(32) rotate(90)"/>
</clipPath>
</defs>
</svg>
