<svg width="32" height="16" viewBox="0 0 32 16" fill="none" xmlns="http://www.w3.org/2000/svg">
<g clip-path="url(#clip0_1102_2633)">
<path d="M26.1085 6.73715C25.3335 6.67264 24.569 6.59892 23.7941 6.53441C18.3379 6.05519 12.8609 5.88931 7.38377 6.03676C5.48826 6.08284 3.61369 6.36853 1.72866 6.56206C1.4459 6.5897 1.16314 6.70029 0.89086 6.80167C0.430073 6.97676 -0.0202413 7.17951 0.00070364 7.70481C0.0111761 8.2854 0.189208 8.82912 0.890861 9.03187C1.38306 9.17932 1.90669 9.30834 2.41984 9.29912C4.44102 9.28991 6.46219 9.2254 8.48337 9.1701C13.9605 9.04108 19.4375 8.90285 24.9146 8.77383C24.967 8.77383 25.0193 8.78304 25.1869 8.79226C24.9984 8.93971 24.8623 9.04108 24.7261 9.14246C23.239 10.2944 21.7101 11.4187 20.2649 12.626C19.6994 13.096 19.27 13.7319 18.9244 14.3586C18.5683 15.0037 19.0291 15.7778 19.8145 15.9713C20.0659 16.0358 20.4638 15.9897 20.6628 15.8515C24.3805 13.2803 28.0668 10.6815 31.7741 8.10108C32.0463 7.91677 32.0568 7.73245 31.8893 7.52049C31.6693 7.22559 31.4494 6.92147 31.1771 6.67264C28.7161 4.46087 26.0038 2.50714 22.9353 0.977331C21.7519 0.387525 20.5162 -0.0732608 19.1129 0.00968076C18.9558 0.0188965 18.8092 0.0926222 18.6521 0.129485C18.7149 0.286152 18.7359 0.498114 18.8616 0.599487C19.9612 1.54871 21.0712 2.47949 22.1918 3.41028C23.3856 4.39636 24.59 5.38244 25.7943 6.35931C25.92 6.46068 26.0771 6.52519 26.2237 6.60813C26.1818 6.645 26.1399 6.69108 26.1085 6.73715Z" fill="#00A649"/>
</g>
<defs>
<clipPath id="clip0_1102_2633">
<rect width="16" height="32" fill="white" transform="matrix(4.37114e-08 1 1 -4.37114e-08 0 0)"/>
</clipPath>
</defs>
</svg>
