<svg width="6" height="6" viewBox="0 0 6 6" fill="none" xmlns="http://www.w3.org/2000/svg">
<path d="M1.00423 5.99899C0.578204 5.99599 0.224182 5.76498 0.0801728 5.40796C-0.0728367 5.02393 -0.0068326 4.66691 0.278185 4.36989C0.67721 3.95586 1.08824 3.55383 1.49626 3.14881C1.64327 3.0018 1.64327 3.0018 1.49026 2.84879C1.08524 2.44076 0.67421 2.03873 0.272185 1.62771C-0.00983278 1.33669 -0.0728368 0.928661 0.0891734 0.568637C0.248183 0.211614 0.605206 -0.013401 0.99823 0.00159995C1.25925 0.0106005 1.47826 0.115607 1.66427 0.30162C2.0783 0.715647 2.49232 1.12667 2.90335 1.5437C2.98135 1.62171 3.02036 1.62771 3.10136 1.5467C3.51839 1.12067 3.93841 0.700646 4.36144 0.283618C4.65546 -0.00740065 5.06048 -0.0764052 5.42651 0.0856055C5.78653 0.244616 6.01154 0.598639 5.99954 0.991665C5.99054 1.25868 5.88254 1.4807 5.69352 1.66971C5.2825 2.07774 4.87747 2.49176 4.46045 2.89679C4.37344 2.9808 4.38244 3.0258 4.46345 3.1068C4.88347 3.52083 5.3005 3.93786 5.71453 4.35789C6.00854 4.65791 6.07755 5.06893 5.90954 5.43796C5.74753 5.79198 5.3875 6.017 4.99448 5.99899C4.73346 5.98699 4.51445 5.87899 4.33144 5.69297C3.92341 5.28195 3.50939 4.87392 3.10436 4.45989C3.02036 4.37289 2.97535 4.37889 2.89435 4.46289C2.48632 4.87992 2.0693 5.29095 1.65527 5.70497C1.46626 5.89399 1.23224 5.98999 1.00423 5.99899Z" fill="#B9B5A3"/>
</svg>
