<svg width="12" height="12" viewBox="0 0 12 12" fill="none" xmlns="http://www.w3.org/2000/svg">
<path d="M2.00846 11.998C1.15641 11.992 0.448364 11.53 0.160346 10.8159C-0.145673 10.0479 -0.0136652 9.33381 0.55637 8.73977C1.35442 7.91172 2.17647 7.10767 2.99252 6.29761C3.28654 6.00359 3.28654 6.00359 2.98052 5.69757C2.17047 4.88152 1.34842 4.07747 0.54437 3.25541C-0.0196656 2.67338 -0.145674 1.85732 0.178347 1.13727C0.496367 0.423228 1.21041 -0.0268021 1.99646 0.00319992C2.51849 0.0212011 2.95652 0.231215 3.32854 0.603239C4.1566 1.43129 4.98465 2.25335 5.8067 3.0874C5.96271 3.24341 6.04071 3.25541 6.20272 3.0934C7.03677 2.24135 7.87683 1.40129 8.72288 0.567237C9.31092 -0.0148013 10.121 -0.15281 10.853 0.171211C11.5731 0.489232 12.0231 1.19728 11.9991 1.98333C11.9811 2.51737 11.7651 2.96139 11.387 3.33942C10.565 4.15547 9.75494 4.98353 8.92089 5.79358C8.74688 5.96159 8.76488 6.0516 8.92689 6.21361C9.76695 7.04166 10.601 7.87572 11.429 8.71577C12.0171 9.31581 12.1551 10.1379 11.8191 10.8759C11.4951 11.584 10.775 12.034 9.98896 11.998C9.46693 11.974 9.0289 11.758 8.66288 11.3859C7.84682 10.5639 7.01877 9.74784 6.20872 8.91978C6.04071 8.74577 5.95071 8.75778 5.7887 8.92579C4.97265 9.75984 4.13859 10.5819 3.31054 11.4099C2.93252 11.788 2.46449 11.98 2.00846 11.998Z" fill="#2F4237"/>
</svg>
