<svg width="18" height="18" viewBox="0 0 18 18" fill="none" xmlns="http://www.w3.org/2000/svg">
<path d="M15.9238 18H15.8062C2.20732 17.2177 0.276492 5.73923 0.00659168 2.23615C-0.0151559 1.96379 0.0170338 1.6898 0.101316 1.4299C0.185599 1.17 0.320318 0.929287 0.497754 0.721559C0.67519 0.513831 0.891856 0.343168 1.13534 0.21935C1.37882 0.0955323 1.64433 0.020992 1.91666 6.49101e-07H5.72987C6.00708 -0.000267803 6.27798 0.0827381 6.50748 0.238266C6.73699 0.393795 6.91452 0.614679 7.01709 0.872309L8.06901 3.46154C8.17029 3.71323 8.19543 3.98913 8.14129 4.25499C8.08715 4.52084 7.95613 4.76493 7.7645 4.95692L6.29043 6.44539C6.52069 7.75436 7.14732 8.961 8.08554 9.90205C9.02377 10.8431 10.2283 11.4731 11.5362 11.7069L13.0379 10.2185C13.2328 10.0289 13.4791 9.90087 13.7461 9.85039C14.0132 9.79991 14.2892 9.82921 14.5397 9.93462L17.1487 10.98C17.4024 11.0858 17.6188 11.2648 17.7704 11.4942C17.922 11.7235 18.0019 11.9928 18 12.2677V15.9231C18 16.4739 17.7812 17.0022 17.3919 17.3917C17.0025 17.7812 16.4744 18 15.9238 18ZM2.08275 1.38462C1.89921 1.38462 1.72318 1.45756 1.5934 1.58739C1.46361 1.71722 1.3907 1.89331 1.3907 2.07692V2.13231C1.70904 6.23077 3.7506 15.9231 15.8823 16.6154C15.9732 16.621 16.0643 16.6086 16.1505 16.5789C16.2366 16.5492 16.316 16.5028 16.3841 16.4424C16.4523 16.3819 16.5079 16.3086 16.5476 16.2266C16.5874 16.1446 16.6106 16.0556 16.6159 15.9646V12.2677L14.0068 11.2223L12.0206 13.1954L11.6884 13.1538C5.66758 12.3992 4.85096 6.37615 4.85096 6.31385L4.80944 5.98154L6.77487 3.99462L5.73679 1.38462H2.08275Z" fill="#2F4237"/>
</svg>
