<svg width="14" height="14" viewBox="0 0 14 14" fill="none" xmlns="http://www.w3.org/2000/svg">
<path d="M0.385616 4.70179L13.2175 0.0351858C13.3218 -0.00278324 13.4347 -0.0102021 13.5431 0.0138005C13.6515 0.037803 13.7507 0.0922306 13.8292 0.170691C13.9078 0.249152 13.9623 0.348389 13.9863 0.456748C14.0104 0.565106 14.0031 0.678088 13.9652 0.782426L9.29909 13.6156C9.25872 13.7267 9.18559 13.8229 9.08936 13.8916C8.99313 13.9602 8.87833 13.998 8.76015 14H8.75082C8.63417 14 8.52019 13.9651 8.4236 13.8997C8.327 13.8343 8.25224 13.7414 8.20896 13.6331L5.96864 8.032L0.368118 5.79203C0.258096 5.7483 0.163982 5.67213 0.0982857 5.57363C0.032589 5.47513 -0.00158024 5.35896 0.000318527 5.24057C0.00221729 5.12219 0.0400953 5.00718 0.108918 4.91084C0.17774 4.8145 0.274248 4.74138 0.385616 4.70121V4.70179ZM6.63473 7.04093L6.86687 7.13426L8.72516 11.781L12.4417 1.55883L2.22057 5.27578L6.63473 7.04093Z" fill="#00A649"/>
</svg>
