<svg width="56" height="56" viewBox="0 0 56 56" fill="none" xmlns="http://www.w3.org/2000/svg">
<rect width="56" height="56" rx="28" fill="white"/>
<path fill-rule="evenodd" clip-rule="evenodd" d="M27.7784 34.912H29.2336C29.2336 34.912 29.6701 34.838 29.8884 34.616C30.1066 34.394 30.1066 33.95 30.1066 33.95C30.1066 33.95 30.1066 32.026 30.9797 31.73C31.8528 31.434 33.0169 33.654 34.181 34.468C35.0541 35.134 35.7089 34.986 35.7089 34.986L38.9102 34.912C38.9102 34.912 40.5835 34.838 39.7832 33.432C39.7105 33.358 39.3467 32.47 37.3823 30.62C35.3451 28.696 35.6361 29.066 38.0371 25.736C39.4922 23.738 40.0743 22.554 39.9287 21.962C39.7832 21.444 38.6919 21.592 38.6919 21.592H35.0541C35.0541 21.592 34.763 21.518 34.6175 21.666C34.3993 21.814 34.3265 22.036 34.3265 22.036C34.3265 22.036 33.7445 23.59 33.0169 24.922C31.4163 27.66 30.7614 27.808 30.5432 27.66C29.9611 27.29 30.1066 26.032 30.1066 25.218C30.1066 22.554 30.5432 21.444 29.3063 21.148C28.9425 21.074 28.6515 21 27.6329 21C26.3233 21 25.232 21 24.6499 21.296C24.2134 21.518 23.9224 21.962 24.1406 21.962C24.3589 21.962 24.9409 22.11 25.232 22.48C25.523 23.146 25.523 24.256 25.523 24.256C25.523 24.256 25.7413 27.438 25.0137 27.808C24.5044 28.104 23.8496 27.512 22.3945 24.996C21.6669 23.738 21.0849 22.258 21.0849 22.258C21.0849 22.258 21.0121 21.962 20.7938 21.814C20.5756 21.666 20.2118 21.592 20.2118 21.592H16.7922C16.7922 21.592 16.2829 21.592 16.0647 21.814C15.9192 22.036 16.0647 22.406 16.0647 22.406C16.0647 22.406 18.7567 28.77 21.8124 32.026C24.6499 35.134 27.7784 34.912 27.7784 34.912Z" fill="#2787F5"/>
</svg>
