<svg width="56" height="56" viewBox="0 0 56 56" fill="none" xmlns="http://www.w3.org/2000/svg">
<rect width="56" height="56" rx="28" fill="white"/>
<path d="M39.4991 22.4994C39.3625 22.0154 39.0946 21.574 38.7223 21.2195C38.35 20.8649 37.8863 20.6095 37.3777 20.479C35.5054 20 28 20 28 20C28 20 20.4946 20 18.6223 20.4764C18.1134 20.6066 17.6495 20.8618 17.2772 21.2164C16.9048 21.571 16.6371 22.0126 16.5009 22.4968C16 24.2803 16 28 16 28C16 28 16 31.7197 16.5009 33.5006C16.7768 34.4841 17.5911 35.2586 18.6223 35.521C20.4946 36 28 36 28 36C28 36 35.5054 36 37.3777 35.521C38.4116 35.2586 39.2232 34.4841 39.4991 33.5006C40 31.7197 40 28 40 28C40 28 40 24.2803 39.4991 22.4994ZM25.6161 31.414V24.586L31.8304 27.9745L25.6161 31.414Z" fill="#FF0000"/>
</svg>
