<svg width="1919" height="1000" viewBox="0 0 1919 1000" fill="none" xmlns="http://www.w3.org/2000/svg">
<g clip-path="url(#clip0_2305_12118)">
<path d="M0 697.5C17.1667 785.667 84 956.7 214 935.5C376.5 909 695.5 639 872.5 790.5C1071.5 960.829 1296.5 801.5 1247.5 640C1198.5 478.5 1310 367.5 1472.5 461.5C1635 555.5 1631.5 909.5 1742.5 922.5C1853.5 935.5 1973.5 558.5 1797.5 383.5C1656.7 243.5 1875.83 136.167 2003 100" stroke="#ADDDC2" stroke-width="2.5"/>
<mask id="mask0_2305_12118" style="mask-type:alpha" maskUnits="userSpaceOnUse" x="1085" y="236" width="678" height="645">
<path d="M1480.87 394.487C1533.84 427.241 1595.55 437.457 1636.5 484.394C1696.02 552.608 1779.54 626.123 1760.14 714.565C1740.3 804.993 1640.85 862.302 1549.88 879.266C1473.21 893.564 1416.74 815.41 1342.19 792.508C1261.31 767.662 1151.4 811.71 1103.28 742.08C1054.67 671.721 1115.86 580.246 1138.53 497.77C1164.01 405.055 1149.24 267.777 1241.25 240.016C1335.82 211.485 1396.84 342.535 1480.87 394.487Z" fill="#FD6F00"/>
</mask>
<g mask="url(#mask0_2305_12118)">
<path d="M0 697.5C17.1667 785.667 84 956.7 214 935.5C376.5 909 695.5 639 872.5 790.5C1071.5 960.829 1296.5 801.5 1247.5 640C1198.5 478.5 1310 367.5 1472.5 461.5C1635 555.5 1631.5 909.5 1742.5 922.5C1853.5 935.5 1973.5 558.5 1797.5 383.5C1656.7 243.5 1875.83 136.167 2003 100" stroke="white" stroke-width="2.5"/>
</g>
</g>
<defs>
<clipPath id="clip0_2305_12118">
<rect width="1919" height="1000" fill="white"/>
</clipPath>
</defs>
</svg>
