<svg width="1556" height="2314" viewBox="0 0 1556 2314" fill="none" xmlns="http://www.w3.org/2000/svg">
<path d="M860 0.5C861.667 83.1667 972.626 308.777 1117 337C1383 389 715 580 598 512C462.603 433.307 622 223 924 512C1178.11 755.167 896.001 1266 1391 1333C1492 1346.67 1659.8 1418.4 1183 1640C1036 1703 932 1797 876 1674C820 1551 665.286 1535.09 498 1654C332 1772 127 1663 188 1561C232.255 1487 386.591 1648.96 232 1754C154 1807 -32.9999 1765 7.0001 1860C85.7336 2046.99 653.5 2078.5 687.5 1962.5C720.506 1849.89 486.5 1855.5 492.5 1946.5C498.474 2037.11 699 2011 837 2001C975 1991 1216 1949 1291 2118C1335.63 2218.56 1371 2327 1483 2310C1572.6 2296.4 1658.33 2191 1690 2140" stroke="#E3DA9D" stroke-width="2.5"/>
</svg>
