<svg width="32" height="42" viewBox="0 0 32 42" fill="none" xmlns="http://www.w3.org/2000/svg">
<path d="M32 22.9236C31.925 26.9688 30.9669 31.4489 28.659 35.5926C27.351 37.9229 25.5514 39.7774 23.0436 40.8769C21.4356 41.5825 19.736 41.8533 17.9863 41.96C15.2036 42.1241 12.4959 41.7959 9.91308 40.7456C6.79708 39.482 4.53924 37.3075 2.94791 34.3864C0.631745 30.1115 -0.151421 25.5493 0.0235417 20.7574C0.223499 15.2023 2.35637 10.4022 5.84729 6.15183C8.22178 3.25534 11.1961 1.22042 14.9287 0.350649C17.6281 -0.281163 20.1942 -0.166289 22.4854 1.58966C22.9603 1.95069 23.4435 2.29532 23.8767 2.69738C27.0511 5.55284 29.1423 9.08114 30.492 13.0607C31.5001 16.0475 31.9917 19.1245 32 22.9236ZM16.62 40.8605C16.645 40.8194 16.6616 40.7702 16.6866 40.7292C16.42 40.3025 16.1451 39.884 15.8868 39.4573C15.7868 39.2932 15.5952 39.0963 15.8785 38.9322C16.1117 38.7927 16.3117 38.8502 16.47 39.0963C16.7533 39.5312 17.0532 39.9661 17.3615 40.3846C17.4615 40.5158 17.6281 40.6882 17.7697 40.6882C18.253 40.7046 18.7445 40.6553 19.3027 40.6307C19.1694 40.4256 19.0944 40.3107 19.0195 40.204C18.5862 39.5886 18.153 38.965 17.7197 38.3496C17.6031 38.1855 17.4948 37.964 17.7531 37.8655C17.9114 37.8081 18.1363 37.8655 18.3113 37.9312C18.4113 37.964 18.4696 38.1117 18.5446 38.2101C19.0111 38.8337 19.4777 39.4656 19.9609 40.0892C20.0526 40.204 20.2275 40.3599 20.3358 40.3435C20.7607 40.2861 21.1773 40.163 21.6606 40.0481C21.3606 39.5804 21.1273 39.1948 20.8774 38.8255C20.4192 38.1445 19.9526 37.4634 19.486 36.7824C19.3361 36.5609 19.1111 36.3229 19.4527 36.0849C19.811 35.8388 19.9443 36.167 20.1026 36.3639C20.3692 36.6921 20.6191 37.0368 20.8774 37.3814C21.3523 38.0214 21.8189 38.6696 22.2938 39.3097C22.3937 39.4491 22.4937 39.6297 22.727 39.482C23.1686 39.1866 23.6101 38.8912 24.0684 38.5958C23.9934 38.4727 23.9601 38.4153 23.9184 38.366C23.1019 37.2747 22.2938 36.1834 21.4689 35.1003C21.3023 34.8788 21.344 34.7475 21.5439 34.5916C21.7355 34.4439 21.9105 34.3454 22.1021 34.5998C22.2521 34.8131 22.4354 35.0018 22.5937 35.207C23.2935 36.1014 23.9934 37.0039 24.7099 37.9312C25.2265 37.5209 25.7097 37.127 26.2596 36.6839C25.0682 35.2234 23.9184 33.8121 22.777 32.409C23.2352 31.8264 23.4018 31.81 23.8184 32.3351C24.4266 33.0982 25.0182 33.8777 25.6097 34.649C25.943 35.0839 26.2762 35.5188 26.6678 36.0275C26.9428 35.5762 27.1844 35.1742 27.426 34.7885C27.5593 34.5834 27.5343 34.4193 27.3843 34.2387C26.3179 32.9423 25.2598 31.6376 24.1933 30.3412C24.035 30.1525 23.8601 29.9884 24.1017 29.7504C24.3683 29.4961 24.5433 29.6766 24.7182 29.8817C25.693 31.0387 26.6678 32.1956 27.6426 33.3526C27.7342 33.4674 27.8342 33.5741 27.9759 33.7464C28.1758 33.2787 28.3341 32.8685 28.5341 32.4828C28.7174 32.13 28.6674 31.8756 28.3924 31.572C27.426 30.5135 26.4929 29.4304 25.5514 28.3473C25.1931 27.9288 25.2431 27.6006 25.7347 27.2068C26.8011 28.454 27.8676 29.7012 28.9423 30.9484C28.9923 30.9484 29.0423 30.9402 29.0923 30.9402C29.2589 30.4315 29.4172 29.9145 29.5922 29.414C29.7172 29.0694 29.6505 28.7986 29.3839 28.5278C28.4008 27.5022 27.4426 26.4601 26.4679 25.4344C26.0763 25.0241 26.0763 24.7123 26.5262 24.2775C27.6259 25.4754 28.7257 26.6734 29.8338 27.8632C29.8755 27.8468 29.9254 27.8304 29.9671 27.814C30.0588 27.2806 30.1921 26.7473 30.2337 26.2139C30.2504 26.0006 30.1504 25.7216 30.0004 25.5739C29.0423 24.6057 28.0508 23.662 27.0761 22.7102C26.7428 22.382 26.7261 21.9471 27.1177 21.504C28.1758 22.5543 29.2339 23.5964 30.292 24.6385C30.3337 24.6303 30.367 24.6139 30.4087 24.6057C30.4087 24.0313 30.392 23.4569 30.417 22.8825C30.4337 22.5625 30.3254 22.341 30.1004 22.1277C29.2756 21.3481 28.4674 20.5604 27.6509 19.7809C27.2593 19.4035 27.2427 19.1491 27.6009 18.6814C28.5174 19.5758 29.4422 20.4702 30.4337 21.4302C30.4337 21.0363 30.4087 20.7409 30.442 20.4456C30.4753 20.0435 30.3337 19.7563 30.0338 19.4855C29.2256 18.7717 28.4508 18.0332 27.6676 17.2947C27.276 16.9255 27.251 16.7203 27.5343 16.1624C28.4091 16.9993 29.2756 17.828 30.2337 18.7388C30.2171 18.5337 30.2254 18.4517 30.2087 18.3778C30.0088 17.6393 29.8088 16.9008 29.5839 16.1706C29.5422 16.0393 29.4089 15.9244 29.3006 15.8341C28.7007 15.3746 28.0842 14.9234 27.4843 14.4639C27.3427 14.3572 27.1427 14.2505 27.0927 14.1028C27.0344 13.9059 27.1011 13.6761 27.1094 13.4628C27.2677 13.4874 27.451 13.471 27.576 13.5531C27.8842 13.7418 28.1592 13.9715 28.4508 14.1849C28.6924 14.3654 28.934 14.5459 29.1839 14.7264C29.2256 14.6936 29.2756 14.6608 29.3172 14.628C29.0756 14.1356 28.909 13.5859 28.5674 13.1674C28.2258 12.7571 27.7093 12.4782 27.2594 12.1581C26.7511 11.7971 26.7011 11.5263 27.0927 10.9273C27.451 11.1653 27.8092 11.3951 28.1925 11.6494C28.1925 11.5592 28.2008 11.5181 28.1925 11.4853C28.1592 11.3376 28.1175 11.1981 28.0758 11.0504C27.0511 7.88316 25.1431 5.31489 22.5437 3.22252C20.6691 1.71274 18.5696 1.12195 16.1367 1.51581C13.4207 1.9589 11.0878 3.11585 9.15491 4.98667C4.74753 9.21243 2.11476 14.308 1.66486 20.3799C1.36492 24.4169 1.98145 28.3473 3.58111 32.0889C5.53902 36.6429 8.82998 39.6707 13.9122 40.5487C14.8037 40.7046 15.7118 40.762 16.62 40.8605Z" fill="#2F4237"/>
<path d="M8.32175 10.7961C7.7802 10.6976 7.68022 10.5581 7.91351 10.1642C8.73833 8.78575 9.80477 7.60418 11.0378 6.57031C11.2128 6.42261 11.4044 6.29133 11.5877 6.57852C11.7294 6.80006 11.821 6.99699 11.5294 7.20212C10.3463 8.00624 9.53816 9.12217 8.85497 10.3448C8.74666 10.5253 8.50504 10.6402 8.32175 10.7961Z" fill="#2F4237"/>
</svg>
