<svg width="48" height="40" viewBox="0 0 48 40" fill="none" xmlns="http://www.w3.org/2000/svg">
<path d="M33.8739 39C30.5384 38.6151 26.9233 38.2605 23.327 37.7642C18.8361 37.1463 14.3826 36.2143 9.98493 35.0494C8.50352 34.6543 7.05006 34.1782 5.69909 33.3982C2.97851 31.8281 1.41324 29.2856 0.584023 26.1453C-0.133391 23.4508 -0.124074 20.7057 0.257926 17.9706C0.509486 16.1574 0.8449 14.3543 1.16168 12.5512C1.32007 11.6294 1.73002 10.819 2.32631 10.1707C4.99099 7.28376 7.76747 4.54873 11.1402 2.6342C14.7366 0.598125 18.4076 0.466439 22.0878 2.22901C25.1345 3.6877 28.1252 5.2882 31.1067 6.90896C35.2155 9.1375 39.2219 11.5788 42.958 14.4961C43.7872 15.1444 44.5978 15.8231 45.3991 16.5221C46.5544 17.5249 47.1786 18.8013 46.955 20.4626C46.7407 22.0833 46.5451 23.7041 46.3121 25.3147C46.0233 27.29 45.7438 29.2856 45.3711 31.2406C45.0264 33.0437 44.3369 34.705 43.135 36.0522C41.6909 37.6629 39.8647 38.4125 37.8709 38.686C36.6503 38.8683 35.4019 38.8886 33.8739 39ZM40.5356 36.9437C40.9455 36.7613 41.3555 36.5689 41.7934 36.3764C41.2623 35.8091 40.8058 35.3229 40.3865 34.8772C40.1442 35.1203 39.8834 35.3938 39.548 35.7382C39.7809 35.9611 40.0418 36.1738 40.2654 36.427C40.3865 36.5689 40.4517 36.7816 40.5356 36.9639C40.3865 36.9133 40.2095 36.9031 40.107 36.7917C39.8368 36.5182 39.6132 36.1941 39.3896 35.9206C38.9051 36.4473 38.4951 36.893 38.0479 37.3691C38.197 37.4704 38.3833 37.7135 38.5044 37.6831C39.1939 37.4805 39.8647 37.1969 40.5356 36.9437ZM45.4363 22.3467C45.4084 22.3264 45.3711 22.296 45.3432 22.2758C44.7562 22.4176 44.1785 22.6202 43.5916 22.681C42.9953 22.7519 42.3803 22.7316 41.7747 22.681C39.8834 22.529 37.992 22.3872 36.1193 22.1542C32.4484 21.6984 28.7774 21.2729 25.1252 20.655C20.4666 19.8649 15.836 18.9228 11.2055 17.9605C9.04391 17.5148 6.91962 16.8868 4.76738 16.3499C3.62138 16.0663 2.33563 16.2182 1.44119 15.0533C1.34802 15.6205 1.25485 16.1169 1.171 16.6234C0.733095 19.3483 0.518803 22.0833 1.03124 24.8285C1.85114 29.1843 4.04065 32.2738 8.04699 33.6312C11.7924 34.8975 15.6404 35.6167 19.4883 36.3561C19.6188 36.3865 19.7772 36.2751 19.9728 36.2143C19.861 36.0624 19.7958 36.0117 19.7678 35.9408C19.7213 35.8193 19.6933 35.6876 19.656 35.566C19.7678 35.5964 19.8983 35.5964 20.0008 35.6572C20.2616 35.8091 20.4666 36.0016 20.6436 36.3055C20.9138 36.7816 21.5101 36.9943 21.9946 36.0725C21.8642 35.799 21.7617 35.566 21.6499 35.3229C21.8828 35.4242 22.1157 35.5255 22.3673 35.6471C22.4884 35.5964 22.6748 35.5052 22.8611 35.4242C22.8145 35.6369 22.7586 35.8598 22.7027 36.0928C22.8518 36.346 23.0288 36.6499 23.2804 37.0652C23.4388 36.8221 23.6158 36.5587 23.8301 36.2346C23.7462 36.1637 23.5972 36.0624 23.4853 35.9307C23.4294 35.8598 23.4294 35.7281 23.4108 35.6268C23.5226 35.6369 23.6531 35.6065 23.7369 35.6673C23.886 35.7787 24.0071 35.9307 24.1934 36.1232C24.3146 35.9611 24.3891 35.799 24.5102 35.7078C24.6127 35.6268 24.7618 35.6167 24.8829 35.5863C24.8456 35.718 24.8363 35.8598 24.7618 35.9611C24.6686 36.113 24.5382 36.2244 24.4357 36.346C24.7059 36.6499 24.9668 36.9335 25.237 37.2273C25.3115 37.1564 25.3767 37.0855 25.4512 37.0247C25.5817 36.9234 25.7121 36.8322 25.8332 36.7411C25.6749 36.5182 25.5631 36.4169 25.5258 36.2751C25.5072 36.2143 25.6283 36.1029 25.6842 36.0117C25.8892 36.1839 26.0941 36.3359 26.3736 36.2346C26.383 36.2346 26.4389 36.3663 26.4575 36.4372C26.4854 36.579 26.5134 36.7208 26.532 36.8626C26.5413 36.9538 26.532 37.045 26.5227 37.1361C26.4389 37.1361 26.3271 37.1665 26.2805 37.1159C26.0196 36.8424 25.9264 37.0551 25.8053 37.2678C26.5972 37.5514 26.942 37.5109 27.2122 37.1766C27.1749 36.9741 27.147 36.812 27.119 36.6398C27.2774 36.6702 27.4451 36.7107 27.6687 36.7512C27.7432 36.66 27.8271 36.5182 27.9482 36.4169C28.0134 36.3663 28.1346 36.3967 28.2277 36.3865C28.2184 36.4878 28.2277 36.6094 28.1811 36.6904C28.088 36.8424 27.9575 36.9639 27.8457 37.0956C28.4141 37.8553 28.6004 37.8756 29.1874 37.2374C29.5694 36.8221 29.9421 36.4068 30.3334 36.0117C30.4079 35.9307 30.5663 35.9408 30.6874 35.9104C30.6502 36.0421 30.6502 36.2042 30.5756 36.2852C30.3986 36.4676 30.1936 36.6195 30.0073 36.7715C30.939 38.1086 30.9949 38.1187 31.7682 37.2172C31.7962 37.1665 31.7868 37.1969 31.7682 37.2172C31.6937 36.9639 31.6378 36.7715 31.5819 36.5891C31.7682 36.6398 31.9452 36.6904 32.1875 36.7613C32.262 36.6904 32.3831 36.5587 32.5043 36.4372C32.9422 35.9611 33.3801 35.4748 33.8273 35.0089C33.8925 34.938 34.0323 34.9481 34.1441 34.9278C34.1254 35.0494 34.1347 35.1811 34.0788 35.2723C34.0043 35.3938 33.8925 35.4951 33.79 35.5964C33.3148 36.0928 32.8397 36.5891 32.3738 37.0753C33.3614 38.5644 34.4236 38.2504 34.8242 37.2982C34.6285 37.1057 34.4143 36.9133 34.2279 36.6904C34.1534 36.5992 34.1627 36.4372 34.1254 36.3055C34.2465 36.346 34.4049 36.346 34.4795 36.427C34.6845 36.6499 34.8522 36.9133 35.0385 37.1665C35.2248 36.974 35.3087 36.893 35.3832 36.812C35.8863 36.265 36.3895 35.7078 36.9019 35.171C36.9764 35.1 37.1162 35.1 37.2187 35.0595C37.2001 35.1912 37.2094 35.3533 37.1442 35.4343C37.0137 35.5964 36.8274 35.6977 36.7435 35.7686C37.1255 36.2346 37.4237 36.6094 37.6845 36.9335C38.1131 36.4777 38.5231 36.0522 38.9423 35.6065C38.8212 35.4748 38.6908 35.333 38.579 35.171C38.5324 35.1102 38.551 34.9987 38.5417 34.9076C38.6349 34.9076 38.7653 34.8671 38.8212 34.9177C38.9517 35.0494 39.0541 35.2317 39.1846 35.4242C39.5014 35.0494 39.7436 34.7455 39.9579 34.4923C39.9206 34.3099 39.8927 34.1377 39.8647 33.9554C40.0324 34.006 40.1908 34.0466 40.3865 34.0972C40.489 33.9959 40.6287 33.8743 40.7033 33.8034C40.6008 33.5097 40.5262 33.297 40.4517 33.0842C40.6474 33.1653 40.843 33.2362 41.0387 33.3071C41.1971 33.2463 41.3741 33.1754 41.5604 33.1045C41.5045 33.3071 41.4486 33.5097 41.4021 33.692C41.8493 34.1782 42.3244 34.6949 42.8182 35.2419C42.9766 35.0089 43.163 34.7455 43.312 34.5227C43.135 34.3099 42.9953 34.1377 42.8555 33.9655C42.753 34.0769 42.6692 34.1884 42.5667 34.2491C42.4735 34.2998 42.3524 34.2897 42.2406 34.2998C42.2685 34.1884 42.2685 34.0567 42.3244 33.9554C42.3897 33.8338 42.4921 33.7325 42.6133 33.5806C42.222 33.1754 41.8586 32.8107 41.5139 32.4258C41.4393 32.3346 41.43 32.1726 41.3834 32.051C41.5139 32.0915 41.6909 32.0814 41.7747 32.1726C42.1381 32.5575 42.4735 32.9728 42.7623 33.3172C43.1164 32.9627 43.3959 32.6892 43.7406 32.3346C43.3773 31.9598 43.0046 31.6053 42.6599 31.2204C42.5387 31.0887 42.4921 30.8759 42.4083 30.7037C42.5853 30.7949 42.7903 30.8354 42.9207 30.9772C43.2748 31.352 43.6009 31.7572 43.9363 32.1422C44.8028 31.3622 44.7655 31.0076 43.8804 30.3289C43.6475 30.3897 43.4704 30.4302 43.3027 30.4809C43.3586 30.2884 43.4145 30.1061 43.4798 29.9136C43.5263 29.8832 43.5636 29.863 43.6102 29.8326C43.4239 29.6806 43.2282 29.5287 43.0605 29.3565C43.0139 29.316 43.0512 29.1843 43.0512 29.083C43.135 29.083 43.2468 29.0425 43.3027 29.0931C43.4798 29.2451 43.6475 29.4274 43.7965 29.5793C44.0854 29.2957 44.3556 29.0222 44.6164 28.7588C44.3742 28.5056 44.1506 28.2726 43.9736 28.0801C43.7593 28.1612 43.5543 28.2321 43.3586 28.3131C43.4425 28.0903 43.5263 27.8674 43.5822 27.7053C43.517 27.4825 43.4611 27.29 43.4052 27.0975C43.5916 27.1583 43.7779 27.2191 44.0108 27.3001C44.0201 27.29 44.076 27.2394 44.1319 27.1887C44.4208 26.9051 44.7003 26.6214 45.0171 26.3074C44.7096 26.0238 44.4674 25.7908 44.2158 25.568C44.1133 25.568 43.9642 25.568 43.8245 25.568C43.8897 25.4261 43.9177 25.2641 44.0108 25.1526C44.2903 24.8386 44.5978 24.555 44.8307 24.3119C44.7655 24.0586 44.7376 23.9269 44.7096 23.7851C44.8307 23.7952 44.9518 23.8054 45.0637 23.8155C45.1196 23.8155 45.1848 23.8256 45.2314 23.7952C45.7717 23.5116 46.0513 22.8633 45.9022 22.0327C45.7438 22.2657 45.6413 22.4277 45.5202 22.5797C45.3898 22.7418 45.25 22.9038 45.0916 23.0355C45.0264 23.0963 44.9053 23.0862 44.8121 23.1064C44.8214 22.995 44.7935 22.8329 44.8494 22.762C45.0637 22.6202 45.2593 22.4885 45.4363 22.3467ZM5.35436 15.5598C6.0345 15.9244 6.55626 15.5699 6.55626 14.8406C6.55626 14.2935 7.11528 14.9824 7.19913 14.5367C7.27367 14.567 7.37616 14.5772 7.42274 14.638C7.45069 14.6683 7.41343 14.7899 7.38547 14.8608C7.35752 14.9418 7.30162 15.0229 7.2923 15.033C7.46001 15.266 7.59045 15.4483 7.68362 15.5699C7.9445 15.4483 8.14016 15.3572 8.33581 15.2761C8.27059 15.5091 8.21469 15.732 8.13084 16.0257C8.56874 16.6842 8.60601 16.6943 8.99732 16.1372C8.93211 15.9346 8.8762 15.7624 8.8203 15.5902C9.00664 15.6307 9.19298 15.6712 9.35137 15.7016C9.50045 15.6509 9.64952 15.6003 9.79859 15.5496C9.76132 15.7522 9.72406 15.9447 9.6961 16.1068C9.83586 16.2992 9.97562 16.4917 10.2272 16.8361C10.4228 16.5423 10.5626 16.3195 10.721 16.1169C10.7676 16.0561 10.9073 16.0865 11.0005 16.0764C10.9912 16.1777 11.0191 16.3094 10.9632 16.3803C10.8235 16.5727 10.6558 16.7449 10.5067 16.9172C10.9073 16.9374 11.2521 17.373 11.5968 17.0995C11.4943 16.7956 11.4198 16.5525 11.3452 16.3195C11.5222 16.4208 11.6993 16.5322 11.8763 16.6335C11.9042 16.6538 11.9322 16.6538 11.8577 16.6335C12.1185 16.5525 12.2862 16.5018 12.4633 16.4512C12.4074 16.6538 12.3515 16.8564 12.2862 17.0691C12.7428 17.6465 12.8546 17.6668 13.1061 17.2616C13.0316 16.9982 12.9664 16.7753 12.9105 16.5626C13.1061 16.6538 13.3018 16.7348 13.5068 16.8361C13.6093 16.7956 13.7677 16.7449 13.9167 16.6943C13.8981 16.8868 13.8701 17.0691 13.8329 17.4135C14.1683 17.606 14.5689 17.839 15.0627 18.1226C15.0441 17.4338 15.2118 17.5249 15.5099 17.768C15.7522 17.9706 16.0503 18.1834 16.3485 18.234C21.1281 19.0647 25.9078 19.875 30.6874 20.6854C31.0694 20.7563 31.4794 20.8981 31.3117 20.1283C31.4608 20.1688 31.5819 20.2397 31.6564 20.2093C31.8707 20.1182 32.0664 19.9865 32.2713 19.875C32.1782 20.0878 32.085 20.3106 31.9918 20.5233C31.9825 20.5335 31.9918 20.5537 31.9918 20.6145C32.3831 21.1514 32.9701 20.9083 33.4826 21.0197C33.408 20.8678 33.2962 20.7665 33.231 20.6449C33.1844 20.5639 33.1937 20.4423 33.1751 20.341C33.2776 20.3511 33.4266 20.3309 33.4826 20.3917C33.6037 20.5233 33.6689 20.7057 33.7807 20.9184C34.4702 20.1485 35.0292 19.5205 35.6068 18.9127C35.7 18.8215 35.8584 18.8013 35.9888 18.7608C35.9516 18.9026 35.9516 19.0748 35.8677 19.166C35.6348 19.4293 35.3646 19.6522 35.1689 19.8345C35.5975 20.3511 35.9423 20.7665 36.3243 21.2324C36.5572 20.9589 36.7715 20.7361 36.9392 20.4727C37.051 20.2904 37.023 19.9966 37.1628 19.8548C37.3119 19.7028 37.6007 19.7231 37.7591 19.5813C38.0759 19.3078 38.3274 18.9532 38.6256 18.6696C38.7281 18.5683 38.8958 18.5582 39.0355 18.5075C38.9796 18.6493 38.9703 18.8317 38.8771 18.933C38.5044 19.3382 38.1131 19.713 37.7404 20.0979C38.1783 20.655 38.551 21.121 38.8492 21.5059C39.2125 21.1109 39.6691 20.6246 40.1722 20.0878C40.0324 19.9561 39.7902 19.7231 39.5573 19.4698C39.4921 19.3888 39.4921 19.247 39.4641 19.1254C39.5852 19.1558 39.7343 19.1356 39.8088 19.2065C40.0511 19.4597 40.2654 19.7433 40.4703 19.9865C40.7871 19.6421 41.0201 19.3787 41.225 19.1558C41.1319 18.933 41.0387 18.7101 40.9455 18.4771C41.1691 18.5683 41.3927 18.6493 41.6536 18.7608C41.784 18.5987 42.1288 18.4771 41.9424 18.0618C41.9424 18.0517 42.1101 17.9099 42.1567 17.9301C42.2685 17.9808 42.3524 18.0821 42.4456 18.1834C42.9487 18.7405 43.4611 19.3078 43.927 19.8345C44.2531 19.5205 44.5046 19.2774 44.7282 19.0647C44.4301 18.7304 44.1599 18.4366 43.8804 18.1125C43.7686 18.2239 43.6661 18.3657 43.5357 18.4467C43.4518 18.5075 43.3214 18.4974 43.2096 18.5176C43.2282 18.4062 43.2282 18.2644 43.2841 18.1834C43.3773 18.0517 43.5263 17.9706 43.6661 17.8491C43.4611 17.6161 43.3027 17.454 43.1723 17.2717C43.1257 17.2109 43.1537 17.0894 43.1443 16.9982C43.2375 16.9982 43.3586 16.9577 43.4239 17.0083C43.5916 17.14 43.7406 17.3122 43.8431 17.4236C44.0947 17.2008 44.3183 17.0184 44.5885 16.7753C43.312 15.7927 42.1288 14.8203 40.8803 13.9289C35.0478 9.7149 28.7588 6.40247 22.4046 3.2116C20.8673 2.44174 19.2368 1.93525 17.5224 1.83395C14.7925 1.67188 12.3701 2.66459 10.0967 4.18406C7.52523 5.90611 5.3264 8.1144 3.14621 10.3531C2.85738 10.6468 2.64309 11.0318 2.39153 11.3762C2.17724 11.6598 2.26109 11.8523 2.66173 12.0346C2.78285 11.8624 2.9226 11.6598 3.08099 11.4673C3.12758 11.4167 3.23938 11.437 3.32324 11.4268C3.32324 11.5281 3.36982 11.6902 3.32324 11.7307C3.14621 11.9131 2.94124 12.065 2.83875 12.1562C3.01577 12.4702 3.12758 12.6728 3.27665 12.926C3.60275 12.5411 3.83568 12.2473 4.09655 11.984C4.17109 11.9029 4.32948 11.9333 4.4506 11.9029C4.42265 12.0144 4.42265 12.1663 4.34811 12.2473C4.08724 12.5411 3.80772 12.8045 3.60275 13.0172C3.71455 13.3312 3.79841 13.5541 3.88226 13.7871C3.67729 13.706 3.46299 13.625 3.21143 13.5237C3.16485 13.5743 3.08099 13.6655 2.98782 13.7465C2.69899 14.0302 2.41017 14.3138 2.0468 14.6785C2.40085 14.9013 2.65241 15.0634 2.89465 15.2255C2.88534 15.0533 2.8108 14.9925 2.76421 14.9013C2.68968 14.7595 2.63377 14.5974 2.57787 14.4455C2.72695 14.5063 2.88534 14.567 3.03441 14.638C3.10894 14.6785 3.17416 14.7595 3.29529 14.8709C3.6307 14.486 3.94748 14.1315 4.26426 13.7567C4.31085 13.6959 4.3947 13.5946 4.37606 13.5541C4.05928 12.8551 4.49719 13.1691 4.79533 13.2401C4.87919 13.1388 4.96304 12.9868 5.08416 12.8855C5.14938 12.8247 5.2705 12.845 5.36367 12.8349C5.35436 12.9362 5.38231 13.0678 5.33572 13.1388C5.23323 13.3008 5.1028 13.4325 4.99099 13.5541C5.2705 13.8681 5.51275 14.1416 5.76431 14.4354C5.82953 14.3847 5.86679 14.3341 5.9227 14.3138C6.06245 14.253 6.20221 14.2125 6.34196 14.1619C6.29538 14.3037 6.27674 14.4759 6.19289 14.5873C5.94133 14.9013 5.6525 15.2154 5.35436 15.5598ZM44.2158 17.8086C44.2624 17.8693 44.3276 17.9504 44.3928 18.0213C44.7376 18.4062 45.1009 18.781 45.4363 19.166C45.4922 19.2369 45.4922 19.3685 45.5202 19.4698C45.4177 19.4698 45.3059 19.48 45.2034 19.4597C45.1382 19.4496 45.0823 19.3787 45.1009 19.3989C44.8121 19.6826 44.5699 19.9257 44.3183 20.1891C44.4021 20.2904 44.5233 20.3815 44.5885 20.5132C44.6817 20.6753 44.7282 20.8678 44.8028 21.0501C44.6537 20.969 44.486 20.9083 44.3556 20.807C44.2344 20.7158 44.1319 20.5841 44.0295 20.4828C43.8618 20.6652 43.722 20.8171 43.5729 20.9893C43.7872 21.2527 44.0108 21.5059 44.2251 21.7592C45.2593 21.5262 46.0978 20.7158 46.2283 19.8345C46.368 18.9127 45.7531 17.7174 44.8028 17.0995C44.6164 17.3122 44.4301 17.5351 44.2158 17.8086ZM40.7871 20.3106C41.0853 20.6145 41.3555 20.8678 41.5977 21.1514C41.6722 21.2324 41.6629 21.3945 41.6909 21.5262C41.5698 21.4857 41.4207 21.4857 41.3461 21.4046C41.076 21.1311 40.843 20.8272 40.6753 20.6348C40.2654 21.0197 39.93 21.3439 39.4734 21.7794C40.9641 21.7794 42.3151 21.7794 43.5729 21.7794C43.4891 21.6275 43.3866 21.4249 43.2375 21.1514C43.0791 21.3742 42.9953 21.5262 42.8741 21.6275C42.7996 21.6883 42.6692 21.6579 42.5667 21.668C42.5853 21.5667 42.576 21.4451 42.6319 21.3641C42.7251 21.2122 42.8555 21.0906 42.9394 20.9994C42.4828 20.4828 42.0356 19.9763 41.5698 19.4597C41.3275 19.7231 41.0853 19.9865 40.7871 20.3106ZM36.5013 36.2548C36.1379 36.6398 35.7932 37.0044 35.4578 37.359C35.9423 38.3517 36.9764 38.2301 37.4423 37.2779C37.1348 36.9335 36.8181 36.5993 36.5013 36.2548ZM4.70216 13.9187C4.32948 14.3341 3.9568 14.7494 3.50026 15.266C3.91021 15.3572 4.29221 15.4483 4.65558 15.5294C4.58104 15.2761 4.53445 15.1039 4.48787 14.9317C4.69284 15.0026 4.90714 15.0837 5.11211 15.1546C5.23323 15.0431 5.37299 14.9216 5.50343 14.8C5.2146 14.4759 4.95372 14.1922 4.70216 13.9187ZM40.694 34.3707C41.2064 34.9481 41.6629 35.4647 42.1288 36.0016C42.2499 35.88 42.3803 35.7483 42.4921 35.6369C41.9797 35.1 41.5045 34.5834 40.9921 34.0466C40.9082 34.1479 40.7778 34.2897 40.694 34.3707ZM41.9238 19.0748C42.3803 19.5914 42.8276 20.0878 43.2096 20.5132C43.3679 20.4018 43.545 20.2701 43.6568 20.1992C43.1816 19.6724 42.7437 19.1862 42.2685 18.6696C42.1567 18.7912 42.0263 18.9532 41.9238 19.0748ZM38.4392 21.6275C38.0945 21.2426 37.7684 20.888 37.5541 20.6449C37.2839 20.9083 37.0044 21.1919 36.7156 21.4654C37.2932 21.5161 37.8709 21.5768 38.4392 21.6275ZM34.7963 20.3309C34.6192 20.5233 34.377 20.807 34.0788 21.1514C34.7217 21.2324 35.2714 21.2932 35.8491 21.3641C35.4857 21.0197 35.1596 20.6955 34.7963 20.3309ZM44.3928 27.5939C44.5885 27.8775 44.7841 28.151 44.9798 28.4245C45.0171 28.4144 45.0637 28.4144 45.1009 28.4043C45.1848 27.8168 45.2779 27.2394 45.3804 26.5607C44.9705 26.9963 44.6444 27.3305 44.3928 27.5939ZM2.00022 14.2125C2.33563 13.8377 2.65241 13.4832 2.93192 13.1691C2.8108 12.9868 2.68968 12.7943 2.56856 12.5917C2.12134 13.078 1.553 13.392 2.00022 14.2125ZM44.5326 25.2235C44.8307 25.497 45.1009 25.7604 45.4363 26.0744C45.5388 25.4261 45.8276 24.8893 45.1661 24.5246C44.9705 24.7373 44.7655 24.9602 44.5326 25.2235ZM44.7562 30.6227C44.8494 30.0453 44.9332 29.5895 45.0171 29.0627C44.6817 29.397 44.4208 29.6502 44.1692 29.9035C44.3556 30.1263 44.5139 30.3289 44.7562 30.6227ZM44.1599 32.8107C44.1226 32.8006 44.0947 32.7803 44.0574 32.7702C43.7872 33.0538 43.517 33.3476 43.2189 33.6515C43.34 33.7832 43.4518 33.9149 43.6195 34.1073C43.8152 33.6414 43.9922 33.226 44.1599 32.8107ZM7.43206 16.0966C7.44138 16.0359 7.46001 15.9852 7.46933 15.9244C7.30162 15.7421 7.13391 15.5598 7.03143 15.4382C6.83577 15.5902 6.67738 15.7218 6.40718 15.9346C6.83577 16.0055 7.13391 16.0561 7.43206 16.0966ZM29.3737 37.6021C29.383 37.6426 29.4017 37.6933 29.411 37.7338C29.6905 37.754 29.9793 37.7743 30.3054 37.7946C30.1098 37.5413 29.9607 37.359 29.8396 37.207C29.6532 37.3691 29.5135 37.4805 29.3737 37.6021ZM32.5508 37.9972C32.4111 37.7844 32.2993 37.592 32.1595 37.3792C31.9825 37.592 31.8614 37.7237 31.6844 37.9364C32.0477 37.9566 32.2993 37.9769 32.5508 37.9972ZM21.948 36.7613C22.2834 36.812 22.5257 36.8424 22.7679 36.8829C22.7773 36.8525 22.7959 36.8221 22.8052 36.7816C22.6748 36.6296 22.535 36.4878 22.3859 36.3156C22.2369 36.4676 22.1344 36.579 21.948 36.7613Z" fill="#2F4237"/>
<path d="M10.7676 32.1523C8.90415 32.1219 7.34821 30.4505 7.37616 28.4955C7.39479 26.7734 8.77371 25.4565 10.544 25.4768C12.454 25.497 13.9167 26.9557 13.8888 28.8196C13.8701 30.7139 12.5099 32.1726 10.7676 32.1523ZM10.8421 31.3419C12.1651 31.3318 13.162 30.2175 13.1527 28.7386C13.1434 27.3508 11.9788 26.2669 10.5253 26.277C9.12776 26.2872 8.1122 27.2596 8.12152 28.5765C8.12152 30.096 9.36069 31.3419 10.8421 31.3419Z" fill="#2F4237"/>
<path d="M32.0198 25.2438C33.8273 25.2438 35.1317 26.5809 35.1317 28.4245C35.141 30.3998 33.7155 32.0307 31.9918 32.0105C30.2588 32.0003 28.7122 30.3391 28.7215 28.5056C28.7402 26.6417 30.147 25.2337 32.0198 25.2438ZM32.0198 26.0441C30.557 26.0441 29.4669 27.0975 29.4576 28.5056C29.4576 29.9339 30.6688 31.2001 32.0384 31.2001C33.3428 31.2001 34.3956 29.9541 34.3956 28.4245C34.3956 26.9963 33.436 26.0441 32.0198 26.0441Z" fill="#2F4237"/>
<path d="M17.4572 25.335C16.1715 25.3248 15.3888 24.6563 15.277 23.694C15.1652 22.7316 15.6404 22.0529 16.5255 21.8605C16.8143 21.7997 17.0752 21.6376 17.3547 21.5566C18.2305 21.3135 19.0411 21.6781 19.3765 22.448C19.7119 23.1976 19.4697 24.1802 18.8082 24.7576C18.3517 25.1628 17.8113 25.335 17.4572 25.335ZM17.2709 24.6056C17.597 24.4739 17.951 24.3828 18.2492 24.1903C18.743 23.8662 18.9293 23.2584 18.7337 22.8025C18.538 22.3467 18.0256 22.1441 17.4386 22.3568C17.0659 22.4986 16.7212 22.762 16.3485 22.9038C15.9665 23.0456 15.9572 23.3293 16.0224 23.6636C16.1249 24.2106 16.5907 24.5246 17.2709 24.6056Z" fill="#2F4237"/>
<path d="M8.0004 21.5667C7.95381 22.2758 7.63703 22.8532 7.01279 23.1875C6.39787 23.5116 5.80157 23.3901 5.2705 22.9342C4.73011 22.4683 4.48787 21.8605 4.62762 21.1007C4.73943 20.5031 5.04689 20.0574 5.53138 19.7535C5.81089 19.5813 6.08109 19.4395 6.37923 19.7535C6.45377 19.8345 6.61216 19.8244 6.73328 19.8649C7.46933 20.0574 8.0004 20.7665 8.0004 21.5667ZM5.99723 20.6449C5.60592 20.6246 5.35436 20.9184 5.3264 21.4148C5.29845 21.9719 5.77362 22.529 6.3047 22.5493C6.76123 22.5695 7.2364 22.0833 7.25504 21.5566C7.2923 20.9893 6.89167 20.6955 5.99723 20.6449Z" fill="#2F4237"/>
<path d="M25.8426 33.6515C24.9761 33.6515 24.3239 32.9222 24.3332 31.97C24.3425 31.0583 25.032 30.3796 25.9357 30.3897C26.7463 30.3998 27.3612 31.1089 27.3612 32.0409C27.3612 32.9829 26.7184 33.6515 25.8426 33.6515ZM26.6345 32.051C26.6345 31.5546 26.3271 31.19 25.8985 31.2001C25.4419 31.2102 25.0693 31.5952 25.0786 32.0409C25.0879 32.5068 25.4233 32.8614 25.8612 32.8715C26.2991 32.8715 26.6345 32.517 26.6345 32.051Z" fill="#2F4237"/>
<path d="M38.169 33.5502C37.4143 33.5401 36.8181 32.831 36.8274 31.9396C36.8274 31.1292 37.4516 30.4505 38.1783 30.4505C38.9796 30.4505 39.6877 31.1697 39.6877 31.9801C39.697 32.8107 38.9703 33.5502 38.169 33.5502ZM38.1877 31.2406C37.8243 31.2406 37.5634 31.5445 37.5727 31.9598C37.5727 32.4055 37.8336 32.7297 38.197 32.7398C38.5976 32.7499 38.9703 32.365 38.961 31.97C38.9423 31.6053 38.5603 31.2406 38.1877 31.2406Z" fill="#2F4237"/>
<path d="M16.982 12.1156C15.7895 12.0549 14.6807 11.7712 13.8888 10.6874C13.1527 9.66425 13.2086 8.56011 14.1124 7.72947C15.3143 6.62533 16.6932 6.29104 18.1933 6.89883C19.1157 7.27363 19.7026 8.02323 19.861 9.09698C20.0846 10.6874 19.2275 11.8523 17.6901 12.0751C17.4572 12.0853 17.2243 12.0954 16.982 12.1156ZM16.805 7.2635C16.7864 7.30402 16.7677 7.34454 16.7584 7.38506C15.864 7.42558 15.0441 7.67882 14.4385 8.45881C14.0379 8.97543 13.982 9.50217 14.3733 10.0289C14.6435 10.3936 15.0068 10.7279 15.3981 10.9406C16.1062 11.3357 16.8889 11.3863 17.6715 11.2445C18.3517 11.1229 18.9107 10.7988 19.1063 10.0087C19.2927 9.22867 19.0318 8.33725 18.3796 7.92193C17.8951 7.62817 17.3361 7.47622 16.805 7.2635Z" fill="#2F4237"/>
<path d="M23.1965 13.6756C24.3053 13.6858 25.1811 14.6582 25.1717 15.8839C25.1624 17.0488 24.2307 17.9808 23.0754 17.9706C21.9574 17.9605 21.0443 17.0184 21.035 15.8738C21.0256 14.6582 22.0039 13.6655 23.1965 13.6756ZM23.1406 14.4658C22.3766 14.4759 21.7337 15.1444 21.7524 15.9143C21.771 16.593 22.4046 17.1907 23.094 17.1805C23.8487 17.1704 24.4264 16.593 24.4264 15.8738C24.4264 15.0634 23.8767 14.4556 23.1406 14.4658Z" fill="#2F4237"/>
<path d="M28.8799 9.95801C29.1688 10.272 29.4762 10.6063 29.8862 11.052C30.1284 10.738 30.3613 10.4139 30.6315 10.11C30.7061 10.0289 30.8645 10.0289 30.9763 9.9884C30.9483 10.1201 30.9576 10.2822 30.8831 10.3632C30.6036 10.657 30.3054 10.9203 30.0166 11.1938C30.147 11.366 30.2123 11.4167 30.2402 11.4876C30.2961 11.6294 30.3241 11.7712 30.3707 11.9131C30.2402 11.8624 30.1098 11.8219 29.9793 11.7611C29.2899 11.4876 29.1781 10.5557 28.5352 10.2619C28.3023 10.505 28.06 10.7583 27.7712 11.0723C28.1159 11.4268 28.4886 11.7814 28.8333 12.1663C28.9172 12.2575 28.9172 12.4499 28.9638 12.5917C28.8333 12.5411 28.6749 12.531 28.5818 12.4398C28.237 12.0751 27.911 11.6902 27.6314 11.3762C27.3426 11.4572 27.1376 11.518 26.9233 11.5788C27.0072 11.3762 27.091 11.1837 27.1842 10.9507C27.1749 10.9406 27.1376 10.8798 27.091 10.8393C26.5972 10.3024 26.1034 9.76555 25.5817 9.18815C25.4047 9.37049 25.2463 9.54269 25.0692 9.69464C25.0133 9.74529 24.9109 9.72503 24.827 9.74529C24.827 9.64399 24.7804 9.49204 24.827 9.4414C24.9761 9.27932 25.1624 9.14763 25.3953 8.9653C24.9854 8.53985 24.6686 8.22583 24.3798 7.88141C24.2959 7.79025 24.3146 7.60791 24.2773 7.46609C24.3984 7.51674 24.5382 7.52687 24.622 7.60791C24.9295 7.93206 25.2183 8.2866 25.5817 8.71205C25.7773 8.44868 25.9078 8.23596 26.0848 8.07388C26.2059 7.96245 26.383 7.93206 26.532 7.87128C26.4668 8.03336 26.4202 8.22583 26.3177 8.36764C26.1873 8.54998 26.001 8.68166 25.8798 8.80322C26.4575 9.4414 26.9979 10.0391 27.529 10.6266C27.7339 10.4037 27.9762 10.1403 28.265 9.82633C28.1346 9.70477 27.9669 9.60347 27.8457 9.45153C27.7712 9.36036 27.7619 9.19828 27.7246 9.07673C27.8457 9.10711 27.9948 9.09698 28.0787 9.16789C28.2184 9.28945 28.3209 9.47179 28.3768 9.55282C28.6563 9.48191 28.824 9.4414 28.9824 9.40088C28.9545 9.57308 28.9172 9.74529 28.8799 9.95801Z" fill="#2F4237"/>
<path d="M23.3922 8.80322C23.476 8.87413 23.5599 8.92478 23.6158 8.99569C24.2121 9.63386 24.8084 10.272 25.386 10.9305C25.4699 11.0216 25.4606 11.204 25.4885 11.3458C25.3674 11.2951 25.2183 11.285 25.1345 11.1938C24.5382 10.5557 23.9419 9.91749 23.3642 9.26919C23.2897 9.18815 23.2711 9.04634 23.2431 8.92478C23.2431 8.90452 23.3363 8.85387 23.3922 8.80322Z" fill="#2F4237"/>
<path d="M31.7682 37.2172C30.9949 38.1187 30.939 38.1086 30.0073 36.7715C30.1936 36.6195 30.3986 36.4676 30.5756 36.2852C30.6502 36.2042 30.6502 36.0421 30.6874 35.9104C30.5663 35.9408 30.4079 35.9307 30.3334 36.0117C29.9421 36.4068 29.5694 36.8221 29.1874 37.2374C28.6004 37.8756 28.4141 37.8553 27.8457 37.0956C27.9575 36.9639 28.088 36.8424 28.1811 36.6904C28.2277 36.6094 28.2184 36.4878 28.2277 36.3865C28.1346 36.3967 28.0134 36.3663 27.9482 36.4169C27.8271 36.5182 27.7432 36.66 27.6687 36.7512C27.4451 36.7107 27.2774 36.6702 27.119 36.6398C27.147 36.812 27.1749 36.9741 27.2122 37.1766C26.942 37.5109 26.5972 37.5514 25.8053 37.2678C25.9264 37.0551 26.0196 36.8424 26.2805 37.1159C26.3271 37.1665 26.4389 37.1361 26.5227 37.1361C26.532 37.045 26.5413 36.9538 26.532 36.8626C26.5134 36.7208 26.4854 36.579 26.4575 36.4372C26.4389 36.3663 26.383 36.2346 26.3736 36.2346C26.0941 36.3359 25.8892 36.1839 25.6842 36.0117C25.6283 36.1029 25.5072 36.2143 25.5258 36.2751C25.5631 36.4169 25.6749 36.5182 25.8332 36.7411C25.7121 36.8322 25.5817 36.9234 25.4512 37.0247C25.3767 37.0855 25.3115 37.1564 25.237 37.2273C24.9668 36.9335 24.7059 36.6499 24.4357 36.346C24.5382 36.2244 24.6686 36.113 24.7618 35.9611C24.8363 35.8598 24.8456 35.718 24.8829 35.5863C24.7618 35.6167 24.6127 35.6268 24.5102 35.7078C24.3891 35.799 24.3146 35.9611 24.1934 36.1232C24.0071 35.9307 23.886 35.7787 23.7369 35.6673C23.6531 35.6065 23.5226 35.6369 23.4108 35.6268C23.4294 35.7281 23.4294 35.8598 23.4853 35.9307C23.5972 36.0624 23.7462 36.1637 23.8301 36.2346C23.6158 36.5587 23.4388 36.8221 23.2804 37.0652C23.0288 36.6499 22.8518 36.346 22.7027 36.0928C22.7586 35.8598 22.8145 35.6369 22.8611 35.4242C22.6748 35.5052 22.4884 35.5964 22.3673 35.6471C22.1157 35.5255 21.8828 35.4242 21.6499 35.3229C21.7617 35.566 21.8642 35.799 21.9946 36.0725C21.5101 36.9943 20.9138 36.7816 20.6436 36.3055C20.4666 36.0016 20.2616 35.8091 20.0008 35.6572C19.8983 35.5964 19.7678 35.5964 19.656 35.566C19.6933 35.6876 19.7213 35.8193 19.7678 35.9408C19.7958 36.0117 19.861 36.0624 19.9728 36.2143C19.7772 36.2751 19.6188 36.3865 19.4883 36.3561C15.6404 35.6167 11.7924 34.8975 8.04699 33.6312C4.04065 32.2738 1.85114 29.1843 1.03124 24.8285C0.518803 22.0833 0.733095 19.3483 1.171 16.6234C1.25485 16.1169 1.34802 15.6205 1.44119 15.0533C2.33563 16.2182 3.62138 16.0663 4.76738 16.3499C6.91962 16.8868 9.04391 17.5148 11.2055 17.9605C15.836 18.9228 20.4666 19.8649 25.1252 20.655C28.7774 21.2729 32.4484 21.6984 36.1193 22.1542C37.992 22.3872 39.8834 22.529 41.7747 22.681C42.3803 22.7316 42.9953 22.7519 43.5916 22.681C44.1785 22.6202 44.7562 22.4176 45.3432 22.2758C45.3711 22.296 45.4084 22.3264 45.4363 22.3467C45.2593 22.4885 45.0637 22.6202 44.8494 22.762C44.7935 22.8329 44.8214 22.995 44.8121 23.1064C44.9053 23.0862 45.0264 23.0963 45.0916 23.0355C45.25 22.9038 45.3898 22.7418 45.5202 22.5797C45.6413 22.4277 45.7438 22.2657 45.9022 22.0327C46.0513 22.8633 45.7717 23.5116 45.2314 23.7952C45.1848 23.8256 45.1196 23.8155 45.0637 23.8155C44.9518 23.8054 44.8307 23.7952 44.7096 23.7851C44.7376 23.9269 44.7655 24.0586 44.8307 24.3119C44.5978 24.555 44.2903 24.8386 44.0108 25.1526C43.9177 25.2641 43.8897 25.4261 43.8245 25.568C43.9642 25.568 44.1133 25.568 44.2158 25.568C44.4674 25.7908 44.7096 26.0238 45.0171 26.3074C44.7003 26.6214 44.4208 26.9051 44.1319 27.1887C44.076 27.2394 44.0201 27.29 44.0108 27.3001C43.7779 27.2191 43.5916 27.1583 43.4052 27.0975C43.4611 27.29 43.517 27.4825 43.5822 27.7053C43.5263 27.8674 43.4425 28.0903 43.3586 28.3131C43.5543 28.2321 43.7593 28.1612 43.9736 28.0801C44.1506 28.2726 44.3742 28.5056 44.6164 28.7588C44.3556 29.0222 44.0854 29.2957 43.7965 29.5793C43.6475 29.4274 43.4798 29.2451 43.3027 29.0931C43.2468 29.0425 43.135 29.083 43.0512 29.083C43.0512 29.1843 43.0139 29.316 43.0605 29.3565C43.2282 29.5287 43.4239 29.6806 43.6102 29.8326C43.5636 29.863 43.5263 29.8832 43.4798 29.9136C43.4145 30.1061 43.3586 30.2884 43.3027 30.4809C43.4704 30.4302 43.6475 30.3897 43.8804 30.3289C44.7655 31.0076 44.8028 31.3622 43.9363 32.1422C43.6009 31.7572 43.2748 31.352 42.9207 30.9772C42.7903 30.8354 42.5853 30.7949 42.4083 30.7037C42.4921 30.8759 42.5387 31.0887 42.6599 31.2204C43.0046 31.6053 43.3773 31.9598 43.7406 32.3346C43.3959 32.6892 43.1164 32.9627 42.7623 33.3172C42.4735 32.9728 42.1381 32.5575 41.7747 32.1726C41.6909 32.0814 41.5139 32.0915 41.3834 32.051C41.43 32.1725 41.4393 32.3346 41.5139 32.4258C41.8586 32.8107 42.2219 33.1754 42.6133 33.5806C42.4921 33.7325 42.3897 33.8338 42.3244 33.9554C42.2685 34.0567 42.2685 34.1884 42.2406 34.2998C42.3524 34.2897 42.4735 34.2998 42.5667 34.2491C42.6692 34.1884 42.753 34.0769 42.8555 33.9655C42.9953 34.1377 43.135 34.3099 43.312 34.5227C43.163 34.7455 42.9766 35.0089 42.8182 35.2419C42.3244 34.6949 41.8493 34.1782 41.402 33.692C41.4486 33.5097 41.5045 33.3071 41.5604 33.1045C41.3741 33.1754 41.1971 33.2463 41.0387 33.3071C40.843 33.2362 40.6474 33.1653 40.4517 33.0842C40.5262 33.297 40.6008 33.5097 40.7033 33.8034C40.6287 33.8743 40.489 33.9959 40.3865 34.0972C40.1908 34.0466 40.0324 34.006 39.8647 33.9554C39.8927 34.1377 39.9206 34.3099 39.9579 34.4923C39.7436 34.7455 39.5014 35.0494 39.1846 35.4242C39.0542 35.2317 38.9517 35.0494 38.8212 34.9177C38.7653 34.8671 38.6349 34.9076 38.5417 34.9076C38.551 34.9988 38.5324 35.1102 38.579 35.171C38.6908 35.333 38.8212 35.4748 38.9423 35.6065C38.5231 36.0522 38.1131 36.4777 37.6845 36.9335C37.4237 36.6094 37.1255 36.2346 36.7435 35.7686C36.8274 35.6977 37.0137 35.5964 37.1442 35.4343C37.2094 35.3533 37.2001 35.1912 37.2187 35.0595C37.1162 35.1 36.9764 35.1 36.9019 35.171C36.3895 35.7078 35.8864 36.265 35.3832 36.812C35.3087 36.893 35.2248 36.9741 35.0385 37.1665C34.8522 36.9133 34.6845 36.6499 34.4795 36.427C34.4049 36.346 34.2465 36.346 34.1254 36.3055C34.1627 36.4372 34.1534 36.5992 34.2279 36.6904C34.4143 36.9133 34.6285 37.1057 34.8242 37.2982C34.4236 38.2504 33.3614 38.5644 32.3738 37.0753C32.8397 36.5891 33.3148 36.0928 33.79 35.5964C33.8925 35.4951 34.0043 35.3938 34.0788 35.2723C34.1347 35.1811 34.1254 35.0494 34.1441 34.9278C34.0323 34.9481 33.8925 34.938 33.8273 35.0089C33.3801 35.4748 32.9422 35.9611 32.5043 36.4372C32.3831 36.5587 32.262 36.6904 32.1875 36.7613C31.9452 36.6904 31.7682 36.6398 31.5819 36.5891C31.6378 36.7715 31.6937 36.9639 31.7682 37.2172ZM31.7682 37.2172C31.7868 37.1969 31.7962 37.1665 31.7682 37.2172ZM33.8739 39C30.5384 38.6151 26.9233 38.2605 23.327 37.7642C18.8361 37.1463 14.3826 36.2143 9.98493 35.0494C8.50352 34.6543 7.05006 34.1782 5.69909 33.3982C2.97851 31.8281 1.41324 29.2856 0.584023 26.1454C-0.133391 23.4508 -0.124074 20.7057 0.257926 17.9706C0.509486 16.1574 0.8449 14.3543 1.16168 12.5512C1.32007 11.6294 1.73002 10.819 2.32631 10.1707C4.99099 7.28376 7.76747 4.54873 11.1402 2.6342C14.7366 0.598125 18.4076 0.466439 22.0878 2.22901C25.1345 3.6877 28.1252 5.2882 31.1067 6.90896C35.2155 9.1375 39.2219 11.5788 42.958 14.4961C43.7872 15.1444 44.5978 15.8231 45.3991 16.5221C46.5544 17.5249 47.1786 18.8013 46.955 20.4626C46.7407 22.0833 46.5451 23.7041 46.3121 25.3147C46.0233 27.29 45.7438 29.2856 45.3711 31.2406C45.0264 33.0437 44.3369 34.705 43.135 36.0522C41.6909 37.6629 39.8647 38.4125 37.8709 38.686C36.6504 38.8683 35.4019 38.8886 33.8739 39ZM40.5356 36.9437C40.9455 36.7613 41.3555 36.5689 41.7934 36.3764C41.2623 35.8091 40.8058 35.3229 40.3865 34.8772C40.1442 35.1203 39.8834 35.3938 39.548 35.7382C39.7809 35.9611 40.0418 36.1738 40.2654 36.427C40.3865 36.5689 40.4517 36.7816 40.5356 36.9639C40.3865 36.9133 40.2095 36.9031 40.107 36.7917C39.8368 36.5182 39.6132 36.1941 39.3896 35.9206C38.9051 36.4473 38.4951 36.893 38.0479 37.3691C38.197 37.4704 38.3833 37.7135 38.5044 37.6831C39.1939 37.4805 39.8647 37.1969 40.5356 36.9437ZM5.35436 15.5598C6.0345 15.9244 6.55626 15.5699 6.55626 14.8406C6.55626 14.2935 7.11528 14.9824 7.19913 14.5367C7.27367 14.567 7.37616 14.5772 7.42274 14.638C7.45069 14.6683 7.41343 14.7899 7.38547 14.8608C7.35752 14.9418 7.30162 15.0229 7.2923 15.033C7.46001 15.266 7.59045 15.4483 7.68362 15.5699C7.9445 15.4483 8.14016 15.3572 8.33581 15.2761C8.27059 15.5091 8.21469 15.732 8.13084 16.0257C8.56874 16.6842 8.60601 16.6943 8.99732 16.1372C8.93211 15.9346 8.8762 15.7624 8.8203 15.5902C9.00664 15.6307 9.19298 15.6712 9.35137 15.7016C9.50045 15.6509 9.64952 15.6003 9.79859 15.5496C9.76132 15.7522 9.72406 15.9447 9.6961 16.1068C9.83586 16.2992 9.97562 16.4917 10.2272 16.8361C10.4228 16.5423 10.5626 16.3195 10.721 16.1169C10.7676 16.0561 10.9073 16.0865 11.0005 16.0764C10.9912 16.1777 11.0191 16.3094 10.9632 16.3803C10.8235 16.5727 10.6558 16.7449 10.5067 16.9172C10.9073 16.9374 11.2521 17.373 11.5968 17.0995C11.4943 16.7956 11.4198 16.5525 11.3452 16.3195C11.5222 16.4208 11.6993 16.5322 11.8763 16.6335C11.9042 16.6538 11.9322 16.6538 11.8577 16.6335C12.1185 16.5525 12.2862 16.5018 12.4633 16.4512C12.4074 16.6538 12.3515 16.8564 12.2862 17.0691C12.7428 17.6465 12.8546 17.6668 13.1061 17.2616C13.0316 16.9982 12.9664 16.7753 12.9105 16.5626C13.1061 16.6538 13.3018 16.7348 13.5068 16.8361C13.6093 16.7956 13.7677 16.7449 13.9167 16.6943C13.8981 16.8868 13.8701 17.0691 13.8329 17.4135C14.1683 17.606 14.5689 17.839 15.0627 18.1226C15.0441 17.4338 15.2118 17.5249 15.5099 17.768C15.7522 17.9706 16.0503 18.1834 16.3485 18.234C21.1281 19.0647 25.9078 19.875 30.6874 20.6854C31.0694 20.7563 31.4794 20.8981 31.3117 20.1283C31.4608 20.1688 31.5819 20.2397 31.6564 20.2093C31.8707 20.1182 32.0664 19.9865 32.2713 19.875C32.1782 20.0878 32.085 20.3106 31.9918 20.5233C31.9825 20.5335 31.9918 20.5537 31.9918 20.6145C32.3831 21.1514 32.9701 20.9083 33.4826 21.0197C33.408 20.8678 33.2962 20.7665 33.231 20.6449C33.1844 20.5639 33.1937 20.4423 33.1751 20.341C33.2776 20.3511 33.4266 20.3309 33.4826 20.3917C33.6037 20.5233 33.6689 20.7057 33.7807 20.9184C34.4702 20.1485 35.0292 19.5205 35.6068 18.9127C35.7 18.8215 35.8584 18.8013 35.9888 18.7608C35.9516 18.9026 35.9516 19.0748 35.8677 19.166C35.6348 19.4293 35.3646 19.6522 35.1689 19.8345C35.5975 20.3511 35.9423 20.7665 36.3243 21.2324C36.5572 20.9589 36.7715 20.7361 36.9392 20.4727C37.051 20.2904 37.023 19.9966 37.1628 19.8548C37.3119 19.7028 37.6007 19.7231 37.7591 19.5813C38.0759 19.3078 38.3274 18.9532 38.6256 18.6696C38.7281 18.5683 38.8958 18.5582 39.0355 18.5075C38.9796 18.6493 38.9703 18.8317 38.8771 18.933C38.5044 19.3382 38.1131 19.713 37.7404 20.0979C38.1783 20.655 38.551 21.121 38.8492 21.5059C39.2125 21.1109 39.6691 20.6246 40.1722 20.0878C40.0324 19.9561 39.7902 19.7231 39.5573 19.4698C39.4921 19.3888 39.4921 19.247 39.4641 19.1254C39.5852 19.1558 39.7343 19.1356 39.8088 19.2065C40.0511 19.4597 40.2654 19.7433 40.4703 19.9865C40.7871 19.6421 41.02 19.3787 41.225 19.1558C41.1319 18.933 41.0387 18.7101 40.9455 18.4771C41.1691 18.5683 41.3927 18.6493 41.6536 18.7608C41.784 18.5987 42.1288 18.4771 41.9424 18.0618C41.9424 18.0517 42.1101 17.9099 42.1567 17.9301C42.2685 17.9808 42.3524 18.0821 42.4456 18.1834C42.9487 18.7405 43.4611 19.3078 43.927 19.8345C44.2531 19.5205 44.5046 19.2774 44.7282 19.0647C44.4301 18.7304 44.1599 18.4366 43.8804 18.1125C43.7686 18.2239 43.6661 18.3657 43.5357 18.4467C43.4518 18.5075 43.3214 18.4974 43.2096 18.5176C43.2282 18.4062 43.2282 18.2644 43.2841 18.1834C43.3773 18.0517 43.5263 17.9706 43.6661 17.8491C43.4611 17.6161 43.3027 17.454 43.1723 17.2717C43.1257 17.2109 43.1537 17.0894 43.1443 16.9982C43.2375 16.9982 43.3586 16.9577 43.4239 17.0083C43.5916 17.14 43.7406 17.3122 43.8431 17.4236C44.0947 17.2008 44.3183 17.0184 44.5885 16.7753C43.312 15.7927 42.1288 14.8203 40.8803 13.9289C35.0478 9.7149 28.7588 6.40247 22.4046 3.2116C20.8673 2.44174 19.2368 1.93525 17.5224 1.83395C14.7925 1.67188 12.3701 2.66459 10.0967 4.18406C7.52523 5.90611 5.3264 8.1144 3.14621 10.3531C2.85738 10.6468 2.64309 11.0318 2.39153 11.3762C2.17724 11.6598 2.26109 11.8523 2.66173 12.0346C2.78285 11.8624 2.9226 11.6598 3.08099 11.4673C3.12758 11.4167 3.23938 11.437 3.32324 11.4268C3.32324 11.5281 3.36982 11.6902 3.32324 11.7307C3.14621 11.9131 2.94124 12.065 2.83875 12.1562C3.01577 12.4702 3.12758 12.6728 3.27665 12.926C3.60275 12.5411 3.83568 12.2473 4.09655 11.984C4.17109 11.9029 4.32948 11.9333 4.4506 11.9029C4.42265 12.0144 4.42265 12.1663 4.34811 12.2473C4.08724 12.5411 3.80772 12.8045 3.60275 13.0172C3.71455 13.3312 3.79841 13.5541 3.88226 13.7871C3.67729 13.706 3.46299 13.625 3.21143 13.5237C3.16485 13.5743 3.08099 13.6655 2.98782 13.7465C2.69899 14.0302 2.41017 14.3138 2.0468 14.6785C2.40085 14.9013 2.65241 15.0634 2.89465 15.2255C2.88534 15.0533 2.8108 14.9925 2.76421 14.9013C2.68968 14.7595 2.63378 14.5974 2.57787 14.4455C2.72695 14.5063 2.88534 14.567 3.03441 14.638C3.10894 14.6785 3.17416 14.7595 3.29529 14.8709C3.6307 14.486 3.94748 14.1315 4.26426 13.7567C4.31085 13.6959 4.3947 13.5946 4.37606 13.5541C4.05928 12.8551 4.49719 13.1691 4.79533 13.2401C4.87919 13.1388 4.96304 12.9868 5.08416 12.8855C5.14938 12.8247 5.2705 12.845 5.36367 12.8349C5.35436 12.9362 5.38231 13.0678 5.33572 13.1388C5.23323 13.3008 5.10279 13.4325 4.99099 13.5541C5.2705 13.8681 5.51275 14.1416 5.76431 14.4354C5.82953 14.3847 5.86679 14.3341 5.9227 14.3138C6.06245 14.253 6.20221 14.2125 6.34196 14.1619C6.29538 14.3037 6.27674 14.4759 6.19289 14.5873C5.94133 14.9013 5.6525 15.2154 5.35436 15.5598ZM44.2158 17.8086C44.2624 17.8693 44.3276 17.9504 44.3928 18.0213C44.7376 18.4062 45.1009 18.781 45.4363 19.166C45.4922 19.2369 45.4922 19.3685 45.5202 19.4698C45.4177 19.4698 45.3059 19.48 45.2034 19.4597C45.1382 19.4496 45.0823 19.3787 45.1009 19.3989C44.8121 19.6826 44.5698 19.9257 44.3183 20.1891C44.4021 20.2904 44.5233 20.3815 44.5885 20.5132C44.6817 20.6753 44.7282 20.8678 44.8028 21.0501C44.6537 20.969 44.486 20.9083 44.3556 20.807C44.2344 20.7158 44.1319 20.5841 44.0295 20.4828C43.8618 20.6652 43.722 20.8171 43.5729 20.9893C43.7872 21.2527 44.0108 21.5059 44.2251 21.7592C45.2593 21.5262 46.0978 20.7158 46.2283 19.8345C46.368 18.9127 45.7531 17.7174 44.8028 17.0995C44.6164 17.3122 44.4301 17.5351 44.2158 17.8086ZM40.7871 20.3106C41.0853 20.6145 41.3555 20.8678 41.5977 21.1514C41.6722 21.2324 41.6629 21.3945 41.6909 21.5262C41.5698 21.4857 41.4207 21.4857 41.3461 21.4046C41.076 21.1311 40.843 20.8272 40.6753 20.6348C40.2654 21.0197 39.93 21.3439 39.4734 21.7794C40.9641 21.7794 42.3151 21.7794 43.5729 21.7794C43.4891 21.6275 43.3866 21.4249 43.2375 21.1514C43.0791 21.3742 42.9953 21.5262 42.8741 21.6275C42.7996 21.6883 42.6692 21.6579 42.5667 21.668C42.5853 21.5667 42.576 21.4451 42.6319 21.3641C42.7251 21.2122 42.8555 21.0906 42.9394 20.9994C42.4828 20.4828 42.0356 19.9763 41.5698 19.4597C41.3275 19.7231 41.0853 19.9865 40.7871 20.3106ZM36.5013 36.2548C36.1379 36.6398 35.7932 37.0044 35.4578 37.359C35.9423 38.3517 36.9764 38.2301 37.4423 37.2779C37.1348 36.9335 36.8181 36.5992 36.5013 36.2548ZM4.70216 13.9187C4.32948 14.3341 3.9568 14.7494 3.50026 15.266C3.91021 15.3572 4.29221 15.4483 4.65558 15.5294C4.58104 15.2761 4.53445 15.1039 4.48787 14.9317C4.69284 15.0026 4.90714 15.0837 5.11211 15.1546C5.23323 15.0431 5.37299 14.9216 5.50343 14.8C5.2146 14.4759 4.95372 14.1922 4.70216 13.9187ZM40.694 34.3707C41.2064 34.9481 41.6629 35.4647 42.1288 36.0016C42.2499 35.88 42.3803 35.7483 42.4921 35.6369C41.9797 35.1 41.5045 34.5834 40.9921 34.0466C40.9082 34.1479 40.7778 34.2897 40.694 34.3707ZM41.9238 19.0748C42.3803 19.5914 42.8276 20.0878 43.2096 20.5132C43.3679 20.4018 43.545 20.2701 43.6568 20.1992C43.1816 19.6724 42.7437 19.1862 42.2685 18.6696C42.1567 18.7912 42.0263 18.9532 41.9238 19.0748ZM38.4392 21.6275C38.0945 21.2426 37.7684 20.888 37.5541 20.6449C37.2839 20.9083 37.0044 21.1919 36.7156 21.4654C37.2932 21.5161 37.8709 21.5768 38.4392 21.6275ZM34.7963 20.3309C34.6192 20.5233 34.377 20.807 34.0788 21.1514C34.7217 21.2324 35.2714 21.2932 35.8491 21.3641C35.4857 21.0197 35.1596 20.6955 34.7963 20.3309ZM44.3928 27.5939C44.5885 27.8775 44.7841 28.151 44.9798 28.4245C45.0171 28.4144 45.0637 28.4144 45.1009 28.4043C45.1848 27.8168 45.2779 27.2394 45.3804 26.5607C44.9705 26.9962 44.6444 27.3305 44.3928 27.5939ZM2.00022 14.2125C2.33563 13.8377 2.65241 13.4832 2.93192 13.1691C2.8108 12.9868 2.68968 12.7943 2.56856 12.5917C2.12134 13.078 1.553 13.392 2.00022 14.2125ZM44.5326 25.2235C44.8307 25.497 45.1009 25.7604 45.4363 26.0744C45.5388 25.4261 45.8277 24.8893 45.1661 24.5246C44.9705 24.7373 44.7655 24.9602 44.5326 25.2235ZM44.7562 30.6227C44.8494 30.0453 44.9332 29.5895 45.0171 29.0627C44.6817 29.397 44.4208 29.6502 44.1692 29.9035C44.3556 30.1263 44.5139 30.3289 44.7562 30.6227ZM44.1599 32.8107C44.1226 32.8006 44.0947 32.7803 44.0574 32.7702C43.7872 33.0538 43.517 33.3476 43.2189 33.6515C43.34 33.7832 43.4518 33.9149 43.6195 34.1073C43.8152 33.6414 43.9922 33.226 44.1599 32.8107ZM7.43206 16.0966C7.44138 16.0359 7.46001 15.9852 7.46933 15.9244C7.30162 15.7421 7.13391 15.5598 7.03143 15.4382C6.83577 15.5902 6.67738 15.7218 6.40718 15.9346C6.83577 16.0055 7.13391 16.0561 7.43206 16.0966ZM29.3737 37.6021C29.383 37.6426 29.4017 37.6933 29.411 37.7338C29.6905 37.754 29.9793 37.7743 30.3054 37.7946C30.1098 37.5413 29.9607 37.359 29.8396 37.207C29.6532 37.3691 29.5135 37.4805 29.3737 37.6021ZM32.5508 37.9972C32.4111 37.7844 32.2993 37.592 32.1595 37.3792C31.9825 37.592 31.8614 37.7237 31.6844 37.9364C32.0477 37.9566 32.2993 37.9769 32.5508 37.9972ZM21.948 36.7613C22.2834 36.812 22.5257 36.8424 22.7679 36.8829C22.7773 36.8525 22.7959 36.8221 22.8052 36.7816C22.6748 36.6296 22.535 36.4878 22.3859 36.3156C22.2369 36.4676 22.1344 36.579 21.948 36.7613ZM10.7676 32.1523C8.90415 32.1219 7.34821 30.4505 7.37616 28.4955C7.39479 26.7734 8.77371 25.4565 10.544 25.4768C12.454 25.497 13.9167 26.9557 13.8888 28.8196C13.8701 30.7139 12.5099 32.1726 10.7676 32.1523ZM10.8421 31.3419C12.1651 31.3318 13.162 30.2175 13.1527 28.7386C13.1434 27.3508 11.9788 26.2669 10.5253 26.277C9.12776 26.2872 8.1122 27.2596 8.12152 28.5765C8.12152 30.096 9.36069 31.3419 10.8421 31.3419ZM32.0198 25.2438C33.8273 25.2438 35.1317 26.5809 35.1317 28.4245C35.141 30.3998 33.7155 32.0307 31.9918 32.0105C30.2588 32.0003 28.7122 30.3391 28.7215 28.5056C28.7402 26.6417 30.147 25.2337 32.0198 25.2438ZM32.0198 26.0441C30.557 26.0441 29.4669 27.0975 29.4576 28.5056C29.4576 29.9339 30.6688 31.2001 32.0384 31.2001C33.3428 31.2001 34.3956 29.9541 34.3956 28.4245C34.3956 26.9963 33.436 26.0441 32.0198 26.0441ZM17.4572 25.335C16.1715 25.3248 15.3888 24.6563 15.277 23.694C15.1652 22.7316 15.6404 22.0529 16.5255 21.8605C16.8143 21.7997 17.0752 21.6376 17.3547 21.5566C18.2305 21.3135 19.0411 21.6781 19.3765 22.448C19.7119 23.1976 19.4697 24.1802 18.8082 24.7576C18.3516 25.1628 17.8113 25.335 17.4572 25.335ZM17.2709 24.6056C17.597 24.4739 17.951 24.3828 18.2492 24.1903C18.743 23.8662 18.9293 23.2584 18.7337 22.8025C18.538 22.3467 18.0256 22.1441 17.4386 22.3568C17.0659 22.4986 16.7212 22.762 16.3485 22.9038C15.9665 23.0456 15.9572 23.3293 16.0224 23.6636C16.1249 24.2106 16.5907 24.5246 17.2709 24.6056ZM8.0004 21.5667C7.95381 22.2758 7.63703 22.8532 7.01279 23.1875C6.39787 23.5116 5.80157 23.3901 5.2705 22.9342C4.73011 22.4683 4.48787 21.8605 4.62763 21.1007C4.73943 20.5031 5.04689 20.0574 5.53138 19.7535C5.81089 19.5813 6.08109 19.4395 6.37923 19.7535C6.45377 19.8345 6.61216 19.8244 6.73328 19.8649C7.46933 20.0574 8.0004 20.7665 8.0004 21.5667ZM5.99723 20.6449C5.60592 20.6246 5.35436 20.9184 5.3264 21.4148C5.29845 21.9719 5.77362 22.529 6.3047 22.5493C6.76123 22.5695 7.2364 22.0833 7.25504 21.5566C7.2923 20.9893 6.89167 20.6955 5.99723 20.6449ZM25.8426 33.6515C24.9761 33.6515 24.3239 32.9222 24.3332 31.97C24.3425 31.0583 25.032 30.3796 25.9357 30.3897C26.7463 30.3998 27.3612 31.1089 27.3612 32.0409C27.3612 32.9829 26.7184 33.6515 25.8426 33.6515ZM26.6345 32.051C26.6345 31.5546 26.3271 31.19 25.8985 31.2001C25.4419 31.2102 25.0692 31.5952 25.0786 32.0409C25.0879 32.5068 25.4233 32.8614 25.8612 32.8715C26.2991 32.8715 26.6345 32.517 26.6345 32.051ZM38.169 33.5502C37.4143 33.5401 36.8181 32.831 36.8274 31.9396C36.8274 31.1292 37.4516 30.4505 38.1783 30.4505C38.9796 30.4505 39.6877 31.1697 39.6877 31.9801C39.697 32.8107 38.9703 33.5502 38.169 33.5502ZM38.1877 31.2406C37.8243 31.2406 37.5634 31.5445 37.5727 31.9598C37.5727 32.4055 37.8336 32.7297 38.197 32.7398C38.5976 32.7499 38.9703 32.365 38.961 31.97C38.9423 31.6053 38.5603 31.2406 38.1877 31.2406ZM16.982 12.1156C15.7895 12.0549 14.6807 11.7712 13.8888 10.6874C13.1527 9.66425 13.2086 8.56011 14.1124 7.72947C15.3143 6.62533 16.6932 6.29104 18.1933 6.89883C19.1156 7.27363 19.7026 8.02323 19.861 9.09698C20.0846 10.6874 19.2275 11.8523 17.6901 12.0751C17.4572 12.0853 17.2243 12.0954 16.982 12.1156ZM16.805 7.2635C16.7864 7.30402 16.7678 7.34454 16.7584 7.38506C15.864 7.42558 15.0441 7.67882 14.4385 8.45881C14.0379 8.97543 13.982 9.50217 14.3733 10.0289C14.6435 10.3936 15.0068 10.7279 15.3981 10.9406C16.1062 11.3357 16.8889 11.3863 17.6715 11.2445C18.3517 11.1229 18.9107 10.7988 19.1063 10.0087C19.2927 9.22867 19.0318 8.33725 18.3796 7.92193C17.8951 7.62817 17.3361 7.47622 16.805 7.2635ZM23.1965 13.6756C24.3052 13.6858 25.1811 14.6582 25.1717 15.8839C25.1624 17.0488 24.2307 17.9808 23.0754 17.9706C21.9574 17.9605 21.0443 17.0184 21.035 15.8738C21.0256 14.6582 22.0039 13.6655 23.1965 13.6756ZM23.1406 14.4658C22.3766 14.4759 21.7337 15.1444 21.7524 15.9143C21.771 16.593 22.4046 17.1907 23.094 17.1805C23.8487 17.1704 24.4264 16.593 24.4264 15.8738C24.4264 15.0634 23.8767 14.4556 23.1406 14.4658ZM28.8799 9.95801C29.1688 10.272 29.4762 10.6063 29.8862 11.052C30.1284 10.738 30.3613 10.4139 30.6315 10.11C30.7061 10.0289 30.8645 10.0289 30.9763 9.9884C30.9483 10.1201 30.9576 10.2822 30.8831 10.3632C30.6036 10.657 30.3054 10.9203 30.0166 11.1938C30.147 11.366 30.2123 11.4167 30.2402 11.4876C30.2961 11.6294 30.3241 11.7712 30.3707 11.9131C30.2402 11.8624 30.1098 11.8219 29.9793 11.7611C29.2899 11.4876 29.1781 10.5557 28.5352 10.2619C28.3023 10.505 28.06 10.7583 27.7712 11.0723C28.1159 11.4268 28.4886 11.7814 28.8333 12.1663C28.9172 12.2575 28.9172 12.4499 28.9638 12.5917C28.8333 12.5411 28.6749 12.531 28.5818 12.4398C28.237 12.0751 27.911 11.6902 27.6314 11.3762C27.3426 11.4572 27.1376 11.518 26.9233 11.5788C27.0072 11.3762 27.091 11.1837 27.1842 10.9507C27.1749 10.9406 27.1376 10.8798 27.091 10.8393C26.5972 10.3024 26.1034 9.76555 25.5817 9.18815C25.4047 9.37049 25.2463 9.54269 25.0692 9.69464C25.0133 9.74529 24.9109 9.72503 24.827 9.74529C24.827 9.64399 24.7804 9.49204 24.827 9.4414C24.9761 9.27932 25.1624 9.14763 25.3953 8.9653C24.9854 8.53985 24.6686 8.22583 24.3798 7.88141C24.2959 7.79025 24.3146 7.60791 24.2773 7.46609C24.3984 7.51674 24.5382 7.52687 24.622 7.60791C24.9295 7.93206 25.2183 8.2866 25.5817 8.71205C25.7773 8.44868 25.9078 8.23596 26.0848 8.07388C26.2059 7.96245 26.383 7.93206 26.532 7.87129C26.4668 8.03336 26.4202 8.22583 26.3177 8.36764C26.1873 8.54998 26.001 8.68166 25.8798 8.80322C26.4575 9.4414 26.9979 10.0391 27.529 10.6266C27.7339 10.4037 27.9762 10.1403 28.265 9.82633C28.1346 9.70477 27.9669 9.60347 27.8457 9.45153C27.7712 9.36036 27.7619 9.19828 27.7246 9.07672C27.8457 9.10711 27.9948 9.09698 28.0787 9.16789C28.2184 9.28945 28.3209 9.47179 28.3768 9.55282C28.6563 9.48191 28.824 9.4414 28.9824 9.40088C28.9545 9.57308 28.9172 9.74529 28.8799 9.95801ZM23.3922 8.80322C23.476 8.87413 23.5599 8.92478 23.6158 8.99569C24.2121 9.63386 24.8084 10.272 25.386 10.9305C25.4699 11.0216 25.4606 11.204 25.4885 11.3458C25.3674 11.2951 25.2183 11.285 25.1345 11.1938C24.5382 10.5557 23.9419 9.91749 23.3642 9.26919C23.2897 9.18815 23.2711 9.04634 23.2431 8.92478C23.2431 8.90452 23.3363 8.85387 23.3922 8.80322Z" stroke="#2F4237" stroke-width="0.2"/>
</svg>
