<svg width="47" height="41" viewBox="0 0 47 41" fill="none" xmlns="http://www.w3.org/2000/svg">
<path d="M41.8599 32.5425C42.5647 32.5425 43.2159 32.5166 43.8672 32.5512C45.4284 32.6118 46.2759 33.6425 45.919 35.1236C45.464 37.0551 44.1526 38.3457 42.4308 39.2898C41.6636 39.7142 40.834 40 39.9329 40C38.6572 40 37.9078 39.2984 37.89 38.0425C37.881 37.6701 37.9435 37.2976 37.9435 36.9165C37.9435 36.6221 37.8989 36.3276 37.8632 35.9638C37.542 36.111 37.3101 36.2323 37.0692 36.3362C32.8495 38.1638 28.8171 37.7567 25.097 35.1756C23.2949 33.9197 21.5999 32.4906 20.0119 30.9748C14.0436 25.3016 8.10211 19.5938 2.23197 13.8253C1.09006 12.6993 0.626157 11.1576 1.33985 9.52055C2.08923 7.78827 3.32036 6.41111 4.76559 5.20718C7.26352 3.11978 10.2075 1.95049 13.4281 1.40482C17.059 0.789865 20.681 0.859156 24.2673 1.7253C25.5966 2.04577 26.8098 2.62608 27.7287 3.65679C27.925 3.87332 28.1302 4.09852 28.2372 4.35836C28.4603 4.92135 28.9063 5.29379 29.3167 5.69221C32.7514 9.00953 36.2128 12.3009 39.6117 15.6615C41.3335 17.3591 42.7698 19.2819 43.5103 21.5945C44.7325 25.3969 44.2775 29 41.9937 32.3433C41.9491 32.3953 41.9134 32.4559 41.8599 32.5425ZM28.5406 34.578C28.7636 34.6646 28.9866 34.7599 29.2543 34.8725C29.2721 34.8551 29.3524 34.7945 29.4238 34.7252C29.8698 34.3008 30.298 33.8591 30.753 33.4433C30.8422 33.3654 30.9939 33.348 31.1188 33.2961C31.0742 33.426 31.0563 33.5732 30.985 33.6858C30.9225 33.7984 30.8065 33.8764 30.7173 33.9717C30.7709 33.9284 30.8333 33.8764 30.8868 33.8331C31.1812 34.2575 31.4667 34.6732 31.7611 35.0977C31.8057 35.0543 31.8592 35.0024 31.9038 34.9591C32.1536 34.7252 32.4123 34.4914 32.7067 34.2142C32.3499 33.8851 32.0109 33.5819 31.6897 33.2701C31.6094 33.1921 31.6005 33.0536 31.5559 32.9496C31.6808 32.9843 31.8414 32.9756 31.9217 33.0536C32.2518 33.3654 32.5462 33.7032 32.8316 34.0063C33.3312 33.5386 33.7594 33.1315 34.2323 32.6811C34.0271 32.4992 33.813 32.326 33.6256 32.1181C33.5543 32.0402 33.5453 31.9016 33.5097 31.789C33.6346 31.8236 33.7951 31.8236 33.8754 31.8929C34.0806 32.0835 34.2501 32.3 34.5088 32.5945C34.714 32.352 34.8389 32.1701 34.9995 32.0229C35.053 31.9709 35.1779 31.9969 35.2671 31.9882C35.2582 32.0748 35.2761 32.1961 35.2314 32.2567C35.0976 32.4213 34.937 32.5685 34.8389 32.6638C35.2582 33.0882 35.6418 33.478 35.9897 33.8244C36.2395 33.5819 36.5072 33.3221 36.748 33.0882C36.5339 32.8803 36.3109 32.6638 36.0879 32.4386C36.0076 32.5166 35.9362 32.6118 35.8292 32.6638C35.74 32.7071 35.624 32.7071 35.5258 32.7331C35.5437 32.6378 35.5437 32.5252 35.5883 32.4473C35.6507 32.3433 35.7489 32.2567 35.9005 32.0921C35.6151 31.8496 35.3385 31.6331 35.0887 31.3819C35.0084 31.304 34.9995 31.174 34.9638 31.0614C35.0887 31.0874 35.2493 31.0788 35.3296 31.1567C35.5972 31.3992 35.8381 31.6677 36.07 31.9016C36.3288 31.6851 36.5161 31.5205 36.748 31.3213C36.4358 31.0355 36.1503 30.7843 35.8827 30.5158C35.8024 30.4292 35.7846 30.2819 35.74 30.1607C35.8648 30.1953 36.0254 30.1953 36.1057 30.2819C36.3823 30.5591 36.6231 30.8709 36.8283 31.1134C37.3368 30.6544 37.7294 30.3079 38.1754 29.9008C37.9078 29.667 37.6402 29.4504 37.4082 29.2166C37.3368 29.1473 37.3368 29.0087 37.3101 28.8961C37.4261 28.9221 37.5688 28.9221 37.6491 28.9827C37.9167 29.1992 38.1576 29.4504 38.3895 29.667C38.5769 29.5111 38.7285 29.3898 38.9605 29.1992C38.6393 28.9221 38.3539 28.6969 38.0951 28.4457C38.0149 28.3677 38.0149 28.2118 37.9792 28.0906C38.0951 28.1252 38.2379 28.1339 38.3182 28.2118C38.5769 28.463 38.8178 28.7402 39.0676 29.0087C39.0854 28.974 39.1122 28.9394 39.13 28.9048C39.2638 28.8961 39.3976 28.8874 39.5315 28.8701C39.5047 29.0087 39.4869 29.1559 39.4601 29.3205C39.5761 29.4244 39.701 29.5457 39.808 29.641C40.2273 29.2252 40.6288 28.8355 41.0124 28.4544C40.7715 28.4024 40.7715 28.4024 40.5931 28.0126C40.5752 27.978 40.5306 27.952 40.5039 27.9174C40.2808 27.6748 40.0489 27.4237 39.7277 27.0859C39.5136 27.3457 39.3709 27.5449 39.2014 27.7268C39.1568 27.7701 39.0497 27.7528 38.9694 27.7701C38.9694 27.6835 38.9248 27.5536 38.9694 27.5016C39.13 27.3284 39.3173 27.1898 39.4333 27.0859C39.4155 26.8607 39.3976 26.7221 39.3887 26.5748C39.5315 26.6008 39.6742 26.6268 39.8259 26.6441C40.2541 26.2544 40.2452 26.2457 40.37 25.726C40.379 25.6741 40.4949 25.5874 40.5128 25.5961C40.941 25.8473 41.0213 25.3796 41.2354 25.293C41.1105 25.0764 40.9945 24.8685 40.8786 24.6693C41.0481 24.6867 41.2086 24.704 41.4138 24.7213C41.5655 24.5654 41.7528 24.3748 41.9937 24.1237C41.851 24.0111 41.7261 23.9245 41.6101 23.8378C41.5655 23.8032 41.512 23.7685 41.4674 23.7339C41.4049 23.7685 41.3514 23.7945 41.3068 23.8205C39.0586 25.3276 36.641 26.5055 34.0449 27.3544C33.8754 27.4063 33.697 27.5796 33.6078 27.7355C32.2875 30.126 30.6638 32.3 28.7279 34.2662C28.6565 34.3268 28.6208 34.4654 28.5406 34.578C28.487 34.5953 28.3978 34.5866 28.3532 34.6213C27.9874 34.9504 27.6306 35.2882 27.2648 35.626C28.2372 36.1284 27.9518 36.189 28.8617 35.2276C28.7547 34.9937 28.6476 34.7858 28.5406 34.578ZM11.3851 2.58277C11.394 2.58277 11.3583 2.57411 11.3316 2.58277C8.29838 3.44891 5.63094 4.90403 3.61476 7.3119C2.97243 8.0741 2.41039 8.93158 2.00002 9.8237C1.41122 11.1142 1.72346 12.3268 2.84753 13.2103C3.56123 13.7733 4.38198 14.2583 5.22949 14.6135C8.62846 16.0426 12.1791 16.3457 15.8011 15.7221C20.0922 14.9859 23.7945 13.1583 26.6582 9.91031C27.1578 9.33866 27.5503 8.63709 27.8358 7.93552C28.5762 6.0993 27.9339 4.33238 26.221 3.27569C25.7571 2.98986 25.2576 2.756 24.7401 2.57411C22.8845 1.92451 20.9397 1.80325 18.9949 1.69065C18.6648 1.67333 18.5042 1.79459 18.3258 2.04577C17.514 3.17175 16.4791 4.04655 15.132 4.49694C13.8384 4.93001 12.5449 4.58356 11.8936 3.63946C11.6706 3.33632 11.5546 2.95521 11.3851 2.58277ZM29.0134 6.2119C28.9509 6.24654 28.8885 6.27253 28.835 6.30717C28.8439 7.9615 28.1034 9.31268 27.0686 10.5513C26.9793 10.6552 27.0061 10.8717 27.0418 11.0276C27.2827 12.2576 27.6306 13.4788 27.7644 14.7174C28.2551 19.2646 27.4343 23.5867 25.3111 27.6662C25.2397 27.7961 25.1862 27.9347 25.1148 28.0906C25.2219 28.0992 25.2665 28.1166 25.3111 28.1079C27.9518 28.0473 30.5389 27.6489 33.0636 26.8953C33.2242 26.8433 33.3848 26.6528 33.474 26.4882C35.4723 22.4953 36.4804 18.2772 36.4358 13.8339C36.4358 13.6174 36.3198 13.3575 36.1592 13.2016C34.5624 11.6513 32.9476 10.1182 31.3507 8.5678C30.5478 7.81426 29.7895 7.00875 29.0134 6.2119ZM14.7662 25.0158C15.4175 25.6567 16.0509 26.289 16.6932 26.904C16.7913 26.9992 16.9519 27.0426 17.0857 27.0859C19.2536 27.6922 21.4661 28.004 23.7142 28.1166C24.1335 28.1339 24.3476 28.0126 24.5349 27.6575C26.8277 23.3615 27.6395 18.8229 26.9793 14.0331C26.8545 13.1237 26.6225 12.2316 26.4262 11.2961C26.3013 11.3654 26.2656 11.3828 26.23 11.4174C24.071 13.4355 21.5463 14.856 18.7094 15.7394C18.4328 15.826 18.4061 15.9906 18.3526 16.2071C17.9868 17.6016 17.6745 19.0134 17.2196 20.3733C16.6486 22.0449 15.7743 23.5693 14.7662 25.0158ZM17.6656 16.0512C13.205 17.1253 8.91394 16.9001 4.78343 15.2197C7.93261 18.2859 11.0996 21.378 14.2845 24.4874C16.0241 21.9497 17.1482 19.1693 17.6656 16.0512ZM37.1584 14.215C37.1138 16.389 36.8819 18.4764 36.3912 20.5292C35.9095 22.5733 35.1868 24.5394 34.268 26.4882C35.9095 26.0898 39.7991 24.141 40.8875 23.2142C40.8786 23.0583 40.8696 22.9371 40.8607 22.8071C41.0213 22.8418 41.173 22.8851 41.3692 22.9284C41.7528 22.6426 42.1543 22.3394 42.5647 22.0276C42.5468 21.9756 42.5379 21.9323 42.5201 21.8804C42.4219 21.8977 42.2881 21.8804 42.2167 21.941C42.0294 22.0882 41.8867 22.2701 41.6993 22.4174C41.6279 22.478 41.4941 22.4607 41.3871 22.478C41.4049 22.3827 41.396 22.2441 41.4584 22.1835C41.6904 21.9843 41.9402 21.8111 42.19 21.6292C42.1454 21.5599 42.1097 21.4906 42.0651 21.4126C41.8599 21.378 41.6458 21.3434 41.4228 21.3087C41.4674 21.1182 41.512 20.9276 41.5476 20.815C41.8153 20.6591 42.0205 20.5292 42.2257 20.4079C41.6636 18.9441 39.0051 15.6875 37.1584 14.215ZM22.269 32.2221C23.5536 33.1575 24.8829 34.1276 26.2032 35.0977C26.4619 35.2882 26.6403 35.2622 26.8812 35.0457C28.5316 33.5732 30.0125 31.9622 31.2704 30.1607C31.8057 29.3898 32.2964 28.5929 32.8495 27.7441C32.7067 27.7528 32.6621 27.7441 32.6265 27.7528C30.1018 28.4197 27.5414 28.7748 24.9275 28.8181C24.7937 28.8181 24.6242 28.9221 24.5439 29.0347C23.8034 30.0481 23.0808 31.0701 22.269 32.2221ZM40.8875 34.8291C40.602 35.089 40.3522 35.3228 40.0489 35.6C40.263 35.7906 40.486 35.9638 40.6734 36.1717C40.7358 36.241 40.7269 36.3795 40.7447 36.4921C40.6466 36.4661 40.5039 36.4661 40.4414 36.4055C40.2362 36.1976 40.0667 35.9725 39.8615 35.7299C39.6474 35.9551 39.5225 36.0764 39.4244 36.1717C39.7188 36.4835 39.9864 36.7693 40.2898 37.0811C39.9864 37.3843 39.692 37.6961 39.4422 37.9473C39.5225 38.1724 39.585 38.3457 39.6474 38.5189C39.4601 38.4583 39.2727 38.3976 39.023 38.3197C38.9516 38.389 38.8267 38.5189 38.6215 38.7181C38.8802 38.9087 39.0854 39.1512 39.3441 39.2118C39.7188 39.2984 40.147 39.3331 40.5217 39.2465C42.5557 38.7787 44.0367 37.6095 44.9466 35.7992C45.1697 35.3662 45.2321 34.8551 45.3659 34.3614C44.7057 34.5347 44.6165 33.9284 44.2151 33.8071C44.1526 33.8851 44.0723 33.9717 44.0634 33.9803C44.1348 34.2402 44.1794 34.4134 44.2329 34.5866C44.0545 34.5173 43.8761 34.4567 43.7244 34.3961C43.5549 34.4307 43.3765 34.474 43.1981 34.5173C43.2605 34.3614 43.323 34.1969 43.3854 34.0236C43.1802 33.7811 42.9661 33.5213 42.7074 33.2181C42.3059 33.2528 41.851 33.2874 41.3692 33.3307C41.6458 33.6166 41.8956 33.8591 42.1543 34.1362C42.2078 34.1016 42.2792 34.0323 42.3506 34.015C42.4219 33.9977 42.5022 34.0323 42.5825 34.0496C42.4933 34.3008 42.5111 34.552 42.6003 34.8032C42.5201 34.8205 42.4398 34.8725 42.3684 34.8551C42.2792 34.8291 42.1989 34.7599 42.1186 34.6992C41.9759 34.8378 41.842 34.9591 41.7439 35.0457C41.7796 35.2276 41.8153 35.3748 41.842 35.5134C41.6904 35.4961 41.5298 35.4701 41.4406 35.4614C41.2086 35.5567 41.0302 35.6347 40.8429 35.7039C40.9232 35.4961 41.0035 35.2882 41.1016 35.037C41.0837 34.9937 40.9856 34.9071 40.8875 34.8291ZM41.4138 28.7055C40.9321 29.1126 40.5128 29.4764 40.0846 29.8402C40.4682 30.1866 40.7893 30.4811 41.1194 30.7843C41.1194 30.7843 41.1551 30.7496 41.1908 30.7323C41.3425 30.6717 41.503 30.6024 41.6547 30.5418C41.5833 30.6803 41.5476 30.8536 41.4406 30.9575C41.1551 31.226 40.8429 31.4599 40.5306 31.711C40.5752 31.737 40.6198 31.763 40.6734 31.789C40.7983 31.9449 40.9232 32.1008 41.0927 32.3C43.1089 29.589 43.8761 26.6788 43.314 23.5C43.0553 23.7166 42.7877 23.9331 42.4754 24.2016C42.6896 24.3835 42.8947 24.5481 43.0821 24.7386C43.1445 24.7993 43.1267 24.9292 43.1445 25.0244C43.0464 25.0071 42.9037 25.0245 42.8501 24.9638C42.6539 24.7646 42.4933 24.5481 42.3059 24.3229C42.0026 24.6087 41.7974 24.7993 41.619 24.9638C41.8064 25.1717 41.9759 25.3709 42.0918 25.5095C42.3327 25.4402 42.4933 25.3969 42.6628 25.3536C42.6093 25.5268 42.5647 25.7 42.5022 25.9079C42.6271 26.0118 42.8055 26.1158 42.9304 26.2717C43.0375 26.4103 43.091 26.6008 43.1624 26.7741C42.9929 26.7394 42.8323 26.7048 42.7252 26.6874C42.5468 26.8174 42.3862 26.9386 42.1543 27.1032C42.3952 27.3111 42.6003 27.4583 42.7609 27.6402C42.8591 27.7528 42.8947 27.9174 42.9661 28.0559C42.8234 28.004 42.645 27.978 42.5468 27.8827C42.3595 27.7095 42.2078 27.4843 42.0829 27.337C41.735 27.6229 41.4763 27.8307 41.1908 28.0733C41.5655 28.4284 41.9134 28.7229 42.2167 29.052C42.3506 29.1992 42.4219 29.4071 42.5201 29.589C42.3416 29.4937 42.1454 29.4244 41.9937 29.2945C41.7618 29.104 41.5744 28.8788 41.4138 28.7055ZM23.848 28.8961C21.814 28.6276 19.8959 28.3764 17.9243 28.1079C19.1911 29.2859 20.449 30.4465 21.7605 31.6677C22.4831 30.7063 23.1611 29.8055 23.848 28.8961ZM36.0433 34.474C35.5883 34.9071 35.169 35.3142 34.7675 35.6953C34.8032 35.8339 34.8478 35.9725 34.8835 36.1024C34.7229 36.0764 34.5534 36.0417 34.3572 36.0071C34.3036 36.0591 34.2323 36.1543 34.1252 36.215C34.0271 36.2669 33.9022 36.2669 33.7951 36.2929C33.8219 36.189 33.8219 36.0764 33.8754 35.9898C33.9379 35.8858 34.0449 35.7992 34.0895 35.7559C33.6702 35.3488 33.2777 34.9591 32.8406 34.526C32.6711 34.7079 32.4837 34.9071 32.2964 35.1063C32.2607 35.1496 32.225 35.1929 32.1447 35.3055C32.3945 35.5307 32.6621 35.7386 32.8941 35.9725C32.9565 36.0331 32.9387 36.163 32.9565 36.2583C32.8584 36.241 32.7246 36.2583 32.6621 36.1976C32.4213 35.9725 32.1982 35.7213 32.0198 35.5307C31.5559 35.8599 31.1366 36.1543 30.7084 36.4488C30.7709 36.5268 30.8333 36.6047 30.8957 36.674C33.0904 36.9512 35.1512 36.5095 37.1049 35.548C36.7391 35.1756 36.3823 34.8118 36.0433 34.474ZM12.5449 3.3623C13.0534 3.89064 13.5976 4.02923 14.1953 3.99458C15.5959 3.89931 16.5059 2.98986 17.4069 2.08041C17.282 2.07175 17.1571 2.08041 17.0947 2.1497C16.7735 2.53081 16.4613 2.60876 16.1401 2.08907C15.9349 2.34026 15.7654 2.54813 15.5691 2.79065C15.4443 2.68671 15.3283 2.59144 15.2123 2.4875C15.0874 2.3749 14.9625 2.2623 14.8198 2.12372C14.5967 2.36624 14.4362 2.6001 14.222 2.77332C13.8563 3.06781 13.8295 2.47018 13.4637 2.50482C13.3478 2.69537 13.1961 2.93789 13.0266 3.22372C12.9463 3.2497 12.7768 3.29301 12.5449 3.3623ZM39.9954 31.841C39.4601 31.3213 38.907 30.7929 38.3985 30.2992C38.0595 30.6197 37.6758 30.9748 37.319 31.304C37.542 31.5205 37.7651 31.737 38.0059 31.9709C38.1308 31.8496 38.2646 31.7197 38.4163 31.6071C38.4698 31.5638 38.568 31.5811 38.6483 31.5638C38.6483 31.6504 38.6929 31.7717 38.6483 31.8323C38.5323 31.9882 38.3806 32.1268 38.2825 32.2221C38.5144 32.4646 38.7196 32.6898 38.907 32.889C39.2906 32.5166 39.6653 32.1528 39.9954 31.841ZM34.3839 35.3315C34.8121 34.9158 35.2404 34.5087 35.6061 34.1622C35.2493 33.8071 34.8657 33.4173 34.4821 33.0449C34.0806 33.426 33.6613 33.8331 33.2509 34.2315C33.6435 34.6126 34.0449 34.9937 34.3839 35.3315ZM30.4943 34.2315C30.2267 34.4827 29.8609 34.8378 29.504 35.1756C29.8698 35.5394 30.2267 35.8945 30.5121 36.1803C30.8868 35.8685 31.2526 35.5567 31.7789 35.115C31.3329 34.8032 30.9136 34.5173 30.4943 34.2315ZM37.5956 35.3142C37.8186 35.1756 38.1665 34.9591 38.5055 34.7425C38.0149 34.2748 37.551 33.8417 37.0781 33.4C36.8551 33.6339 36.5875 33.911 36.2128 34.2921C36.641 34.6126 37.0781 34.9417 37.5956 35.3142ZM38.8802 34.4654C39.0676 34.3181 39.2638 34.1622 39.5404 33.9543C39.2192 33.7465 38.9427 33.5646 38.6215 33.3654C38.6037 33.0795 38.4074 32.8457 38.0238 32.6292C37.8007 32.7937 37.5956 32.9323 37.4261 33.0536C37.9167 33.5299 38.3895 33.9803 38.8802 34.4654ZM39.7813 33.7291C40.1381 33.348 40.4949 32.9669 40.8696 32.5685C40.6823 32.3693 40.5217 32.2047 40.4325 32.1008C40.0132 32.5079 39.6296 32.8717 39.2281 33.2528C39.3709 33.3827 39.5493 33.5386 39.7813 33.7291ZM40.9588 27.8048C41.2176 27.5449 41.4406 27.3111 41.6458 27.1118C41.3425 26.7914 41.0659 26.5055 40.8518 26.2717C40.5842 26.4969 40.3254 26.7134 40.0846 26.9126C40.379 27.2071 40.6555 27.4929 40.9588 27.8048ZM38.7107 35.9291C38.675 35.9551 38.6393 35.9811 38.6037 36.0071C38.6215 36.2929 38.6839 36.5788 38.6483 36.8559C38.5858 37.2803 38.7999 37.5228 39.0765 37.6961C39.3263 37.4795 39.5493 37.2803 39.7634 37.0898C39.7366 37.0465 39.7188 37.0205 39.7099 36.9945C39.4958 36.5268 38.7018 36.6307 38.7107 35.9291ZM39.8526 30.1433C39.701 30.3166 39.5671 30.4725 39.4958 30.5504C39.7991 30.8622 40.1024 31.174 40.3611 31.4425C40.4949 31.3299 40.6466 31.2087 40.7626 31.1047C40.4682 30.7843 40.1738 30.4811 39.8526 30.1433ZM30.2623 36.6221C29.8698 36.2323 29.513 35.8685 29.1918 35.5567C28.9866 35.7473 28.7636 35.9465 28.4959 36.189C29.0937 36.3362 29.6735 36.4748 30.2623 36.6221ZM36.4626 32.0835C36.7213 32.3347 36.9443 32.5512 37.1584 32.7591C37.3279 32.6118 37.5153 32.4473 37.6848 32.3C37.4261 32.0575 37.203 31.841 36.9443 31.5984C36.7837 31.763 36.6142 31.9362 36.4626 32.0835ZM40.9856 33.5646C40.8429 33.7032 40.7091 33.8418 40.6198 33.9284C40.9053 34.2575 41.173 34.5606 41.4049 34.8291C41.5923 34.6819 41.7439 34.552 41.8688 34.4567C41.5655 34.1449 41.2889 33.8677 40.9856 33.5646ZM41.7974 23.4741C41.958 23.6213 42.0918 23.7426 42.2257 23.8638C42.5647 23.5693 42.8769 23.3008 43.2159 23.0063C43.1802 22.8851 43.1267 22.7292 43.0642 22.5213C42.6182 22.8591 42.2167 23.1622 41.7974 23.4741ZM39.7723 35.2882C40.0489 35.011 40.2898 34.7685 40.5485 34.5087C40.4682 34.4394 40.379 34.3528 40.2808 34.2662C39.9954 34.5 39.7277 34.7165 39.4512 34.9504C39.5671 35.0717 39.6653 35.1756 39.7723 35.2882ZM39.5671 29.9528C39.4244 29.7709 39.3084 29.615 39.2103 29.4851C38.9962 29.6496 38.8445 29.7709 38.7821 29.8142C38.8981 30.0221 38.9873 30.204 39.0854 30.3772C39.3084 30.1866 39.4512 30.0567 39.5671 29.9528ZM39.13 35.9638C39.2995 35.7906 39.4155 35.6693 39.5315 35.548C39.3887 35.4008 39.2817 35.2795 39.1657 35.1496C38.9873 35.2709 38.8356 35.3748 38.675 35.4788C38.8445 35.6606 38.9694 35.7906 39.13 35.9638ZM41.5387 25.4229C41.3514 25.6221 41.2086 25.778 41.0302 25.9772C41.164 26.0898 41.28 26.1937 41.3871 26.289C41.5655 26.1244 41.7261 25.9685 41.8867 25.8213C41.7707 25.6914 41.6725 25.5701 41.5387 25.4229ZM44.2151 33.2355C43.7958 33.2355 43.5014 33.2355 43.1713 33.2355C43.3676 33.4347 43.5281 33.6079 43.7244 33.8158C43.885 33.6339 44.0099 33.478 44.2151 33.2355ZM41.958 26.8433C42.1275 26.6788 42.2703 26.5229 42.4487 26.341C42.3416 26.2544 42.2524 26.1764 42.2078 26.1331C42.0205 26.2977 41.8688 26.4189 41.6993 26.5662C41.7796 26.6528 41.8599 26.7307 41.958 26.8433ZM12.7411 2.58277C12.9552 2.44419 13.1337 2.32293 13.3032 2.21033C13.2853 2.18435 13.2675 2.15837 13.2496 2.13238C13.0177 2.18435 12.7768 2.22766 12.4735 2.28829C12.6162 2.44419 12.7054 2.54813 12.7411 2.58277ZM15.8725 1.92451C15.8546 1.8812 15.8279 1.83789 15.81 1.79459C15.5959 1.82057 15.3818 1.83789 15.0785 1.87254C15.2658 2.04577 15.3729 2.14104 15.4799 2.23632C15.6316 2.11506 15.7476 2.01978 15.8725 1.92451Z" fill="#2F4237"/>
<path d="M18.5845 7.60638C19.3339 7.72764 20.0208 7.77961 20.6631 7.97016C21.8497 8.31662 22.0638 9.22606 21.1895 10.0662C20.1011 11.1142 18.7897 11.5906 17.2553 11.3308C16.497 11.2009 15.9082 10.8198 15.6673 10.0489C15.3907 9.14811 15.7208 8.37725 16.6397 8.04811C17.282 7.81426 17.9689 7.7363 18.5845 7.60638ZM19.4677 8.79299C19.3874 9.03551 19.325 9.2174 19.2536 9.41661C19.1733 9.41661 19.0752 9.40795 18.977 9.41661C18.8432 9.43394 18.7183 9.46858 18.5845 9.49457C18.6113 9.35598 18.6291 9.2174 18.6559 9.0615C17.9511 8.30796 17.8619 8.10874 17.3177 8.87095C17.4783 8.95756 17.6745 9.00953 17.7905 9.13945C17.9065 9.26937 17.9422 9.46858 18.0136 9.63315C17.96 9.61583 17.9154 9.5985 17.8619 9.58118C17.6567 9.74575 17.2553 9.95362 17.282 10.0576C17.4248 10.5513 17.0501 10.3347 16.7557 10.378C16.943 10.482 17.0322 10.5426 17.1304 10.5772C18.2812 11.0016 20.2617 10.3434 20.8951 9.33C20.9665 9.20874 20.9665 9.04417 21.0111 8.80166C20.1368 9.36465 20.1368 9.36465 19.4677 8.79299ZM16.6575 8.8363C16.2293 9.1741 16.265 9.28669 16.9698 9.76307C17.1125 9.65047 17.2642 9.53787 17.4426 9.39063C17.282 9.25205 17.1928 9.16543 17.1214 9.1048C16.943 9.13945 16.8003 9.15677 16.6575 9.18276C16.6575 9.07882 16.6575 8.96622 16.6575 8.8363ZM19.7978 8.4552C19.7889 8.48118 19.771 8.50717 19.7621 8.53315C19.9227 8.67173 20.0743 8.81032 20.2528 8.96622C20.3331 8.87095 20.4223 8.77567 20.565 8.61977C20.2617 8.55047 20.0297 8.49851 19.7978 8.4552ZM19.0306 8.9489C19.1109 8.73236 19.1555 8.6111 19.1911 8.48984C18.9949 8.44654 18.7897 8.39457 18.5934 8.35126C18.5845 8.38591 18.5845 8.42055 18.5756 8.44654C18.7005 8.58512 18.8254 8.7237 19.0306 8.9489Z" fill="#2F4237"/>
<path d="M5.96995 12.552C5.1492 12.5607 4.48011 11.9717 4.35521 11.1576C4.25708 10.482 4.81019 9.5985 5.54173 9.5552C6.2019 9.52055 6.93344 9.46858 7.54008 9.89299C8.02182 10.2308 8.16456 10.7678 7.92369 11.3135C7.61145 11.9977 6.73717 12.552 5.96995 12.552ZM5.40791 11.6686C6.00563 12.2142 7.19215 11.5213 7.30813 10.8977C7.33489 10.7505 7.18323 10.5166 7.04049 10.4213C6.92452 10.352 6.71041 10.4387 6.56767 10.4473C6.6212 10.7072 6.64796 10.8544 6.67472 11.0103C6.52306 10.9757 6.36248 10.941 6.17514 10.9064C5.93426 11.019 5.88074 11.2182 6.04132 11.4694C5.83613 11.5387 5.63986 11.5993 5.40791 11.6686ZM6.04132 10.6032C5.71123 10.404 5.4882 10.1788 5.22949 10.5513C5.35439 10.6898 5.46144 10.8198 5.55065 10.9064C5.738 10.7938 5.87182 10.7158 6.04132 10.6032Z" fill="#2F4237"/>
<path d="M10.2343 13.4095C9.54735 13.4182 9.01207 12.9245 9.02992 12.3009C9.04776 11.6859 9.53842 11.3308 10.2967 11.3741C10.377 11.3828 10.4662 11.3568 10.5554 11.3394C11.2156 11.2355 11.6884 11.7205 11.5368 12.3528C11.3851 12.9505 10.832 13.4009 10.2343 13.4095ZM10.8142 12.041C10.5822 12.041 10.3681 12.0064 10.1718 12.0497C10.0112 12.0843 9.86851 12.1969 9.72577 12.2835C9.85959 12.4308 9.96664 12.656 10.1272 12.6993C10.4751 12.7946 10.7785 12.4827 10.8142 12.041Z" fill="#2F4237"/>
<path d="M24.9096 7.49378C24.642 7.19064 24.4368 6.96544 24.2405 6.74024C24.3744 6.63631 24.5885 6.41111 24.6152 6.43709C24.8561 6.61032 25.0791 6.82686 25.2754 7.05205C25.2932 7.07804 25.0881 7.27725 24.9096 7.49378Z" fill="#2F4237"/>
<path d="M20.788 5.19851C20.4134 5.09458 20.0654 5.10324 20.0833 4.72214C20.0922 4.60954 20.3598 4.43631 20.5204 4.42765C20.788 4.41033 21.1538 4.41899 21.1538 4.79143C21.1538 4.92135 20.9129 5.05993 20.788 5.19851Z" fill="#2F4237"/>
<path d="M9.39569 6.42843C9.27079 6.50639 9.08344 6.67961 9.021 6.64497C8.80689 6.54103 8.64631 6.35048 8.45896 6.19458C8.57494 6.09064 8.7266 5.8741 8.79797 5.89143C9.021 5.96072 9.20834 6.11662 9.41353 6.23788C9.41353 6.30717 9.40461 6.3678 9.39569 6.42843Z" fill="#2F4237"/>
<path d="M11.5457 9.28669C11.3494 9.05284 11.2334 8.90559 11.1175 8.76701C11.2602 8.66307 11.394 8.49851 11.5635 8.46386C11.8044 8.41189 12.0364 8.52449 11.9918 8.80166C11.965 8.94024 11.7598 9.0615 11.5457 9.28669Z" fill="#2F4237"/>
<path d="M15.703 13.6607C15.5156 13.7473 15.3283 13.8859 15.132 13.9032C15.0339 13.9119 14.9179 13.6953 14.8108 13.5827C14.9803 13.4615 15.1409 13.2969 15.3283 13.2363C15.4175 13.2103 15.5781 13.3922 15.703 13.4788C15.7119 13.5481 15.7119 13.6087 15.703 13.6607Z" fill="#2F4237"/>
<path d="M28.5406 34.578C28.7636 34.6646 28.9866 34.7599 29.2543 34.8725C29.2721 34.8551 29.3524 34.7945 29.4238 34.7252C29.8698 34.3008 30.298 33.8591 30.753 33.4433C30.8422 33.3654 30.9939 33.348 31.1188 33.2961C31.0742 33.426 31.0563 33.5732 30.985 33.6858C30.9225 33.7984 30.8065 33.8764 30.7173 33.9717C30.7709 33.9284 30.8333 33.8764 30.8868 33.8331C31.1812 34.2575 31.4667 34.6732 31.7611 35.0977C31.8057 35.0543 31.8592 35.0024 31.9038 34.9591C32.1536 34.7252 32.4123 34.4914 32.7067 34.2142C32.3499 33.8851 32.0109 33.5819 31.6897 33.2701C31.6094 33.1921 31.6005 33.0536 31.5559 32.9496C31.6808 32.9843 31.8414 32.9756 31.9217 33.0536C32.2518 33.3654 32.5462 33.7032 32.8316 34.0063C33.3312 33.5386 33.7594 33.1315 34.2323 32.6811C34.0271 32.4992 33.813 32.326 33.6256 32.1181C33.5543 32.0402 33.5453 31.9016 33.5097 31.789C33.6346 31.8236 33.7951 31.8236 33.8754 31.8929C34.0806 32.0835 34.2501 32.3 34.5088 32.5945C34.714 32.352 34.8389 32.1701 34.9995 32.0229C35.053 31.9709 35.1779 31.9969 35.2671 31.9882C35.2582 32.0748 35.2761 32.1961 35.2314 32.2567C35.0976 32.4213 34.937 32.5685 34.8389 32.6638C35.2582 33.0882 35.6418 33.478 35.9897 33.8244C36.2395 33.5819 36.5072 33.3221 36.748 33.0882C36.5339 32.8803 36.3109 32.6638 36.0879 32.4386C36.0076 32.5166 35.9362 32.6118 35.8292 32.6638C35.74 32.7071 35.624 32.7071 35.5258 32.7331C35.5437 32.6378 35.5437 32.5252 35.5883 32.4473C35.6507 32.3433 35.7489 32.2567 35.9005 32.0921C35.6151 31.8496 35.3385 31.6331 35.0887 31.3819C35.0084 31.304 34.9995 31.174 34.9638 31.0614C35.0887 31.0874 35.2493 31.0788 35.3296 31.1567C35.5972 31.3992 35.8381 31.6677 36.07 31.9016C36.3288 31.6851 36.5161 31.5205 36.748 31.3213C36.4358 31.0355 36.1503 30.7843 35.8827 30.5158C35.8024 30.4292 35.7846 30.2819 35.74 30.1607C35.8648 30.1953 36.0254 30.1953 36.1057 30.2819C36.3823 30.5591 36.6232 30.8709 36.8283 31.1134C37.3368 30.6544 37.7294 30.3079 38.1754 29.9008C37.9078 29.667 37.6402 29.4504 37.4082 29.2166C37.3368 29.1473 37.3368 29.0087 37.3101 28.8961C37.4261 28.9221 37.5688 28.9221 37.6491 28.9827C37.9167 29.1992 38.1576 29.4504 38.3895 29.667C38.5769 29.5111 38.7286 29.3898 38.9605 29.1992C38.6393 28.9221 38.3539 28.6969 38.0951 28.4457C38.0149 28.3677 38.0149 28.2118 37.9792 28.0906C38.0951 28.1252 38.2379 28.1339 38.3182 28.2118C38.5769 28.463 38.8178 28.7402 39.0676 29.0087C39.0854 28.974 39.1122 28.9394 39.13 28.9048C39.2638 28.8961 39.3976 28.8874 39.5315 28.8701C39.5047 29.0087 39.4869 29.1559 39.4601 29.3205C39.5761 29.4244 39.701 29.5457 39.808 29.641C40.2273 29.2252 40.6288 28.8355 41.0124 28.4544C40.7715 28.4024 40.7715 28.4024 40.5931 28.0126C40.5752 27.978 40.5306 27.952 40.5039 27.9174C40.2808 27.6748 40.0489 27.4237 39.7277 27.0859C39.5136 27.3457 39.3709 27.5449 39.2014 27.7268C39.1568 27.7701 39.0497 27.7528 38.9694 27.7701C38.9694 27.6835 38.9248 27.5536 38.9694 27.5016C39.13 27.3284 39.3173 27.1898 39.4333 27.0859C39.4155 26.8607 39.3976 26.7221 39.3887 26.5748C39.5315 26.6008 39.6742 26.6268 39.8259 26.6441C40.2541 26.2544 40.2452 26.2457 40.37 25.726C40.379 25.6741 40.4949 25.5874 40.5128 25.5961C40.941 25.8473 41.0213 25.3796 41.2354 25.293C41.1105 25.0764 40.9945 24.8685 40.8786 24.6693C41.0481 24.6867 41.2086 24.704 41.4138 24.7213C41.5655 24.5654 41.7528 24.3748 41.9937 24.1237C41.851 24.0111 41.7261 23.9245 41.6101 23.8378C41.5655 23.8032 41.512 23.7685 41.4674 23.7339C41.4049 23.7685 41.3514 23.7945 41.3068 23.8205C39.0586 25.3276 36.641 26.5055 34.0449 27.3544C33.8754 27.4063 33.697 27.5796 33.6078 27.7355C32.2875 30.126 30.6638 32.3 28.7279 34.2662C28.6565 34.3268 28.6208 34.4654 28.5406 34.578ZM28.5406 34.578C28.487 34.5953 28.3978 34.5866 28.3532 34.6213C27.9874 34.9504 27.6306 35.2882 27.2648 35.626C28.2372 36.1284 27.9518 36.189 28.8617 35.2276C28.7547 34.9937 28.6476 34.7858 28.5406 34.578ZM41.8599 32.5425C42.5647 32.5425 43.2159 32.5166 43.8672 32.5512C45.4284 32.6118 46.2759 33.6425 45.919 35.1236C45.464 37.0551 44.1526 38.3457 42.4308 39.2898C41.6636 39.7142 40.834 40 39.9329 40C38.6572 40 37.9078 39.2984 37.89 38.0425C37.881 37.6701 37.9435 37.2976 37.9435 36.9165C37.9435 36.6221 37.8989 36.3276 37.8632 35.9638C37.542 36.111 37.3101 36.2323 37.0692 36.3362C32.8495 38.1638 28.8171 37.7567 25.097 35.1756C23.2949 33.9197 21.5999 32.4906 20.0119 30.9748C14.0436 25.3016 8.10211 19.5938 2.23197 13.8253C1.09006 12.6993 0.626157 11.1576 1.33985 9.52055C2.08923 7.78827 3.32036 6.41111 4.76559 5.20718C7.26352 3.11978 10.2075 1.95049 13.4281 1.40482C17.059 0.789865 20.681 0.859156 24.2673 1.7253C25.5966 2.04577 26.8098 2.62608 27.7287 3.65679C27.925 3.87332 28.1302 4.09852 28.2372 4.35836C28.4603 4.92135 28.9063 5.29379 29.3167 5.69221C32.7514 9.00953 36.2128 12.3009 39.6117 15.6615C41.3335 17.3591 42.7698 19.2819 43.5103 21.5945C44.7325 25.3969 44.2775 29 41.9937 32.3433C41.9491 32.3953 41.9134 32.4559 41.8599 32.5425ZM11.3851 2.58277C11.394 2.58277 11.3583 2.57411 11.3316 2.58277C8.29838 3.44891 5.63094 4.90403 3.61476 7.3119C2.97243 8.0741 2.41039 8.93158 2.00002 9.8237C1.41122 11.1142 1.72346 12.3268 2.84753 13.2103C3.56123 13.7733 4.38198 14.2583 5.22949 14.6135C8.62846 16.0426 12.1791 16.3457 15.8011 15.7221C20.0922 14.9859 23.7945 13.1583 26.6582 9.91031C27.1578 9.33866 27.5503 8.63709 27.8358 7.93552C28.5762 6.0993 27.9339 4.33238 26.221 3.27569C25.7571 2.98986 25.2576 2.756 24.7401 2.57411C22.8845 1.92451 20.9397 1.80325 18.9949 1.69065C18.6648 1.67333 18.5042 1.79459 18.3258 2.04577C17.514 3.17175 16.4791 4.04655 15.132 4.49694C13.8384 4.93001 12.5449 4.58356 11.8936 3.63946C11.6706 3.33632 11.5546 2.95521 11.3851 2.58277ZM29.0134 6.2119C28.9509 6.24654 28.8885 6.27253 28.835 6.30717C28.8439 7.9615 28.1034 9.31268 27.0686 10.5513C26.9793 10.6552 27.0061 10.8717 27.0418 11.0276C27.2827 12.2576 27.6306 13.4788 27.7644 14.7174C28.2551 19.2646 27.4343 23.5867 25.3111 27.6662C25.2397 27.7961 25.1862 27.9347 25.1148 28.0906C25.2219 28.0992 25.2665 28.1166 25.3111 28.1079C27.9518 28.0473 30.5389 27.6489 33.0636 26.8953C33.2242 26.8433 33.3848 26.6528 33.474 26.4882C35.4723 22.4953 36.4804 18.2772 36.4358 13.8339C36.4358 13.6174 36.3198 13.3575 36.1592 13.2016C34.5624 11.6513 32.9476 10.1182 31.3507 8.5678C30.5478 7.81426 29.7895 7.00875 29.0134 6.2119ZM14.7662 25.0158C15.4175 25.6567 16.0509 26.289 16.6932 26.904C16.7913 26.9992 16.9519 27.0426 17.0857 27.0859C19.2536 27.6922 21.4661 28.004 23.7142 28.1166C24.1335 28.1339 24.3476 28.0126 24.5349 27.6575C26.8277 23.3615 27.6395 18.8229 26.9793 14.0331C26.8545 13.1237 26.6225 12.2316 26.4262 11.2961C26.3013 11.3654 26.2657 11.3828 26.23 11.4174C24.071 13.4355 21.5463 14.856 18.7094 15.7394C18.4328 15.826 18.4061 15.9906 18.3526 16.2071C17.9868 17.6016 17.6745 19.0134 17.2196 20.3733C16.6486 22.0449 15.7743 23.5693 14.7662 25.0158ZM17.6656 16.0512C13.205 17.1253 8.91394 16.9001 4.78343 15.2197C7.93261 18.2859 11.0996 21.378 14.2845 24.4874C16.0241 21.9497 17.1482 19.1693 17.6656 16.0512ZM37.1584 14.215C37.1138 16.389 36.8819 18.4764 36.3912 20.5292C35.9095 22.5733 35.1868 24.5394 34.268 26.4882C35.9095 26.0898 39.7991 24.141 40.8875 23.2142C40.8786 23.0583 40.8696 22.9371 40.8607 22.8071C41.0213 22.8418 41.173 22.8851 41.3692 22.9284C41.7528 22.6426 42.1543 22.3394 42.5647 22.0276C42.5468 21.9756 42.5379 21.9323 42.5201 21.8804C42.4219 21.8977 42.2881 21.8804 42.2167 21.941C42.0294 22.0882 41.8867 22.2701 41.6993 22.4174C41.6279 22.478 41.4941 22.4607 41.3871 22.478C41.4049 22.3827 41.396 22.2441 41.4584 22.1835C41.6904 21.9843 41.9402 21.8111 42.19 21.6292C42.1454 21.5599 42.1097 21.4906 42.0651 21.4126C41.8599 21.378 41.6458 21.3434 41.4228 21.3087C41.4674 21.1182 41.512 20.9276 41.5476 20.815C41.8153 20.6591 42.0205 20.5292 42.2257 20.4079C41.6636 18.9441 39.0051 15.6875 37.1584 14.215ZM22.269 32.2221C23.5536 33.1575 24.8829 34.1276 26.2032 35.0977C26.4619 35.2882 26.6403 35.2622 26.8812 35.0457C28.5316 33.5732 30.0125 31.9622 31.2704 30.1607C31.8057 29.3898 32.2964 28.5929 32.8495 27.7441C32.7067 27.7528 32.6621 27.7441 32.6265 27.7528C30.1018 28.4197 27.5414 28.7748 24.9275 28.8181C24.7937 28.8181 24.6242 28.9221 24.5439 29.0347C23.8034 30.0481 23.0808 31.0701 22.269 32.2221ZM40.8875 34.8291C40.602 35.089 40.3522 35.3228 40.0489 35.6C40.263 35.7906 40.486 35.9638 40.6734 36.1717C40.7358 36.241 40.7269 36.3795 40.7447 36.4921C40.6466 36.4661 40.5039 36.4661 40.4414 36.4055C40.2362 36.1976 40.0667 35.9725 39.8615 35.7299C39.6474 35.9551 39.5225 36.0764 39.4244 36.1717C39.7188 36.4835 39.9864 36.7693 40.2898 37.0811C39.9864 37.3843 39.692 37.6961 39.4422 37.9472C39.5225 38.1724 39.585 38.3457 39.6474 38.5189C39.4601 38.4583 39.2727 38.3976 39.023 38.3197C38.9516 38.389 38.8267 38.5189 38.6215 38.7181C38.8802 38.9087 39.0854 39.1512 39.3441 39.2118C39.7188 39.2984 40.147 39.3331 40.5217 39.2465C42.5557 38.7787 44.0367 37.6095 44.9466 35.7992C45.1696 35.3662 45.2321 34.8551 45.3659 34.3614C44.7057 34.5347 44.6165 33.9284 44.2151 33.8071C44.1526 33.8851 44.0723 33.9717 44.0634 33.9803C44.1348 34.2402 44.1794 34.4134 44.2329 34.5866C44.0545 34.5173 43.8761 34.4567 43.7244 34.3961C43.5549 34.4307 43.3765 34.474 43.1981 34.5173C43.2605 34.3614 43.323 34.1969 43.3854 34.0236C43.1802 33.7811 42.9661 33.5213 42.7074 33.2181C42.3059 33.2528 41.851 33.2874 41.3692 33.3307C41.6458 33.6166 41.8956 33.8591 42.1543 34.1362C42.2078 34.1016 42.2792 34.0323 42.3506 34.015C42.4219 33.9977 42.5022 34.0323 42.5825 34.0496C42.4933 34.3008 42.5111 34.552 42.6003 34.8032C42.5201 34.8205 42.4398 34.8725 42.3684 34.8551C42.2792 34.8291 42.1989 34.7599 42.1186 34.6992C41.9759 34.8378 41.842 34.9591 41.7439 35.0457C41.7796 35.2276 41.8153 35.3748 41.842 35.5134C41.6904 35.4961 41.5298 35.4701 41.4406 35.4614C41.2086 35.5567 41.0302 35.6347 40.8429 35.7039C40.9232 35.4961 41.0035 35.2882 41.1016 35.037C41.0837 34.9937 40.9856 34.9071 40.8875 34.8291ZM41.4138 28.7055C40.9321 29.1126 40.5128 29.4764 40.0846 29.8402C40.4682 30.1866 40.7893 30.4811 41.1194 30.7843C41.1194 30.7843 41.1551 30.7496 41.1908 30.7323C41.3425 30.6717 41.503 30.6024 41.6547 30.5418C41.5833 30.6803 41.5476 30.8536 41.4406 30.9575C41.1551 31.226 40.8429 31.4599 40.5306 31.711C40.5752 31.737 40.6198 31.763 40.6734 31.789C40.7983 31.9449 40.9232 32.1008 41.0927 32.3C43.1089 29.589 43.8761 26.6788 43.314 23.5C43.0553 23.7166 42.7877 23.9331 42.4754 24.2016C42.6896 24.3835 42.8947 24.5481 43.0821 24.7386C43.1445 24.7993 43.1267 24.9292 43.1445 25.0244C43.0464 25.0071 42.9037 25.0244 42.8501 24.9638C42.6539 24.7646 42.4933 24.5481 42.3059 24.3229C42.0026 24.6087 41.7974 24.7993 41.619 24.9638C41.8064 25.1717 41.9759 25.3709 42.0918 25.5095C42.3327 25.4402 42.4933 25.3969 42.6628 25.3536C42.6093 25.5268 42.5647 25.7 42.5022 25.9079C42.6271 26.0118 42.8055 26.1158 42.9304 26.2717C43.0375 26.4103 43.091 26.6008 43.1624 26.7741C42.9929 26.7394 42.8323 26.7048 42.7252 26.6874C42.5468 26.8174 42.3862 26.9386 42.1543 27.1032C42.3952 27.3111 42.6003 27.4583 42.7609 27.6402C42.8591 27.7528 42.8947 27.9174 42.9661 28.0559C42.8234 28.004 42.645 27.978 42.5468 27.8827C42.3595 27.7095 42.2078 27.4843 42.0829 27.337C41.735 27.6229 41.4763 27.8307 41.1908 28.0733C41.5655 28.4284 41.9134 28.7229 42.2167 29.052C42.3506 29.1992 42.4219 29.4071 42.5201 29.589C42.3416 29.4937 42.1454 29.4244 41.9937 29.2945C41.7618 29.104 41.5744 28.8788 41.4138 28.7055ZM23.848 28.8961C21.814 28.6276 19.8959 28.3764 17.9243 28.1079C19.1911 29.2859 20.449 30.4465 21.7605 31.6677C22.4831 30.7063 23.1611 29.8055 23.848 28.8961ZM36.0433 34.474C35.5883 34.9071 35.169 35.3142 34.7675 35.6953C34.8032 35.8339 34.8478 35.9725 34.8835 36.1024C34.7229 36.0764 34.5534 36.0417 34.3572 36.0071C34.3036 36.0591 34.2323 36.1543 34.1252 36.215C34.0271 36.2669 33.9022 36.2669 33.7951 36.2929C33.8219 36.189 33.8219 36.0764 33.8754 35.9898C33.9379 35.8858 34.0449 35.7992 34.0895 35.7559C33.6702 35.3488 33.2777 34.9591 32.8406 34.526C32.6711 34.7079 32.4837 34.9071 32.2964 35.1063C32.2607 35.1496 32.225 35.1929 32.1447 35.3055C32.3945 35.5307 32.6621 35.7386 32.8941 35.9725C32.9565 36.0331 32.9387 36.163 32.9565 36.2583C32.8584 36.241 32.7246 36.2583 32.6621 36.1976C32.4213 35.9725 32.1982 35.7213 32.0198 35.5307C31.5559 35.8599 31.1366 36.1543 30.7084 36.4488C30.7709 36.5268 30.8333 36.6047 30.8957 36.674C33.0904 36.9512 35.1512 36.5095 37.1049 35.548C36.7391 35.1756 36.3823 34.8118 36.0433 34.474ZM12.5449 3.3623C13.0534 3.89064 13.5976 4.02923 14.1953 3.99458C15.5959 3.89931 16.5059 2.98986 17.4069 2.08041C17.282 2.07175 17.1571 2.08041 17.0947 2.1497C16.7735 2.53081 16.4613 2.60876 16.1401 2.08907C15.9349 2.34025 15.7654 2.54813 15.5691 2.79065C15.4443 2.68671 15.3283 2.59144 15.2123 2.4875C15.0874 2.3749 14.9625 2.2623 14.8198 2.12372C14.5967 2.36624 14.4362 2.6001 14.222 2.77332C13.8563 3.06781 13.8295 2.47018 13.4637 2.50482C13.3478 2.69537 13.1961 2.93789 13.0266 3.22372C12.9463 3.2497 12.7768 3.29301 12.5449 3.3623ZM39.9954 31.841C39.4601 31.3213 38.907 30.7929 38.3985 30.2992C38.0595 30.6197 37.6759 30.9748 37.319 31.304C37.542 31.5205 37.7651 31.737 38.0059 31.9709C38.1308 31.8496 38.2646 31.7197 38.4163 31.6071C38.4698 31.5638 38.568 31.5811 38.6483 31.5638C38.6483 31.6504 38.6929 31.7717 38.6483 31.8323C38.5323 31.9882 38.3806 32.1268 38.2825 32.2221C38.5144 32.4646 38.7196 32.6898 38.907 32.889C39.2906 32.5166 39.6653 32.1528 39.9954 31.841ZM34.3839 35.3315C34.8122 34.9158 35.2404 34.5087 35.6061 34.1622C35.2493 33.8071 34.8657 33.4173 34.4821 33.0449C34.0806 33.426 33.6613 33.8331 33.2509 34.2315C33.6435 34.6126 34.0449 34.9937 34.3839 35.3315ZM30.4943 34.2315C30.2267 34.4827 29.8609 34.8378 29.504 35.1756C29.8698 35.5394 30.2267 35.8945 30.5121 36.1803C30.8868 35.8685 31.2526 35.5567 31.7789 35.115C31.3329 34.8032 30.9136 34.5173 30.4943 34.2315ZM37.5956 35.3142C37.8186 35.1756 38.1665 34.9591 38.5055 34.7425C38.0149 34.2748 37.551 33.8417 37.0781 33.4C36.8551 33.6339 36.5875 33.911 36.2128 34.2921C36.641 34.6126 37.0781 34.9417 37.5956 35.3142ZM38.8802 34.4654C39.0676 34.3181 39.2638 34.1622 39.5404 33.9543C39.2192 33.7465 38.9427 33.5646 38.6215 33.3654C38.6037 33.0795 38.4074 32.8457 38.0238 32.6292C37.8007 32.7937 37.5956 32.9323 37.4261 33.0536C37.9167 33.5299 38.3895 33.9803 38.8802 34.4654ZM39.7813 33.7291C40.1381 33.348 40.4949 32.9669 40.8696 32.5685C40.6823 32.3693 40.5217 32.2047 40.4325 32.1008C40.0132 32.5079 39.6296 32.8717 39.2281 33.2528C39.3709 33.3827 39.5493 33.5386 39.7813 33.7291ZM40.9588 27.8048C41.2176 27.5449 41.4406 27.3111 41.6458 27.1118C41.3425 26.7914 41.0659 26.5055 40.8518 26.2717C40.5842 26.4969 40.3254 26.7134 40.0846 26.9126C40.379 27.2071 40.6555 27.4929 40.9588 27.8048ZM38.7107 35.9291C38.675 35.9551 38.6393 35.9811 38.6037 36.0071C38.6215 36.2929 38.6839 36.5787 38.6483 36.8559C38.5858 37.2803 38.7999 37.5228 39.0765 37.6961C39.3263 37.4795 39.5493 37.2803 39.7634 37.0898C39.7366 37.0465 39.7188 37.0205 39.7099 36.9945C39.4958 36.5268 38.7018 36.6307 38.7107 35.9291ZM39.8526 30.1433C39.701 30.3166 39.5671 30.4725 39.4958 30.5504C39.7991 30.8622 40.1024 31.174 40.3611 31.4425C40.4949 31.3299 40.6466 31.2087 40.7626 31.1047C40.4682 30.7843 40.1738 30.4811 39.8526 30.1433ZM30.2623 36.6221C29.8698 36.2323 29.513 35.8685 29.1918 35.5567C28.9866 35.7473 28.7636 35.9465 28.4959 36.189C29.0937 36.3362 29.6735 36.4748 30.2623 36.6221ZM36.4626 32.0835C36.7213 32.3347 36.9443 32.5512 37.1584 32.7591C37.3279 32.6118 37.5153 32.4473 37.6848 32.3C37.4261 32.0575 37.203 31.841 36.9443 31.5984C36.7837 31.763 36.6142 31.9362 36.4626 32.0835ZM40.9856 33.5646C40.8429 33.7032 40.7091 33.8417 40.6198 33.9284C40.9053 34.2575 41.173 34.5606 41.4049 34.8291C41.5923 34.6819 41.7439 34.552 41.8688 34.4567C41.5655 34.1449 41.2889 33.8677 40.9856 33.5646ZM41.7974 23.4741C41.958 23.6213 42.0918 23.7426 42.2257 23.8638C42.5647 23.5693 42.8769 23.3008 43.2159 23.0063C43.1802 22.8851 43.1267 22.7292 43.0642 22.5213C42.6182 22.8591 42.2167 23.1622 41.7974 23.4741ZM39.7723 35.2882C40.0489 35.011 40.2898 34.7685 40.5485 34.5087C40.4682 34.4394 40.379 34.3528 40.2808 34.2662C39.9954 34.5 39.7277 34.7165 39.4512 34.9504C39.5671 35.0717 39.6653 35.1756 39.7723 35.2882ZM39.5671 29.9528C39.4244 29.7709 39.3084 29.615 39.2103 29.4851C38.9962 29.6496 38.8445 29.7709 38.7821 29.8142C38.8981 30.0221 38.9873 30.204 39.0854 30.3772C39.3084 30.1866 39.4512 30.0567 39.5671 29.9528ZM39.13 35.9638C39.2995 35.7906 39.4155 35.6693 39.5315 35.548C39.3887 35.4008 39.2817 35.2795 39.1657 35.1496C38.9873 35.2709 38.8356 35.3748 38.675 35.4788C38.8445 35.6606 38.9694 35.7906 39.13 35.9638ZM41.5387 25.4229C41.3514 25.6221 41.2086 25.778 41.0302 25.9772C41.164 26.0898 41.28 26.1937 41.3871 26.289C41.5655 26.1244 41.7261 25.9685 41.8867 25.8213C41.7707 25.6914 41.6725 25.5701 41.5387 25.4229ZM44.2151 33.2355C43.7958 33.2355 43.5014 33.2355 43.1713 33.2355C43.3676 33.4347 43.5281 33.6079 43.7244 33.8158C43.885 33.6339 44.0099 33.478 44.2151 33.2355ZM41.958 26.8433C42.1275 26.6788 42.2703 26.5229 42.4487 26.341C42.3416 26.2544 42.2524 26.1764 42.2078 26.1331C42.0205 26.2977 41.8688 26.4189 41.6993 26.5662C41.7796 26.6528 41.8599 26.7307 41.958 26.8433ZM12.7411 2.58277C12.9552 2.44419 13.1337 2.32293 13.3032 2.21033C13.2853 2.18435 13.2675 2.15837 13.2496 2.13238C13.0177 2.18435 12.7768 2.22766 12.4735 2.28829C12.6162 2.44419 12.7054 2.54813 12.7411 2.58277ZM15.8725 1.92451C15.8546 1.8812 15.8279 1.83789 15.81 1.79459C15.5959 1.82057 15.3818 1.83789 15.0785 1.87254C15.2658 2.04577 15.3729 2.14104 15.4799 2.23632C15.6316 2.11506 15.7476 2.01978 15.8725 1.92451ZM18.5845 7.60638C19.3339 7.72764 20.0208 7.77961 20.6631 7.97016C21.8497 8.31662 22.0638 9.22606 21.1895 10.0662C20.1011 11.1142 18.7897 11.5906 17.2553 11.3308C16.497 11.2009 15.9082 10.8198 15.6673 10.0489C15.3907 9.14811 15.7208 8.37725 16.6397 8.04811C17.282 7.81426 17.9689 7.7363 18.5845 7.60638ZM19.4677 8.79299C19.3874 9.03551 19.325 9.2174 19.2536 9.41661C19.1733 9.41661 19.0752 9.40795 18.977 9.41661C18.8432 9.43394 18.7183 9.46858 18.5845 9.49457C18.6113 9.35598 18.6291 9.2174 18.6559 9.0615C17.9511 8.30796 17.8619 8.10874 17.3177 8.87095C17.4783 8.95756 17.6745 9.00953 17.7905 9.13945C17.9065 9.26937 17.9422 9.46858 18.0136 9.63315C17.96 9.61583 17.9154 9.5985 17.8619 9.58118C17.6567 9.74575 17.2553 9.95362 17.282 10.0576C17.4248 10.5513 17.0501 10.3347 16.7557 10.378C16.943 10.482 17.0322 10.5426 17.1304 10.5772C18.2812 11.0016 20.2617 10.3434 20.8951 9.33C20.9665 9.20874 20.9665 9.04417 21.0111 8.80166C20.1368 9.36465 20.1368 9.36465 19.4677 8.79299ZM16.6575 8.8363C16.2293 9.1741 16.265 9.28669 16.9698 9.76307C17.1125 9.65047 17.2642 9.53787 17.4426 9.39063C17.282 9.25205 17.1928 9.16543 17.1214 9.1048C16.943 9.13945 16.8003 9.15677 16.6575 9.18276C16.6575 9.07882 16.6575 8.96622 16.6575 8.8363ZM19.7978 8.4552C19.7889 8.48118 19.771 8.50717 19.7621 8.53315C19.9227 8.67173 20.0743 8.81032 20.2528 8.96622C20.3331 8.87095 20.4223 8.77567 20.565 8.61977C20.2617 8.55047 20.0297 8.49851 19.7978 8.4552ZM19.0306 8.9489C19.1109 8.73236 19.1555 8.6111 19.1911 8.48985C18.9949 8.44654 18.7897 8.39457 18.5934 8.35126C18.5845 8.38591 18.5845 8.42055 18.5756 8.44654C18.7005 8.58512 18.8254 8.7237 19.0306 8.9489ZM5.96995 12.552C5.1492 12.5607 4.48011 11.9717 4.35521 11.1576C4.25708 10.482 4.81019 9.5985 5.54173 9.5552C6.2019 9.52055 6.93344 9.46858 7.54008 9.89299C8.02182 10.2308 8.16456 10.7678 7.92369 11.3135C7.61145 11.9977 6.73717 12.552 5.96995 12.552ZM5.40791 11.6686C6.00563 12.2142 7.19215 11.5213 7.30813 10.8977C7.33489 10.7505 7.18323 10.5166 7.04049 10.4213C6.92452 10.352 6.71041 10.4387 6.56767 10.4473C6.6212 10.7072 6.64796 10.8544 6.67472 11.0103C6.52306 10.9757 6.36248 10.941 6.17514 10.9064C5.93426 11.019 5.88074 11.2182 6.04132 11.4694C5.83613 11.5387 5.63986 11.5993 5.40791 11.6686ZM6.04132 10.6032C5.71123 10.404 5.4882 10.1788 5.22949 10.5513C5.35439 10.6898 5.46144 10.8198 5.55065 10.9064C5.738 10.7938 5.87182 10.7158 6.04132 10.6032ZM10.2343 13.4095C9.54735 13.4182 9.01207 12.9245 9.02992 12.3009C9.04776 11.6859 9.53842 11.3308 10.2967 11.3741C10.377 11.3828 10.4662 11.3568 10.5554 11.3394C11.2156 11.2355 11.6884 11.7205 11.5368 12.3528C11.3851 12.9505 10.832 13.4009 10.2343 13.4095ZM10.8142 12.041C10.5822 12.041 10.3681 12.0064 10.1718 12.0497C10.0112 12.0843 9.86851 12.1969 9.72577 12.2835C9.85959 12.4308 9.96664 12.656 10.1272 12.6993C10.4751 12.7946 10.7785 12.4827 10.8142 12.041ZM24.9096 7.49378C24.642 7.19064 24.4368 6.96544 24.2405 6.74024C24.3744 6.63631 24.5885 6.41111 24.6152 6.43709C24.8561 6.61032 25.0791 6.82686 25.2754 7.05205C25.2932 7.07804 25.0881 7.27725 24.9096 7.49378ZM20.788 5.19852C20.4134 5.09458 20.0654 5.10324 20.0833 4.72214C20.0922 4.60954 20.3598 4.43631 20.5204 4.42765C20.788 4.41033 21.1538 4.41899 21.1538 4.79143C21.1538 4.92135 20.9129 5.05993 20.788 5.19852ZM9.39569 6.42843C9.27079 6.50639 9.08344 6.67961 9.021 6.64497C8.80689 6.54103 8.64631 6.35048 8.45896 6.19458C8.57494 6.09064 8.7266 5.8741 8.79797 5.89143C9.021 5.96072 9.20834 6.11662 9.41353 6.23788C9.41353 6.30717 9.40461 6.3678 9.39569 6.42843ZM11.5457 9.28669C11.3494 9.05284 11.2335 8.90559 11.1175 8.76701C11.2602 8.66307 11.394 8.49851 11.5635 8.46386C11.8044 8.41189 12.0364 8.52449 11.9918 8.80166C11.965 8.94024 11.7598 9.0615 11.5457 9.28669ZM15.703 13.6607C15.5156 13.7473 15.3283 13.8859 15.132 13.9032C15.0339 13.9119 14.9179 13.6953 14.8108 13.5827C14.9803 13.4615 15.1409 13.2969 15.3283 13.2363C15.4175 13.2103 15.5781 13.3922 15.703 13.4788C15.7119 13.5481 15.7119 13.6087 15.703 13.6607Z" stroke="#2F4237" stroke-width="0.2"/>
</svg>
