<svg width="48" height="48" viewBox="0 0 48 48" fill="none" xmlns="http://www.w3.org/2000/svg">
<path d="M32.2903 7.95972C32.2066 6.87512 32.1229 5.66293 32.4577 4.46897C33.0807 2.25422 35.4053 0.723032 37.6649 1.04203C40.0081 1.37014 41.8028 3.40261 41.7749 5.72673C41.7749 6.18244 41.7005 6.63816 41.6912 7.09387C41.6633 8.05086 42.0817 8.72531 43.0116 9.07165C43.5788 9.28128 44.146 9.4909 44.6853 9.7461C46.3033 10.5117 47.168 12.0702 46.9728 13.811C46.8054 15.324 45.5501 16.6364 43.8949 17.0192C43.1046 17.2015 42.3328 17.1195 41.5703 16.8278C40.9659 16.6 40.3615 16.3448 39.7385 16.1716C38.7528 15.8982 37.8044 16.0622 36.921 16.5635C35.6936 17.2471 34.8195 18.2952 33.964 19.3616C33.8989 19.4436 33.8804 19.5894 33.8989 19.6988C34.6056 22.989 34.2802 26.2337 33.3875 29.4328C31.9183 34.7008 29.1381 39.1759 24.8607 42.7031C24.1447 43.2955 23.3357 43.7786 22.564 44.3163C22.5175 44.3528 22.471 44.3983 22.4245 44.4348C19.3745 47.1782 15.869 47.6157 12.103 46.2485C8.9694 45.1184 6.70054 42.9218 4.9989 40.1511C3.27866 37.3439 2.08844 34.3271 1.40964 31.1189C0.93541 28.8768 0.795931 26.6165 1.40964 24.3835C2.04194 22.0867 3.49253 20.4826 5.6777 19.4436C11.0244 16.919 16.6686 15.242 22.4338 13.9386C24.1447 13.5558 25.8743 13.3006 27.641 13.5194C28.0408 13.565 28.4407 13.6196 28.8219 13.7381C29.3891 13.9204 29.8913 13.811 30.3655 13.5103C31.5185 12.772 32.1601 11.7239 32.2624 10.3841C32.3368 9.60939 32.2903 8.84379 32.2903 7.95972ZM6.47738 40.698C6.42158 40.7526 6.35649 40.8073 6.3007 40.862C6.87722 41.5 7.41653 42.1745 8.03954 42.776C10.3828 45.0181 13.1073 46.3852 16.4827 46.2303C19.9139 46.0753 22.6383 44.0793 23.7356 40.8985C24.3958 38.9936 24.4795 37.0523 24.0517 35.1018C23.187 31.2283 21.4574 27.7467 19.0026 24.6114C17.645 22.8797 15.9712 21.4943 13.9627 20.5556C13.6094 20.911 13.2747 21.2573 12.9399 21.6037C12.9585 21.6493 12.9771 21.6948 12.9957 21.7404C13.1073 21.7131 13.2375 21.7222 13.3211 21.6675C13.4606 21.5763 13.5536 21.4214 13.6931 21.3303C13.7768 21.2756 13.907 21.3029 14.0185 21.2938C13.9999 21.3849 14.0092 21.5125 13.9535 21.5672C13.7768 21.7313 13.5629 21.868 13.3676 22.0138C13.4141 22.0412 13.4699 22.0685 13.5164 22.0867C13.5908 22.2781 13.6652 22.4695 13.7489 22.6609C13.5536 22.5971 13.3583 22.5333 13.1817 22.4695C12.9771 22.5333 12.7539 22.6063 12.5308 22.6792C12.633 22.506 12.726 22.3419 12.8283 22.1688C12.8376 22.1414 12.8469 22.1141 12.8469 22.0867C12.8004 22.1232 12.7632 22.1688 12.7167 22.2052C12.2425 21.7039 11.7683 21.2027 11.2662 20.674C10.6524 21.2847 9.98295 21.9591 9.31345 22.6427C9.35064 22.6883 9.41573 22.7339 9.45293 22.7977C9.53662 22.9435 9.60171 23.0893 9.67609 23.2442C9.50872 23.1804 9.31345 23.1531 9.19257 23.0346C8.72764 22.5971 8.2906 22.1232 7.77918 21.6128C7.44443 21.9683 7.16547 22.2781 6.86792 22.5607C6.77493 22.6518 6.61686 22.6701 6.48667 22.7156C6.53317 22.5789 6.54247 22.4057 6.64475 22.3146C6.94231 22.0321 7.26776 21.7769 7.58391 21.5125C7.23056 21.1571 6.9702 20.8928 6.79353 20.7196C6.22631 21.2756 5.6777 21.8224 5.23136 22.2599C5.6684 22.7247 6.15193 23.2442 6.61686 23.7364C6.74704 23.7 6.90511 23.6544 7.07249 23.6088C7.03529 23.782 6.9981 23.9552 6.93301 24.2195C7.0167 24.2924 7.17477 24.3926 7.29565 24.5294C7.35144 24.6023 7.33285 24.7299 7.35144 24.8392C7.24916 24.8119 7.10038 24.821 7.03529 24.7572C6.90511 24.6205 6.81213 24.4382 6.74704 24.3471C6.19842 24.8848 5.75209 25.3223 5.30575 25.7598C5.38944 25.8509 5.52892 25.9603 5.60331 26.097C5.6312 26.1517 5.52892 26.2884 5.48243 26.3795C5.21277 26.1881 4.90591 26.0332 4.67345 25.8053C4.47818 25.6231 4.3573 25.3679 4.20852 25.1491C3.81798 25.5319 3.49253 25.8509 3.21357 26.1243C3.6506 26.5527 4.07834 26.972 4.47818 27.3639C4.64555 27.3001 4.82223 27.2272 5.0082 27.1542C4.94311 27.3548 4.87802 27.5553 4.82223 27.7467C4.85942 27.8925 4.89661 28.0474 4.93381 28.2024C4.75714 28.1568 4.58976 28.1112 4.47818 28.0839C3.97605 28.5669 3.47393 29.0409 2.9997 29.4875C3.39954 29.8976 3.81798 30.3169 4.25501 30.7544C4.36659 30.645 4.46888 30.5265 4.59906 30.4536C4.69204 30.3989 4.83152 30.3898 4.94311 30.3624C4.90591 30.4809 4.89661 30.6085 4.83152 30.7088C4.75714 30.8364 4.62695 30.9275 4.58976 30.9731C4.63625 31.201 4.66415 31.3468 4.69204 31.4926C4.53397 31.4653 4.36659 31.4288 4.14343 31.3924C3.81798 31.7387 3.44603 32.1306 3.12058 32.4678C3.58551 32.9509 4.05044 33.4248 4.55257 33.9443C4.82223 33.6709 5.07329 33.3884 5.36154 33.1241C5.43593 33.0511 5.59401 33.0603 5.70559 33.0329C5.6684 33.1514 5.6777 33.2972 5.60331 33.3792C5.34295 33.6618 5.06399 33.9079 4.73854 34.2269C5.04539 34.5094 5.32435 34.7464 5.57541 35.0107C5.6684 35.111 5.69629 35.275 5.75209 35.4117C5.61261 35.3661 5.43593 35.357 5.34295 35.2659C5.07329 35.0016 4.84082 34.7008 4.58976 34.4092C4.57116 34.4638 4.56186 34.5185 4.54327 34.5732C4.36659 34.6917 4.18062 34.8011 4.07834 34.8649C4.20852 35.1474 4.3015 35.3388 4.38519 35.5302C4.16202 35.4573 3.94816 35.3844 3.69709 35.3023C3.51112 35.512 3.60411 35.6487 4.58046 36.4052C4.74784 36.1955 4.92451 35.9586 5.11978 35.7489C5.19417 35.676 5.34295 35.6851 5.46383 35.6578C5.42663 35.7763 5.42663 35.9221 5.35225 35.995C5.14768 36.1955 4.91521 36.3687 4.71994 36.5237C5.10118 36.9247 5.39874 37.2254 5.6498 37.4898C5.90086 37.3622 6.12403 37.2528 6.3379 37.1434C6.24491 37.3713 6.16122 37.5991 6.06824 37.827C6.01245 37.8543 5.95665 37.8817 5.89156 37.909C6.10543 38.064 6.3193 38.2098 6.51457 38.383C6.57036 38.4285 6.55176 38.5652 6.57036 38.6564C6.46808 38.6473 6.3193 38.6746 6.26351 38.6199C6.08683 38.4285 5.93806 38.2098 5.78928 38.0093C5.76138 38.0548 5.73349 38.1095 5.70559 38.1551C5.54752 38.2918 5.38944 38.4194 5.26856 38.5197C5.36154 39.0301 6.20772 39.0756 5.95665 39.6863C6.10543 39.8686 6.23561 40.0417 6.43088 40.2696C6.59826 40.0782 6.70984 39.9141 6.85862 39.7865C6.93301 39.7227 7.06319 39.7319 7.17477 39.7045C7.15617 39.8139 7.17477 39.9415 7.11898 40.0144C7.0074 40.1693 6.84932 40.2969 6.62615 40.5339C6.9888 40.8529 7.34215 41.1446 7.6769 41.4636C7.76058 41.5456 7.76988 41.7096 7.80708 41.8372C7.6769 41.7917 7.50952 41.7826 7.42583 41.7005C7.07249 41.3633 6.77493 41.0261 6.47738 40.698ZM23.6984 29.7336C23.7449 29.7336 23.8007 29.7245 23.8472 29.7245C23.8379 29.6151 23.8472 29.4966 23.8193 29.3872C23.7914 29.2596 23.7356 29.132 23.6891 29.0044C23.8286 29.05 23.9773 29.0956 24.1168 29.1503C24.1633 29.1685 24.2098 29.2141 24.154 29.1776C24.4516 29.0773 24.6561 29.0135 24.87 28.9406C24.777 29.1411 24.6933 29.3417 24.5632 29.6424C24.7026 29.77 24.9165 29.925 25.0932 30.1072C25.1583 30.1802 25.1583 30.3078 25.1862 30.4171C25.0653 30.3898 24.9072 30.408 24.8328 30.3442C24.6375 30.171 24.4795 29.9614 24.2842 29.7336C24.1447 29.8612 24.061 29.9341 23.9773 30.007C24.1447 30.1802 24.2842 30.2986 24.3958 30.4445C24.4423 30.5083 24.4237 30.6268 24.433 30.7179C24.34 30.7088 24.2191 30.7361 24.154 30.6814C24.0052 30.5812 23.8844 30.4445 23.6984 30.2713C23.5961 30.4262 23.4101 30.5903 23.438 30.6814C23.5775 31.1007 23.7821 31.4926 24.0052 32.003C24.4144 31.5838 24.7119 31.2556 25.0374 30.9458C25.1211 30.8637 25.2698 30.8637 25.3907 30.8182C25.3535 30.9458 25.3628 31.1098 25.2884 31.1918C24.9816 31.5108 24.6561 31.8025 24.3028 32.1306C24.6282 32.3949 24.8979 32.6228 25.2513 32.9144C25.2791 32.878 25.3535 32.7048 25.4744 32.5954C25.5674 32.5134 25.7255 32.5043 25.8557 32.4587C25.8092 32.5863 25.8092 32.7504 25.7255 32.8324C25.3721 33.1879 24.9909 33.5251 24.6096 33.8714C24.963 34.2178 25.2698 34.5094 25.6325 34.874C25.8743 34.6097 26.0974 34.3362 26.3578 34.0902C26.4322 34.0172 26.5902 34.0172 26.7111 33.9808C26.6832 34.0993 26.6925 34.2451 26.6181 34.318C26.3671 34.5823 26.0974 34.8193 25.8464 35.0472C26.0881 35.357 26.2834 35.6122 26.4787 35.8674C26.4229 35.913 26.3764 35.9586 26.3206 36.0041C26.0695 35.8036 25.8185 35.594 25.5767 35.3935C24.7305 36.0679 24.7212 36.3869 25.5302 36.9429C25.8743 36.6057 26.209 36.2502 26.5716 35.913C26.6646 35.8219 26.8413 35.8219 26.9808 35.7763C26.9343 35.9039 26.9157 36.0588 26.8227 36.15C26.4601 36.4963 26.0788 36.8244 25.772 37.0887C26.0788 37.4533 26.302 37.7085 26.5066 37.9637C26.6925 37.8088 26.832 37.6903 26.8971 37.6356C26.8506 37.3895 26.8227 37.2254 26.7948 37.0614C26.9622 37.1434 27.1482 37.1981 27.2783 37.3166C27.5759 37.59 27.8456 37.8999 28.171 38.228C28.5987 37.6174 28.9707 37.107 29.2775 36.6695C29.1102 36.4325 28.9893 36.2593 28.8219 36.0224C28.5801 36.2958 28.4221 36.5054 28.2268 36.6695C28.1245 36.7606 27.9571 36.7697 27.8084 36.8153C27.8642 36.6786 27.8921 36.5054 27.985 36.4143C28.1803 36.2229 28.4128 36.0771 28.6917 35.8674C28.4593 35.6851 28.3384 35.6305 28.2733 35.5302C28.1896 35.4117 28.1524 35.2659 28.0966 35.1292C28.2361 35.1748 28.3849 35.2021 28.5058 35.275C28.6173 35.3388 28.7103 35.4482 28.8219 35.5484C29.073 35.3023 29.3054 35.0654 29.5751 34.792C29.2125 34.4456 28.8405 34.1084 28.4872 33.7438C28.4128 33.6709 28.4128 33.516 28.3756 33.4066C28.4965 33.4339 28.6452 33.4248 28.7196 33.4977C29.0823 33.8441 29.4263 34.2178 29.789 34.5914C30.0865 34.2907 30.3469 34.0446 30.5886 33.8076C30.3283 33.5524 30.0772 33.3063 29.8634 33.1058C29.6867 33.1423 29.5286 33.1787 29.3705 33.2061C29.417 33.042 29.4635 32.8689 29.5286 32.6592C29.4449 32.5772 29.3054 32.4952 29.2218 32.3676C29.1474 32.2673 29.1381 32.1215 29.1009 31.9939C29.2311 32.0395 29.3705 32.0668 29.4821 32.1397C29.6216 32.2309 29.7239 32.3585 29.789 32.4131C30.0307 32.1944 30.2446 32.003 30.5143 31.766C30.226 31.5108 29.9377 31.2648 29.6681 30.9913C29.5937 30.9184 29.603 30.7726 29.5658 30.6541C29.6867 30.6814 29.8355 30.6814 29.9098 30.7544C30.1981 31.0278 30.4492 31.3194 30.663 31.5382C31.1466 31.0825 31.5464 30.6906 31.9183 30.3351C31.7045 30.0981 31.472 29.8338 31.1745 29.5057C30.9885 29.7153 30.849 29.925 30.663 30.0799C30.5515 30.1802 30.3655 30.1984 30.2167 30.2622C30.2725 30.1255 30.3097 29.9614 30.4027 29.8612C30.5793 29.6789 30.7932 29.5331 30.9885 29.369C30.9327 29.3508 30.8769 29.3234 30.8211 29.3052C30.7467 29.1047 30.6816 28.8951 30.6072 28.6945C30.8118 28.7857 31.0257 28.8677 31.2117 28.9497C31.6022 28.5852 32.0206 28.1842 32.4298 27.8014C32.281 27.6282 32.1415 27.455 32.0485 27.3456C31.8068 27.4186 31.658 27.4641 31.5092 27.5097C31.5371 27.3456 31.565 27.1816 31.6022 26.9446C31.5557 26.899 31.4441 26.7988 31.3511 26.6803C31.2953 26.6074 31.2953 26.498 31.2767 26.4069C31.3883 26.416 31.5092 26.3887 31.5929 26.4342C31.7324 26.5163 31.844 26.6438 31.9369 26.735C32.3461 26.3522 32.718 25.9967 33.0435 25.6777C32.6994 25.3223 32.3647 24.9851 32.0764 24.6843C31.8812 24.7481 31.7138 24.7937 31.5371 24.8484C31.5929 24.657 31.6487 24.4656 31.6952 24.3197C31.6301 24.1283 31.5743 23.9552 31.5185 23.7911C31.7138 23.8458 31.909 23.9005 32.095 23.9552C32.4856 23.5815 32.8947 23.1896 33.3503 22.7612C32.9598 22.6063 32.904 22.0138 32.3275 22.1505C32.3089 22.1597 32.2345 22.0047 32.2066 21.9136C32.188 21.8407 32.2066 21.7495 32.1787 21.6766C32.1322 21.5217 32.0671 21.3758 32.0113 21.23C32.1787 21.312 32.3368 21.3849 32.5042 21.467C32.5321 21.4761 32.5599 21.4852 32.6436 21.5125C32.7645 21.3758 32.8947 21.2027 33.0621 21.066C33.3596 20.8199 33.3503 20.6102 33.0714 20.355C32.7645 20.0816 32.467 19.79 32.188 19.4801C32.1229 19.4072 32.1322 19.2522 32.1136 19.1337C32.2159 19.1611 32.3647 19.1611 32.4298 19.234C32.6529 19.4618 32.8389 19.7079 33.0435 19.954C33.1179 19.8993 33.183 19.8355 33.2573 19.7808C33.0528 19.4618 32.8761 19.1246 32.6343 18.833C32.4205 18.5595 32.1322 18.3408 31.8997 18.0765C31.844 18.0218 31.8719 17.8942 31.8626 17.8031C31.9555 17.8122 32.0764 17.7848 32.1415 17.8304C32.3275 17.9762 32.4949 18.1494 32.6622 18.3043C32.0299 16.363 30.7746 15.0141 28.7661 14.449C26.9808 13.9386 25.1676 14.0571 23.3822 14.4035C19.6256 15.1326 15.9619 16.1898 12.3541 17.4385C11.3219 17.7939 10.3084 18.1767 9.28555 18.5504C11.9171 18.7054 14.2603 19.5439 16.3711 21.0477C18.4726 22.5516 20.0533 24.502 21.29 26.5436C21.6155 26.6347 21.8015 26.6803 22.1083 26.7623C22.1734 26.6894 22.285 26.5163 22.4338 26.3887C22.4989 26.334 22.6383 26.3522 22.7499 26.3431C22.7313 26.4342 22.7406 26.5618 22.6848 26.6165C22.5361 26.7623 22.3594 26.8717 22.285 26.9264C22.6011 27.3001 22.8429 27.5735 23.0847 27.856C23.1684 27.7831 23.2242 27.7011 23.3078 27.6646C23.438 27.5917 23.5868 27.5553 23.7263 27.5006C23.6798 27.6373 23.6612 27.8105 23.5682 27.9016C23.2892 28.1842 22.9824 28.4302 22.6755 28.6945C23.0847 29.1411 23.3915 29.4419 23.6984 29.7336ZM33.6293 18.5869C33.8896 18.2952 34.0942 18.0036 34.3546 17.7666C34.9218 17.238 35.4797 16.6729 36.112 16.2172C37.4882 15.2237 38.9946 15.0506 40.5939 15.6703C41.1426 15.88 41.6819 16.1078 42.2491 16.2719C43.9228 16.7458 45.8105 15.643 46.201 13.9842C46.5357 12.5715 45.7733 11.0403 44.3878 10.3932C43.6904 10.0651 42.9651 9.79167 42.277 9.45445C41.2262 8.92582 40.8171 8.06909 40.9659 6.9207C41.031 6.43764 41.0589 5.95459 41.0403 5.47154C40.9752 3.68515 39.4502 2.02636 37.6556 1.76205C35.8796 1.49774 33.9361 2.61879 33.3038 4.26846C32.9133 5.27102 32.9319 6.31916 32.9784 7.36729C33.0156 8.27871 33.0714 9.19014 33.0342 10.0924C32.9598 11.9153 32.1787 13.3553 30.4957 14.2576C30.4771 14.2667 30.4678 14.3032 30.4585 14.3305C32.0113 15.4516 32.6808 16.2628 33.6293 18.5869ZM6.62615 19.8538C7.02599 20.2639 7.42583 20.674 7.84427 21.1024C8.03954 20.911 8.22551 20.6832 8.44868 20.5009C8.54167 20.4188 8.69974 20.4188 8.82992 20.3824C8.79273 20.5009 8.78343 20.6467 8.69974 20.7287C8.48587 20.9475 8.24411 21.1389 8.00235 21.3485C8.38359 21.7222 8.70904 22.0321 8.9601 22.2781C9.6668 21.6219 10.3642 20.9657 11.0151 20.355C10.8105 20.1272 10.6246 19.9176 10.3828 19.6441C10.1317 19.9084 9.91786 20.1728 9.67609 20.4006C9.60171 20.4735 9.44363 20.4644 9.32275 20.4826C9.35994 20.3642 9.35994 20.2183 9.43433 20.1454C9.6296 19.9631 9.86207 19.8082 10.0759 19.6441C10.0387 19.5894 9.99225 19.5348 9.95505 19.4892C8.79273 19.3889 7.6583 19.4983 6.62615 19.8538ZM2.43248 26.7532C2.74864 27.0175 3.0276 27.2454 3.27866 27.4824C3.32515 27.5279 3.29725 27.6646 3.29725 27.7558C3.21357 27.7467 3.10198 27.774 3.05549 27.7284C2.63705 27.373 2.21862 27.0084 1.81878 26.6621C1.59561 28.0748 1.75369 28.5669 2.59056 29.1229C3.10198 28.649 3.60411 28.1842 4.10623 27.7102C3.6692 27.3001 3.24146 26.8899 2.79513 26.4616C2.73004 26.5071 2.63705 26.5892 2.43248 26.7532ZM3.49253 21.9865C2.55337 22.9799 2.55337 23.0984 3.49253 24.0007C3.54832 24.0554 3.60411 24.101 3.62271 24.1192C4.06904 23.6544 4.50607 23.2078 4.95241 22.743C4.85942 22.6609 4.78503 22.588 4.64555 22.4604C4.47818 22.6609 4.3294 22.8523 4.15273 23.0255C4.10623 23.0711 3.96675 23.0255 3.86447 23.0164C3.88307 22.9344 3.86447 22.8341 3.91096 22.7794C4.06904 22.5971 4.23641 22.4331 4.42239 22.2417C4.3015 22.1323 4.20852 22.0412 4.13413 21.9774C3.91096 21.9956 3.73429 22.5333 3.49253 21.9865ZM2.48828 23.5997C1.86527 24.9486 1.90246 25.1765 2.78583 25.8053C3.12988 25.4772 3.46463 25.1582 3.75289 24.8848C3.34375 24.4747 2.93461 24.0463 2.48828 23.5997ZM6.14263 24.1192C5.82647 23.7911 5.49172 23.4448 5.06399 22.989C4.69204 23.4356 4.3108 23.9096 3.91096 24.3926C3.92956 24.4018 4.02255 24.4929 4.16202 24.6205C4.49677 24.2742 4.81293 23.9369 5.14768 23.6179C5.23136 23.5359 5.39874 23.545 5.51962 23.5177C5.48243 23.6362 5.47313 23.7729 5.39874 23.8549C5.07329 24.1921 4.72924 24.5111 4.42239 24.8028C4.60836 25.0215 4.74784 25.1947 4.88732 25.3496C5.35225 24.903 5.78928 24.4656 6.14263 24.1192ZM3.94816 30.9458C3.71569 30.7452 3.48323 30.5447 3.25076 30.3442C3.0276 30.1437 2.81373 29.9341 2.60916 29.7427C1.56772 30.4354 2.14423 31.1645 3.07409 31.8298C3.34375 31.5655 3.61341 31.2921 3.94816 30.9458ZM25.7627 39.3673C25.93 39.5313 26.0974 39.7045 26.2648 39.8686C26.5995 39.7319 26.7204 39.2488 27.1668 39.4493C27.1854 39.4584 27.2318 39.3946 27.2597 39.3582C27.4829 39.0939 27.7061 38.8295 27.9292 38.5743C27.6782 38.3374 27.4643 38.1278 27.204 37.8817C27.0831 38.0184 26.9529 38.1642 26.8599 38.2736C26.9157 38.465 26.9622 38.6199 27.0087 38.7749C26.832 38.7475 26.6646 38.7202 26.4694 38.6837C26.2741 38.866 26.0509 39.0939 25.7627 39.3673ZM12.0193 19.8264C11.8799 20.0269 11.7776 20.1819 11.7125 20.2821C12.0565 20.6285 12.382 20.9566 12.6423 21.2118C12.9399 20.9566 13.2654 20.6923 13.628 20.3733C13.0329 20.1728 12.5122 19.9905 12.0193 19.8264ZM32.9505 28.2206C32.904 28.2115 32.8482 28.2115 32.8017 28.2024C32.3926 28.6034 31.9834 29.0044 31.6022 29.3781C31.844 29.6333 32.095 29.8976 32.4205 30.2348C32.6064 29.5148 32.7831 28.8677 32.9505 28.2206ZM6.41229 20.2457C5.71489 19.9176 5.38014 20.5373 4.88732 20.674C5.21277 21.2573 4.51537 21.312 4.43168 21.7131C4.50607 21.786 4.59906 21.8771 4.66415 21.95C5.23136 21.3849 5.77998 20.8563 6.41229 20.2457ZM3.60411 34.555C3.81798 34.4274 4.01325 34.318 4.19922 34.1995C4.13413 34.2178 4.07834 34.236 4.01325 34.2542C3.54832 33.7894 3.07409 33.3246 2.65565 32.9053C2.73004 33.5707 3.03689 34.1904 3.60411 34.555ZM33.5177 23.3627C33.1086 23.7455 32.7552 24.0645 32.5135 24.2924C32.8203 24.6205 33.1086 24.9395 33.4154 25.2676C33.4526 24.6478 33.4805 24.0281 33.5177 23.3627ZM30.1888 32.8051C30.4678 33.0785 30.7374 33.3519 31.0164 33.6162C31.5278 32.7048 31.5836 32.8597 30.7839 32.2217C30.5793 32.4223 30.3748 32.6228 30.1888 32.8051ZM25.4837 37.5809C24.777 38.1551 24.7863 38.5744 25.4837 39.0027C25.7255 38.7749 25.9672 38.547 26.2183 38.31C25.9765 38.0731 25.7255 37.827 25.4837 37.5809ZM25.9765 40.1238C25.8371 39.9779 25.6697 39.7957 25.4372 39.5313C25.2698 39.7319 25.1583 39.905 25.0188 40.0417C24.5074 40.5521 24.5074 40.5521 25.1118 41.0534C25.4 40.7435 25.679 40.4428 25.9765 40.1238ZM32.3647 27.0813C32.5692 27.3092 32.7738 27.5462 33.0249 27.8378C33.1272 27.2363 33.2108 26.7076 33.3038 26.179C32.9691 26.5071 32.6529 26.8079 32.3647 27.0813ZM5.35225 37.8726C5.02679 37.5171 4.72924 37.2072 4.44098 36.8882C4.19922 37.1708 4.44098 37.827 4.93381 38.2554C5.07329 38.1186 5.23136 37.9728 5.35225 37.8726ZM29.5658 36.3231C29.9006 35.7398 30.226 35.193 30.5422 34.637C30.5793 34.6826 30.6165 34.7282 30.663 34.7737C30.1888 35.1748 29.7146 35.5849 29.2125 36.0133C29.2496 36.0497 29.3705 36.1591 29.5658 36.3231ZM31.5929 32.4587C31.8068 31.8936 31.9927 31.4015 32.1601 30.9366C31.8068 31.2739 31.4627 31.6111 31.0815 31.9665C31.221 32.0941 31.3697 32.24 31.5929 32.4587ZM21.9502 27.4732C21.9131 27.4915 21.8852 27.5006 21.848 27.5188C22.0246 27.8652 22.2013 28.2024 22.4059 28.5943C22.564 28.4485 22.6755 28.3391 22.7592 28.2662C22.4803 27.9928 22.2106 27.7376 21.9502 27.4732ZM32.9412 21.6948C33.1551 21.9865 33.2945 22.1688 33.5084 22.4513C33.4712 22.0321 33.4433 21.7222 33.4154 21.3758C33.3224 21.4396 33.2666 21.467 33.2201 21.5034C33.0993 21.5855 32.9691 21.6766 32.9412 21.6948ZM1.94896 25.5957C1.90246 25.6231 1.85597 25.6413 1.80948 25.6686C1.92106 25.9238 2.03265 26.1881 2.18142 26.5345C2.36739 26.3249 2.45108 26.2337 2.46038 26.2155C2.27441 25.9876 2.11633 25.7962 1.94896 25.5957ZM24.4888 40.9987C24.3493 41.3542 24.2284 41.655 24.1075 41.9557C24.1261 41.9648 24.1447 41.974 24.1633 41.9831C24.3772 41.7734 24.6003 41.5638 24.8235 41.3542C24.7212 41.2357 24.6375 41.1537 24.4888 40.9987ZM24.87 33.2334C24.6375 33.0147 24.4423 32.8324 24.2563 32.6501C24.2377 32.6683 24.2098 32.6775 24.1912 32.6957C24.2749 32.9782 24.3679 33.2608 24.4702 33.5889C24.6189 33.4522 24.7305 33.3519 24.87 33.2334ZM24.7305 34.6097C24.7863 34.9742 24.8328 35.2203 24.8886 35.5575C25.0653 35.3935 25.1769 35.275 25.3163 35.1565C25.1211 34.9742 24.9723 34.8375 24.7305 34.6097Z" fill="#2F4237"/>
<path d="M17.5334 33.8441C17.5241 34.9742 17.022 36.2593 16.0084 37.3257C15.2088 38.1642 14.2231 38.3647 13.1259 37.9272C12.9585 37.8634 12.7818 37.7905 12.6238 37.6903C10.5781 36.3778 9.30415 34.5185 8.87641 32.1671C8.52307 30.2166 9.78768 28.3755 11.6567 28.0566C12.289 27.9472 13.005 28.0201 13.6094 28.2024C15.9619 28.9224 17.5427 31.1189 17.5334 33.8441ZM11.5823 35.6669C11.5451 35.7034 11.5079 35.7489 11.4707 35.7854C12.0379 36.4325 12.6702 36.9976 13.5257 37.2801C14.3254 37.5444 15.06 37.3895 15.5714 36.7333C17.5055 34.2542 17.2359 30.9822 14.2417 29.2687C13.8326 29.0318 13.6094 29.0865 13.3769 29.4875C13.3118 29.606 13.3211 29.7609 13.3025 29.8429C13.098 29.925 12.9399 29.9888 12.7725 30.0435C12.7074 30.0617 12.6145 30.0526 12.568 30.0161C12.5308 29.9797 12.5122 29.8794 12.5308 29.8247C12.568 29.7336 12.6423 29.6607 12.6981 29.5786C11.8613 28.649 11.666 28.5943 10.9221 29.0773C11.0337 29.2141 11.1453 29.3508 11.2011 29.4237C11.4707 29.3325 11.6753 29.2687 11.8706 29.1958C11.7962 29.3872 11.7218 29.5877 11.6009 29.9067C11.759 30.0343 12.0007 30.2166 12.2146 30.4354C12.289 30.5083 12.2797 30.6632 12.3076 30.7726C12.1867 30.7361 12.0379 30.7361 11.9636 30.6632C11.7497 30.4536 11.5637 30.2075 11.3405 29.9341C11.0337 30.2895 10.8198 30.5356 10.5781 30.809C10.7361 30.8728 10.8012 31.2648 11.1639 31.0096C11.1732 31.0004 11.3684 31.1918 11.3591 31.201C11.136 31.4835 11.4335 31.5929 11.5451 31.7569C11.6195 31.8663 11.6567 32.003 11.7032 32.1306C11.6567 32.1579 11.6009 32.1762 11.5544 32.2035C11.3591 32.0395 11.1639 31.8754 10.95 31.6931C10.7175 31.9301 10.4944 32.1579 10.3549 32.3129C10.5595 32.5772 10.7733 32.8506 10.9872 33.1241C11.0988 33.0147 11.1546 32.9327 11.2383 32.8962C11.3777 32.8233 11.5358 32.7777 11.6846 32.723C11.6288 32.8597 11.5823 33.0056 11.5079 33.1332C11.4521 33.2334 11.3591 33.3155 11.2569 33.4339C11.4893 33.6436 11.7125 33.835 11.9078 34.0537C11.9914 34.1448 12.01 34.2998 12.0658 34.4274C11.9264 34.3818 11.7497 34.3727 11.6474 34.2816C11.4335 34.0902 11.2662 33.8441 11.0709 33.6071C10.8663 33.7894 10.7454 33.8805 10.6524 33.999C10.5688 34.1084 10.513 34.2451 10.4479 34.3636C10.5595 34.3818 10.6803 34.3909 10.7826 34.4274C10.8756 34.4638 10.9779 34.5276 11.043 34.6097C11.2011 34.792 11.3498 34.9925 11.5544 35.2659C11.8334 34.9469 12.01 34.7282 12.2053 34.5459C12.2611 34.4912 12.3913 34.5276 12.4843 34.5185C12.475 34.6097 12.5029 34.7464 12.4471 34.792C12.2425 34.9742 12.01 35.1201 11.7776 35.2932C12.0007 35.5302 12.1216 35.6305 12.196 35.7581C12.2425 35.8401 12.2146 35.9586 12.2239 36.0679C12.1309 36.0497 12.0193 36.0497 11.945 35.995C11.8055 35.8948 11.7032 35.7672 11.5823 35.6669ZM10.6246 31.4653C10.3363 31.1554 10.0573 30.8546 9.77838 30.5538C9.45293 31.4015 9.49942 31.7296 10.0201 32.0941C10.2154 31.8845 10.4293 31.6658 10.6246 31.4653ZM10.2061 30.408C10.4944 30.171 10.7454 29.9523 10.9965 29.7427C10.8477 29.5969 10.7082 29.451 10.5595 29.3052C9.85277 29.8612 9.80628 30.0708 10.2061 30.408ZM10.1968 33.9626C10.3921 33.7347 10.5409 33.5707 10.671 33.4157C10.4386 33.1787 10.1968 32.9327 9.91786 32.641C9.68539 33.1605 10.0759 33.4795 10.1968 33.9626ZM13.0143 29.287C13.1445 29.1776 13.2654 29.0773 13.4606 28.9133C13.0887 28.8404 12.8097 28.7857 12.4006 28.7037C12.6702 28.9589 12.8376 29.1229 13.0143 29.287Z" fill="#2F4237"/>
<path d="M23.2428 17.1651C23.5496 17.4385 23.8472 17.7028 24.0982 17.9307C24.3307 17.8669 24.5167 17.8122 24.7026 17.7575C24.6468 17.9307 24.6003 18.0947 24.5446 18.2679C24.4795 18.3135 24.4051 18.3499 24.34 18.3955C24.526 18.5049 24.7305 18.596 24.8793 18.7327C24.9909 18.8421 25.0281 19.0244 25.0932 19.1702C24.9444 19.1155 24.7677 19.0882 24.6468 18.9879C24.4888 18.8512 24.3679 18.6598 24.2284 18.4866C23.9123 18.7965 23.6798 19.0244 23.4752 19.2249C23.5868 19.4527 23.6798 19.6624 23.7728 19.8629C23.5496 19.79 23.3357 19.7079 23.0382 19.6077C22.9917 19.6624 22.8708 19.7808 22.6662 19.9905C23.0103 20.2821 23.3357 20.5556 23.6426 20.8472C23.717 20.9201 23.717 21.0751 23.7449 21.1844C23.624 21.1571 23.4752 21.1662 23.4008 21.0933C23.1033 20.8108 22.8243 20.5009 22.6104 20.273C22.3129 20.3459 22.1176 20.3915 21.9223 20.4371C21.9874 20.2639 22.0525 20.0998 22.1083 19.954C22.0432 19.7626 21.9781 19.5712 21.9131 19.3707C22.099 19.4345 22.2757 19.4983 22.564 19.5986C22.6104 19.5348 22.7127 19.3981 22.8336 19.2249C22.564 18.997 22.2664 18.7327 21.9223 18.4411C21.7364 18.6233 21.5039 18.8603 21.2436 19.0699C21.1599 19.1337 21.0111 19.1337 20.8995 19.1611C20.9367 19.0426 20.9274 18.8968 21.0018 18.8147C21.225 18.5869 21.4853 18.3864 21.6527 18.2405C21.569 17.9671 21.5225 17.8122 21.476 17.6572C21.6341 17.6846 21.7922 17.7119 22.0153 17.7393C22.3129 17.4203 22.6662 17.0466 23.0289 16.6729C22.9917 16.5453 22.9266 16.3357 22.8708 16.1352C23.0568 16.2172 23.2428 16.2901 23.5403 16.4177C23.6426 16.2901 23.7821 16.0805 23.9587 15.9255C24.061 15.8344 24.2284 15.8253 24.3679 15.7797C24.3214 15.9073 24.3028 16.0622 24.2191 16.1534C24.061 16.3357 23.8565 16.4815 23.5868 16.7185C23.8658 16.9554 24.0889 17.1286 24.2935 17.3291C24.3586 17.3929 24.3493 17.5388 24.3679 17.639C24.2563 17.6208 24.1261 17.6299 24.0517 17.5752C23.8844 17.4476 23.7542 17.2653 23.5868 17.1377C23.5031 17.0739 23.3636 17.083 23.2428 17.0648C23.2335 17.1104 23.2335 17.1377 23.2428 17.1651ZM23.0847 17.4294C22.8243 17.6663 22.5547 17.9033 22.285 18.1494C22.5547 18.4228 22.8336 18.7054 23.1033 18.9697C23.3543 18.7327 23.5961 18.5049 23.8565 18.2588C23.5961 17.9762 23.3171 17.6755 23.0847 17.4294Z" fill="#2F4237"/>
<path d="M34.4755 12.0885C34.2058 11.9426 34.0384 11.8515 33.8711 11.7512C34.057 11.6692 34.2523 11.5872 34.522 11.4687C34.4941 10.9309 34.4569 10.3203 34.429 9.76433C34.2244 9.65496 34.0756 9.57293 33.9268 9.50002C34.0384 9.40888 34.15 9.30862 34.3453 9.15368C34.3174 8.83468 34.2895 8.41543 34.2523 7.99617C34.243 7.94149 34.1779 7.8868 34.1221 7.84123C34.0105 7.74097 33.8989 7.64983 33.7874 7.55869C33.9268 7.51312 34.0756 7.45843 34.1686 7.43109C34.2988 6.82955 34.429 6.2189 34.5499 5.61736C34.5684 5.53534 34.5313 5.43508 34.4941 5.34394C34.4476 5.21634 34.3918 5.09785 34.336 4.97937C34.4848 4.9976 34.6428 5.00671 34.8288 5.02494C34.9683 4.87 35.1357 4.66949 35.3123 4.47809C35.3216 4.46897 35.3309 4.45074 35.3495 4.45074C35.6564 4.35049 35.0985 3.80364 35.5634 3.93123C35.8888 4.02238 36.0748 3.89478 36.3259 3.84009C36.5769 3.78541 36.8373 3.71249 37.0977 3.69426C37.2093 3.68515 37.3301 3.82186 37.4417 3.88566C37.3301 3.94035 37.2278 4.00415 37.107 4.0406C36.7722 4.12263 36.4282 4.19555 36.1213 4.25935C36.1399 4.56923 36.1492 4.78797 36.1678 5.01583C36.0097 4.90645 35.861 4.78797 35.6471 4.64214C35.4797 4.84266 35.2844 5.08874 35.0799 5.32571C35.2193 5.51711 35.3588 5.66293 35.4518 5.82699C35.4983 5.90902 35.4611 6.03662 35.4611 6.14599C35.3588 6.10953 35.2472 6.08219 35.1636 6.0275C35.0799 5.97282 35.0241 5.87256 34.8474 5.67205C34.7451 6.37384 34.6614 6.95715 34.587 7.44021C34.8567 7.6316 35.0241 7.7592 35.1915 7.87769C35.0241 7.93237 34.8567 7.98706 34.6242 8.06909C34.6521 8.3972 34.6893 8.79822 34.7172 9.15368C34.9218 9.24482 35.0892 9.32685 35.2472 9.39976C35.1171 9.50002 34.9869 9.59116 34.7916 9.73699C34.8195 10.2383 34.8195 10.8307 34.8846 11.414C34.9032 11.5598 35.1078 11.6874 35.2658 11.8788C35.1264 11.9426 34.9962 11.9973 34.8753 12.052C34.7544 12.4439 34.6149 12.8449 34.4941 13.246C34.4755 13.3189 34.4755 13.41 34.4941 13.492C34.5313 13.6196 34.5777 13.7472 34.6242 13.8748C34.4755 13.8566 34.3174 13.8384 34.1686 13.8293C33.9361 14.0298 33.6944 14.2485 33.4433 14.4399C33.3782 14.4855 33.2573 14.4581 33.1644 14.4673C33.1923 14.367 33.183 14.2303 33.2387 14.1665C33.4247 13.966 33.6479 13.7928 33.8153 13.647C33.6851 13.4647 33.5828 13.3098 33.4805 13.1548C33.6665 13.1548 33.8525 13.1548 34.1314 13.1548C34.243 12.7994 34.3639 12.4166 34.4755 12.0885Z" fill="#2F4237"/>
<path d="M32.2903 7.95972C32.2066 6.87512 32.1229 5.66293 32.4577 4.46897C33.0807 2.25422 35.4053 0.723032 37.6649 1.04203C40.0081 1.37014 41.8028 3.40261 41.7749 5.72673C41.7749 6.18244 41.7005 6.63816 41.6912 7.09387C41.6633 8.05086 42.0817 8.72531 43.0116 9.07165C43.5788 9.28128 44.146 9.4909 44.6853 9.7461C46.3033 10.5117 47.168 12.0702 46.9728 13.811C46.8054 15.324 45.5501 16.6364 43.8949 17.0192C43.1046 17.2015 42.3328 17.1195 41.5703 16.8278C40.9659 16.6 40.3615 16.3448 39.7385 16.1716C38.7528 15.8982 37.8044 16.0622 36.921 16.5635C35.6936 17.2471 34.8195 18.2952 33.964 19.3616C33.8989 19.4436 33.8804 19.5894 33.8989 19.6988C34.6056 22.989 34.2802 26.2337 33.3875 29.4328C31.9183 34.7008 29.1381 39.1759 24.8607 42.7031C24.1447 43.2955 23.3357 43.7786 22.564 44.3163C22.5175 44.3528 22.471 44.3983 22.4245 44.4348C19.3745 47.1782 15.869 47.6157 12.103 46.2485C8.9694 45.1184 6.70054 42.9218 4.9989 40.1511C3.27866 37.3439 2.08844 34.3271 1.40964 31.1189C0.93541 28.8768 0.795931 26.6165 1.40964 24.3835C2.04194 22.0867 3.49253 20.4826 5.6777 19.4436C11.0244 16.919 16.6686 15.242 22.4338 13.9386C24.1447 13.5558 25.8743 13.3006 27.641 13.5194C28.0408 13.565 28.4407 13.6196 28.8219 13.7381C29.3891 13.9204 29.8913 13.811 30.3655 13.5103C31.5185 12.772 32.1601 11.7239 32.2624 10.3841C32.3368 9.60939 32.2903 8.84379 32.2903 7.95972ZM6.47738 40.698C6.42158 40.7526 6.35649 40.8073 6.3007 40.862C6.87722 41.5 7.41653 42.1745 8.03954 42.776C10.3828 45.0181 13.1073 46.3852 16.4827 46.2303C19.9139 46.0753 22.6383 44.0793 23.7356 40.8985C24.3958 38.9936 24.4795 37.0523 24.0517 35.1018C23.187 31.2283 21.4574 27.7467 19.0026 24.6114C17.645 22.8797 15.9712 21.4943 13.9627 20.5556C13.6094 20.911 13.2747 21.2573 12.9399 21.6037C12.9585 21.6493 12.9771 21.6948 12.9957 21.7404C13.1073 21.7131 13.2375 21.7222 13.3211 21.6675C13.4606 21.5763 13.5536 21.4214 13.6931 21.3303C13.7768 21.2756 13.907 21.3029 14.0185 21.2938C13.9999 21.3849 14.0092 21.5125 13.9535 21.5672C13.7768 21.7313 13.5629 21.868 13.3676 22.0138C13.4141 22.0412 13.4699 22.0685 13.5164 22.0867C13.5908 22.2781 13.6652 22.4695 13.7489 22.6609C13.5536 22.5971 13.3583 22.5333 13.1817 22.4695C12.9771 22.5333 12.7539 22.6063 12.5308 22.6792C12.633 22.506 12.726 22.3419 12.8283 22.1688C12.8376 22.1414 12.8469 22.1141 12.8469 22.0867C12.8004 22.1232 12.7632 22.1688 12.7167 22.2052C12.2425 21.7039 11.7683 21.2027 11.2662 20.674C10.6524 21.2847 9.98295 21.9591 9.31345 22.6427C9.35064 22.6883 9.41573 22.7339 9.45293 22.7977C9.53662 22.9435 9.60171 23.0893 9.67609 23.2442C9.50872 23.1804 9.31345 23.1531 9.19257 23.0346C8.72764 22.5971 8.2906 22.1232 7.77918 21.6128C7.44443 21.9683 7.16547 22.2781 6.86792 22.5607C6.77493 22.6518 6.61686 22.6701 6.48667 22.7156C6.53317 22.5789 6.54247 22.4057 6.64475 22.3146C6.94231 22.0321 7.26776 21.7769 7.58391 21.5125C7.23056 21.1571 6.9702 20.8928 6.79353 20.7196C6.22631 21.2756 5.6777 21.8224 5.23136 22.2599C5.6684 22.7247 6.15193 23.2442 6.61686 23.7364C6.74704 23.7 6.90511 23.6544 7.07249 23.6088C7.03529 23.782 6.9981 23.9552 6.93301 24.2195C7.0167 24.2924 7.17477 24.3926 7.29565 24.5294C7.35144 24.6023 7.33285 24.7299 7.35144 24.8392C7.24916 24.8119 7.10038 24.821 7.03529 24.7572C6.90511 24.6205 6.81213 24.4382 6.74704 24.3471C6.19842 24.8848 5.75209 25.3223 5.30575 25.7598C5.38944 25.8509 5.52892 25.9603 5.60331 26.097C5.6312 26.1517 5.52892 26.2884 5.48243 26.3795C5.21277 26.1881 4.90591 26.0332 4.67345 25.8053C4.47818 25.6231 4.3573 25.3679 4.20852 25.1491C3.81798 25.5319 3.49253 25.8509 3.21357 26.1243C3.6506 26.5527 4.07834 26.972 4.47818 27.3639C4.64555 27.3001 4.82223 27.2272 5.0082 27.1542C4.94311 27.3548 4.87802 27.5553 4.82223 27.7467C4.85942 27.8925 4.89661 28.0474 4.93381 28.2024C4.75714 28.1568 4.58976 28.1112 4.47818 28.0839C3.97605 28.5669 3.47393 29.0409 2.9997 29.4875C3.39954 29.8976 3.81798 30.3169 4.25501 30.7544C4.36659 30.645 4.46888 30.5265 4.59906 30.4536C4.69204 30.3989 4.83152 30.3898 4.94311 30.3624C4.90591 30.4809 4.89661 30.6085 4.83152 30.7088C4.75714 30.8364 4.62695 30.9275 4.58976 30.9731C4.63625 31.201 4.66415 31.3468 4.69204 31.4926C4.53397 31.4653 4.36659 31.4288 4.14343 31.3924C3.81798 31.7387 3.44603 32.1306 3.12058 32.4678C3.58551 32.9509 4.05044 33.4248 4.55257 33.9443C4.82223 33.6709 5.07329 33.3884 5.36154 33.1241C5.43593 33.0511 5.59401 33.0603 5.70559 33.0329C5.6684 33.1514 5.6777 33.2972 5.60331 33.3792C5.34295 33.6618 5.06399 33.9079 4.73854 34.2269C5.04539 34.5094 5.32435 34.7464 5.57541 35.0107C5.6684 35.111 5.69629 35.275 5.75209 35.4117C5.61261 35.3661 5.43593 35.357 5.34295 35.2659C5.07329 35.0016 4.84082 34.7008 4.58976 34.4092C4.57116 34.4638 4.56186 34.5185 4.54327 34.5732C4.36659 34.6917 4.18062 34.8011 4.07834 34.8649C4.20852 35.1474 4.3015 35.3388 4.38519 35.5302C4.16202 35.4573 3.94816 35.3844 3.69709 35.3023C3.51112 35.512 3.60411 35.6487 4.58046 36.4052C4.74784 36.1955 4.92451 35.9586 5.11978 35.7489C5.19417 35.676 5.34295 35.6851 5.46383 35.6578C5.42663 35.7763 5.42663 35.9221 5.35225 35.995C5.14768 36.1955 4.91521 36.3687 4.71994 36.5237C5.10118 36.9247 5.39874 37.2254 5.6498 37.4898C5.90086 37.3622 6.12403 37.2528 6.3379 37.1434C6.24491 37.3713 6.16122 37.5991 6.06824 37.827C6.01245 37.8543 5.95665 37.8817 5.89156 37.909C6.10543 38.064 6.3193 38.2098 6.51457 38.383C6.57036 38.4285 6.55176 38.5652 6.57036 38.6564C6.46808 38.6473 6.3193 38.6746 6.26351 38.6199C6.08683 38.4285 5.93806 38.2098 5.78928 38.0093C5.76138 38.0548 5.73349 38.1095 5.70559 38.1551C5.54752 38.2918 5.38944 38.4194 5.26856 38.5197C5.36154 39.0301 6.20772 39.0756 5.95665 39.6863C6.10543 39.8686 6.23561 40.0417 6.43088 40.2696C6.59826 40.0782 6.70984 39.9141 6.85862 39.7865C6.93301 39.7227 7.06319 39.7319 7.17477 39.7045C7.15617 39.8139 7.17477 39.9415 7.11898 40.0144C7.0074 40.1693 6.84932 40.2969 6.62615 40.5339C6.9888 40.8529 7.34215 41.1446 7.6769 41.4636C7.76058 41.5456 7.76988 41.7096 7.80708 41.8372C7.6769 41.7917 7.50952 41.7826 7.42583 41.7005C7.07249 41.3633 6.77493 41.0261 6.47738 40.698ZM23.6984 29.7336C23.7449 29.7336 23.8007 29.7245 23.8472 29.7245C23.8379 29.6151 23.8472 29.4966 23.8193 29.3872C23.7914 29.2596 23.7356 29.132 23.6891 29.0044C23.8286 29.05 23.9773 29.0956 24.1168 29.1503C24.1633 29.1685 24.2098 29.2141 24.154 29.1776C24.4516 29.0773 24.6561 29.0135 24.87 28.9406C24.777 29.1411 24.6933 29.3417 24.5632 29.6424C24.7026 29.77 24.9165 29.925 25.0932 30.1072C25.1583 30.1802 25.1583 30.3078 25.1862 30.4171C25.0653 30.3898 24.9072 30.408 24.8328 30.3442C24.6375 30.171 24.4795 29.9614 24.2842 29.7336C24.1447 29.8612 24.061 29.9341 23.9773 30.007C24.1447 30.1802 24.2842 30.2986 24.3958 30.4445C24.4423 30.5083 24.4237 30.6268 24.433 30.7179C24.34 30.7088 24.2191 30.7361 24.154 30.6814C24.0052 30.5812 23.8844 30.4445 23.6984 30.2713C23.5961 30.4262 23.4101 30.5903 23.438 30.6814C23.5775 31.1007 23.7821 31.4926 24.0052 32.003C24.4144 31.5838 24.7119 31.2556 25.0374 30.9458C25.1211 30.8637 25.2698 30.8637 25.3907 30.8182C25.3535 30.9458 25.3628 31.1098 25.2884 31.1918C24.9816 31.5108 24.6561 31.8025 24.3028 32.1306C24.6282 32.3949 24.8979 32.6228 25.2513 32.9144C25.2791 32.878 25.3535 32.7048 25.4744 32.5954C25.5674 32.5134 25.7255 32.5043 25.8557 32.4587C25.8092 32.5863 25.8092 32.7504 25.7255 32.8324C25.3721 33.1879 24.9909 33.5251 24.6096 33.8714C24.963 34.2178 25.2698 34.5094 25.6325 34.874C25.8743 34.6097 26.0974 34.3362 26.3578 34.0902C26.4322 34.0172 26.5902 34.0172 26.7111 33.9808C26.6832 34.0993 26.6925 34.2451 26.6181 34.318C26.3671 34.5823 26.0974 34.8193 25.8464 35.0472C26.0881 35.357 26.2834 35.6122 26.4787 35.8674C26.4229 35.913 26.3764 35.9586 26.3206 36.0041C26.0695 35.8036 25.8185 35.594 25.5767 35.3935C24.7305 36.0679 24.7212 36.3869 25.5302 36.9429C25.8743 36.6057 26.209 36.2502 26.5716 35.913C26.6646 35.8219 26.8413 35.8219 26.9808 35.7763C26.9343 35.9039 26.9157 36.0588 26.8227 36.15C26.4601 36.4963 26.0788 36.8244 25.772 37.0887C26.0788 37.4533 26.302 37.7085 26.5066 37.9637C26.6925 37.8088 26.832 37.6903 26.8971 37.6356C26.8506 37.3895 26.8227 37.2254 26.7948 37.0614C26.9622 37.1434 27.1482 37.1981 27.2783 37.3166C27.5759 37.59 27.8456 37.8999 28.171 38.228C28.5987 37.6174 28.9707 37.107 29.2775 36.6695C29.1102 36.4325 28.9893 36.2593 28.8219 36.0224C28.5801 36.2958 28.4221 36.5054 28.2268 36.6695C28.1245 36.7606 27.9571 36.7697 27.8084 36.8153C27.8642 36.6786 27.8921 36.5054 27.985 36.4143C28.1803 36.2229 28.4128 36.0771 28.6917 35.8674C28.4593 35.6851 28.3384 35.6305 28.2733 35.5302C28.1896 35.4117 28.1524 35.2659 28.0966 35.1292C28.2361 35.1748 28.3849 35.2021 28.5058 35.275C28.6173 35.3388 28.7103 35.4482 28.8219 35.5484C29.073 35.3023 29.3054 35.0654 29.5751 34.792C29.2125 34.4456 28.8405 34.1084 28.4872 33.7438C28.4128 33.6709 28.4128 33.516 28.3756 33.4066C28.4965 33.4339 28.6452 33.4248 28.7196 33.4977C29.0823 33.8441 29.4263 34.2178 29.789 34.5914C30.0865 34.2907 30.3469 34.0446 30.5886 33.8076C30.3283 33.5524 30.0772 33.3063 29.8634 33.1058C29.6867 33.1423 29.5286 33.1787 29.3705 33.2061C29.417 33.042 29.4635 32.8689 29.5286 32.6592C29.4449 32.5772 29.3054 32.4952 29.2218 32.3676C29.1474 32.2673 29.1381 32.1215 29.1009 31.9939C29.2311 32.0395 29.3705 32.0668 29.4821 32.1397C29.6216 32.2309 29.7239 32.3585 29.789 32.4131C30.0307 32.1944 30.2446 32.003 30.5143 31.766C30.226 31.5108 29.9377 31.2648 29.6681 30.9913C29.5937 30.9184 29.603 30.7726 29.5658 30.6541C29.6867 30.6814 29.8355 30.6814 29.9098 30.7544C30.1981 31.0278 30.4492 31.3194 30.663 31.5382C31.1466 31.0825 31.5464 30.6906 31.9183 30.3351C31.7045 30.0981 31.472 29.8338 31.1745 29.5057C30.9885 29.7153 30.849 29.925 30.663 30.0799C30.5515 30.1802 30.3655 30.1984 30.2167 30.2622C30.2725 30.1255 30.3097 29.9614 30.4027 29.8612C30.5793 29.6789 30.7932 29.5331 30.9885 29.369C30.9327 29.3508 30.8769 29.3234 30.8211 29.3052C30.7467 29.1047 30.6816 28.8951 30.6072 28.6945C30.8118 28.7857 31.0257 28.8677 31.2117 28.9497C31.6022 28.5852 32.0206 28.1842 32.4298 27.8014C32.281 27.6282 32.1415 27.455 32.0485 27.3456C31.8068 27.4186 31.658 27.4641 31.5092 27.5097C31.5371 27.3456 31.565 27.1816 31.6022 26.9446C31.5557 26.899 31.4441 26.7988 31.3511 26.6803C31.2953 26.6074 31.2953 26.498 31.2767 26.4069C31.3883 26.416 31.5092 26.3887 31.5929 26.4342C31.7324 26.5163 31.844 26.6438 31.9369 26.735C32.3461 26.3522 32.718 25.9967 33.0435 25.6777C32.6994 25.3223 32.3647 24.9851 32.0764 24.6843C31.8812 24.7481 31.7138 24.7937 31.5371 24.8484C31.5929 24.657 31.6487 24.4656 31.6952 24.3197C31.6301 24.1283 31.5743 23.9552 31.5185 23.7911C31.7138 23.8458 31.909 23.9005 32.095 23.9552C32.4856 23.5815 32.8947 23.1896 33.3503 22.7612C32.9598 22.6063 32.904 22.0138 32.3275 22.1505C32.3089 22.1597 32.2345 22.0047 32.2066 21.9136C32.188 21.8407 32.2066 21.7495 32.1787 21.6766C32.1322 21.5217 32.0671 21.3758 32.0113 21.23C32.1787 21.312 32.3368 21.3849 32.5042 21.467C32.5321 21.4761 32.5599 21.4852 32.6436 21.5125C32.7645 21.3758 32.8947 21.2027 33.0621 21.066C33.3596 20.8199 33.3503 20.6102 33.0714 20.355C32.7645 20.0816 32.467 19.79 32.188 19.4801C32.1229 19.4072 32.1322 19.2522 32.1136 19.1337C32.2159 19.1611 32.3647 19.1611 32.4298 19.234C32.6529 19.4618 32.8389 19.7079 33.0435 19.954C33.1179 19.8993 33.183 19.8355 33.2573 19.7808C33.0528 19.4618 32.8761 19.1246 32.6343 18.833C32.4205 18.5595 32.1322 18.3408 31.8997 18.0765C31.844 18.0218 31.8719 17.8942 31.8626 17.8031C31.9555 17.8122 32.0764 17.7848 32.1415 17.8304C32.3275 17.9762 32.4949 18.1494 32.6622 18.3043C32.0299 16.363 30.7746 15.0141 28.7661 14.449C26.9808 13.9386 25.1676 14.0571 23.3822 14.4035C19.6256 15.1326 15.9619 16.1898 12.3541 17.4385C11.3219 17.7939 10.3084 18.1767 9.28555 18.5504C11.9171 18.7054 14.2603 19.5439 16.3711 21.0477C18.4726 22.5516 20.0533 24.502 21.29 26.5436C21.6155 26.6347 21.8015 26.6803 22.1083 26.7623C22.1734 26.6894 22.285 26.5163 22.4338 26.3887C22.4989 26.334 22.6383 26.3522 22.7499 26.3431C22.7313 26.4342 22.7406 26.5618 22.6848 26.6165C22.5361 26.7623 22.3594 26.8717 22.285 26.9264C22.6011 27.3001 22.8429 27.5735 23.0847 27.856C23.1684 27.7831 23.2242 27.7011 23.3078 27.6646C23.438 27.5917 23.5868 27.5553 23.7263 27.5006C23.6798 27.6373 23.6612 27.8105 23.5682 27.9016C23.2892 28.1842 22.9824 28.4302 22.6755 28.6945C23.0847 29.1411 23.3915 29.4419 23.6984 29.7336ZM33.6293 18.5869C33.8896 18.2952 34.0942 18.0036 34.3546 17.7666C34.9218 17.238 35.4797 16.6729 36.112 16.2172C37.4882 15.2237 38.9946 15.0506 40.5939 15.6703C41.1426 15.88 41.6819 16.1078 42.2491 16.2719C43.9228 16.7458 45.8105 15.643 46.201 13.9842C46.5357 12.5715 45.7733 11.0403 44.3878 10.3932C43.6904 10.0651 42.9651 9.79167 42.277 9.45445C41.2262 8.92582 40.8171 8.06909 40.9659 6.9207C41.031 6.43764 41.0589 5.95459 41.0403 5.47154C40.9752 3.68515 39.4502 2.02636 37.6556 1.76205C35.8796 1.49774 33.9361 2.61879 33.3038 4.26846C32.9133 5.27102 32.9319 6.31916 32.9784 7.36729C33.0156 8.27871 33.0714 9.19014 33.0342 10.0924C32.9598 11.9153 32.1787 13.3553 30.4957 14.2576C30.4771 14.2667 30.4678 14.3032 30.4585 14.3305C32.0113 15.4516 32.6808 16.2628 33.6293 18.5869ZM6.62615 19.8538C7.02599 20.2639 7.42583 20.674 7.84427 21.1024C8.03954 20.911 8.22551 20.6832 8.44868 20.5009C8.54167 20.4188 8.69974 20.4188 8.82992 20.3824C8.79273 20.5009 8.78343 20.6467 8.69974 20.7287C8.48587 20.9475 8.24411 21.1389 8.00235 21.3485C8.38359 21.7222 8.70904 22.0321 8.9601 22.2781C9.6668 21.6219 10.3642 20.9657 11.0151 20.355C10.8105 20.1272 10.6246 19.9176 10.3828 19.6441C10.1317 19.9084 9.91786 20.1728 9.67609 20.4006C9.60171 20.4735 9.44363 20.4644 9.32275 20.4826C9.35994 20.3642 9.35994 20.2183 9.43433 20.1454C9.6296 19.9631 9.86207 19.8082 10.0759 19.6441C10.0387 19.5894 9.99225 19.5348 9.95505 19.4892C8.79273 19.3889 7.6583 19.4983 6.62615 19.8538ZM2.43248 26.7532C2.74864 27.0175 3.0276 27.2454 3.27866 27.4824C3.32515 27.5279 3.29725 27.6646 3.29725 27.7558C3.21357 27.7467 3.10198 27.774 3.05549 27.7284C2.63705 27.373 2.21862 27.0084 1.81878 26.6621C1.59561 28.0748 1.75369 28.5669 2.59056 29.1229C3.10198 28.649 3.60411 28.1842 4.10623 27.7102C3.6692 27.3001 3.24146 26.8899 2.79513 26.4616C2.73004 26.5071 2.63705 26.5892 2.43248 26.7532ZM3.49253 21.9865C2.55337 22.9799 2.55337 23.0984 3.49253 24.0007C3.54832 24.0554 3.60411 24.101 3.62271 24.1192C4.06904 23.6544 4.50607 23.2078 4.95241 22.743C4.85942 22.6609 4.78503 22.588 4.64555 22.4604C4.47818 22.6609 4.3294 22.8523 4.15273 23.0255C4.10623 23.0711 3.96675 23.0255 3.86447 23.0164C3.88307 22.9344 3.86447 22.8341 3.91096 22.7794C4.06904 22.5971 4.23641 22.4331 4.42239 22.2417C4.3015 22.1323 4.20852 22.0412 4.13413 21.9774C3.91096 21.9956 3.73429 22.5333 3.49253 21.9865ZM2.48828 23.5997C1.86527 24.9486 1.90246 25.1765 2.78583 25.8053C3.12988 25.4772 3.46463 25.1582 3.75289 24.8848C3.34375 24.4747 2.93461 24.0463 2.48828 23.5997ZM6.14263 24.1192C5.82647 23.7911 5.49172 23.4448 5.06399 22.989C4.69204 23.4356 4.3108 23.9096 3.91096 24.3926C3.92956 24.4018 4.02255 24.4929 4.16202 24.6205C4.49677 24.2742 4.81293 23.9369 5.14768 23.6179C5.23136 23.5359 5.39874 23.545 5.51962 23.5177C5.48243 23.6362 5.47313 23.7729 5.39874 23.8549C5.07329 24.1921 4.72924 24.5111 4.42239 24.8028C4.60836 25.0215 4.74784 25.1947 4.88732 25.3496C5.35225 24.903 5.78928 24.4656 6.14263 24.1192ZM3.94816 30.9458C3.71569 30.7452 3.48323 30.5447 3.25076 30.3442C3.0276 30.1437 2.81373 29.9341 2.60916 29.7427C1.56772 30.4354 2.14423 31.1645 3.07409 31.8298C3.34375 31.5655 3.61341 31.2921 3.94816 30.9458ZM25.7627 39.3673C25.93 39.5313 26.0974 39.7045 26.2648 39.8686C26.5995 39.7319 26.7204 39.2488 27.1668 39.4493C27.1854 39.4584 27.2318 39.3946 27.2597 39.3582C27.4829 39.0939 27.7061 38.8295 27.9292 38.5743C27.6782 38.3374 27.4643 38.1278 27.204 37.8817C27.0831 38.0184 26.9529 38.1642 26.8599 38.2736C26.9157 38.465 26.9622 38.6199 27.0087 38.7749C26.832 38.7475 26.6646 38.7202 26.4694 38.6837C26.2741 38.866 26.0509 39.0939 25.7627 39.3673ZM12.0193 19.8264C11.8799 20.0269 11.7776 20.1819 11.7125 20.2821C12.0565 20.6285 12.382 20.9566 12.6423 21.2118C12.9399 20.9566 13.2654 20.6923 13.628 20.3733C13.0329 20.1728 12.5122 19.9905 12.0193 19.8264ZM32.9505 28.2206C32.904 28.2115 32.8482 28.2115 32.8017 28.2024C32.3926 28.6034 31.9834 29.0044 31.6022 29.3781C31.844 29.6333 32.095 29.8976 32.4205 30.2348C32.6064 29.5148 32.7831 28.8677 32.9505 28.2206ZM6.41229 20.2457C5.71489 19.9176 5.38014 20.5373 4.88732 20.674C5.21277 21.2573 4.51537 21.312 4.43168 21.7131C4.50607 21.786 4.59906 21.8771 4.66415 21.95C5.23136 21.3849 5.77998 20.8563 6.41229 20.2457ZM3.60411 34.555C3.81798 34.4274 4.01325 34.318 4.19922 34.1995C4.13413 34.2178 4.07834 34.236 4.01325 34.2542C3.54832 33.7894 3.07409 33.3246 2.65565 32.9053C2.73004 33.5707 3.03689 34.1904 3.60411 34.555ZM33.5177 23.3627C33.1086 23.7455 32.7552 24.0645 32.5135 24.2924C32.8203 24.6205 33.1086 24.9395 33.4154 25.2676C33.4526 24.6478 33.4805 24.0281 33.5177 23.3627ZM30.1888 32.8051C30.4678 33.0785 30.7374 33.3519 31.0164 33.6162C31.5278 32.7048 31.5836 32.8597 30.7839 32.2217C30.5793 32.4223 30.3748 32.6228 30.1888 32.8051ZM25.4837 37.5809C24.777 38.1551 24.7863 38.5744 25.4837 39.0027C25.7255 38.7749 25.9672 38.547 26.2183 38.31C25.9765 38.0731 25.7255 37.827 25.4837 37.5809ZM25.9765 40.1238C25.8371 39.9779 25.6697 39.7957 25.4372 39.5313C25.2698 39.7319 25.1583 39.905 25.0188 40.0417C24.5074 40.5521 24.5074 40.5521 25.1118 41.0534C25.4 40.7435 25.679 40.4428 25.9765 40.1238ZM32.3647 27.0813C32.5692 27.3092 32.7738 27.5462 33.0249 27.8378C33.1272 27.2363 33.2108 26.7076 33.3038 26.179C32.9691 26.5071 32.6529 26.8079 32.3647 27.0813ZM5.35225 37.8726C5.02679 37.5171 4.72924 37.2072 4.44098 36.8882C4.19922 37.1708 4.44098 37.827 4.93381 38.2554C5.07329 38.1186 5.23136 37.9728 5.35225 37.8726ZM29.5658 36.3231C29.9006 35.7398 30.226 35.193 30.5422 34.637C30.5793 34.6826 30.6165 34.7282 30.663 34.7737C30.1888 35.1748 29.7146 35.5849 29.2125 36.0133C29.2496 36.0497 29.3705 36.1591 29.5658 36.3231ZM31.5929 32.4587C31.8068 31.8936 31.9927 31.4015 32.1601 30.9366C31.8068 31.2739 31.4627 31.6111 31.0815 31.9665C31.221 32.0941 31.3697 32.24 31.5929 32.4587ZM21.9502 27.4732C21.9131 27.4915 21.8852 27.5006 21.848 27.5188C22.0246 27.8652 22.2013 28.2024 22.4059 28.5943C22.564 28.4485 22.6755 28.3391 22.7592 28.2662C22.4803 27.9928 22.2106 27.7376 21.9502 27.4732ZM32.9412 21.6948C33.1551 21.9865 33.2945 22.1688 33.5084 22.4513C33.4712 22.0321 33.4433 21.7222 33.4154 21.3758C33.3224 21.4396 33.2666 21.467 33.2201 21.5034C33.0993 21.5855 32.9691 21.6766 32.9412 21.6948ZM1.94896 25.5957C1.90246 25.6231 1.85597 25.6413 1.80948 25.6686C1.92106 25.9238 2.03265 26.1881 2.18142 26.5345C2.36739 26.3249 2.45108 26.2337 2.46038 26.2155C2.27441 25.9876 2.11633 25.7962 1.94896 25.5957ZM24.4888 40.9987C24.3493 41.3542 24.2284 41.655 24.1075 41.9557C24.1261 41.9648 24.1447 41.974 24.1633 41.9831C24.3772 41.7734 24.6003 41.5638 24.8235 41.3542C24.7212 41.2357 24.6375 41.1537 24.4888 40.9987ZM24.87 33.2334C24.6375 33.0147 24.4423 32.8324 24.2563 32.6501C24.2377 32.6683 24.2098 32.6775 24.1912 32.6957C24.2749 32.9782 24.3679 33.2608 24.4702 33.5889C24.6189 33.4522 24.7305 33.3519 24.87 33.2334ZM24.7305 34.6097C24.7863 34.9742 24.8328 35.2203 24.8886 35.5575C25.0653 35.3935 25.1769 35.275 25.3163 35.1565C25.1211 34.9742 24.9723 34.8375 24.7305 34.6097Z" stroke="#2F4237" stroke-width="0.2"/>
<path d="M17.5334 33.8441C17.5241 34.9742 17.022 36.2593 16.0084 37.3257C15.2088 38.1642 14.2231 38.3647 13.1259 37.9272C12.9585 37.8634 12.7818 37.7905 12.6238 37.6903C10.5781 36.3778 9.30415 34.5185 8.87641 32.1671C8.52307 30.2166 9.78768 28.3755 11.6567 28.0566C12.289 27.9472 13.005 28.0201 13.6094 28.2024C15.9619 28.9224 17.5427 31.1189 17.5334 33.8441ZM11.5823 35.6669C11.5451 35.7034 11.5079 35.7489 11.4707 35.7854C12.0379 36.4325 12.6702 36.9976 13.5257 37.2801C14.3254 37.5444 15.06 37.3895 15.5714 36.7333C17.5055 34.2542 17.2359 30.9822 14.2417 29.2687C13.8326 29.0318 13.6094 29.0865 13.3769 29.4875C13.3118 29.606 13.3211 29.7609 13.3025 29.8429C13.098 29.925 12.9399 29.9888 12.7725 30.0435C12.7074 30.0617 12.6145 30.0526 12.568 30.0161C12.5308 29.9797 12.5122 29.8794 12.5308 29.8247C12.568 29.7336 12.6423 29.6607 12.6981 29.5786C11.8613 28.649 11.666 28.5943 10.9221 29.0773C11.0337 29.2141 11.1453 29.3508 11.2011 29.4237C11.4707 29.3325 11.6753 29.2687 11.8706 29.1958C11.7962 29.3872 11.7218 29.5877 11.6009 29.9067C11.759 30.0343 12.0007 30.2166 12.2146 30.4354C12.289 30.5083 12.2797 30.6632 12.3076 30.7726C12.1867 30.7361 12.0379 30.7361 11.9636 30.6632C11.7497 30.4536 11.5637 30.2075 11.3405 29.9341C11.0337 30.2895 10.8198 30.5356 10.5781 30.809C10.7361 30.8728 10.8012 31.2648 11.1639 31.0096C11.1732 31.0004 11.3684 31.1918 11.3591 31.201C11.136 31.4835 11.4335 31.5929 11.5451 31.7569C11.6195 31.8663 11.6567 32.003 11.7032 32.1306C11.6567 32.1579 11.6009 32.1762 11.5544 32.2035C11.3591 32.0395 11.1639 31.8754 10.95 31.6931C10.7175 31.9301 10.4944 32.1579 10.3549 32.3129C10.5595 32.5772 10.7733 32.8506 10.9872 33.1241C11.0988 33.0147 11.1546 32.9327 11.2383 32.8962C11.3777 32.8233 11.5358 32.7777 11.6846 32.723C11.6288 32.8597 11.5823 33.0056 11.5079 33.1332C11.4521 33.2334 11.3591 33.3155 11.2569 33.4339C11.4893 33.6436 11.7125 33.835 11.9078 34.0537C11.9914 34.1448 12.01 34.2998 12.0658 34.4274C11.9264 34.3818 11.7497 34.3727 11.6474 34.2816C11.4335 34.0902 11.2662 33.8441 11.0709 33.6071C10.8663 33.7894 10.7454 33.8805 10.6524 33.999C10.5688 34.1084 10.513 34.2451 10.4479 34.3636C10.5595 34.3818 10.6803 34.3909 10.7826 34.4274C10.8756 34.4638 10.9779 34.5276 11.043 34.6097C11.2011 34.792 11.3498 34.9925 11.5544 35.2659C11.8334 34.9469 12.01 34.7282 12.2053 34.5459C12.2611 34.4912 12.3913 34.5276 12.4843 34.5185C12.475 34.6097 12.5029 34.7464 12.4471 34.792C12.2425 34.9742 12.01 35.1201 11.7776 35.2932C12.0007 35.5302 12.1216 35.6305 12.196 35.7581C12.2425 35.8401 12.2146 35.9586 12.2239 36.0679C12.1309 36.0497 12.0193 36.0497 11.945 35.995C11.8055 35.8948 11.7032 35.7672 11.5823 35.6669ZM10.6246 31.4653C10.3363 31.1554 10.0573 30.8546 9.77838 30.5538C9.45293 31.4015 9.49942 31.7296 10.0201 32.0941C10.2154 31.8845 10.4293 31.6658 10.6246 31.4653ZM10.2061 30.408C10.4944 30.171 10.7454 29.9523 10.9965 29.7427C10.8477 29.5969 10.7082 29.451 10.5595 29.3052C9.85277 29.8612 9.80628 30.0708 10.2061 30.408ZM10.1968 33.9626C10.3921 33.7347 10.5409 33.5707 10.671 33.4157C10.4386 33.1787 10.1968 32.9327 9.91786 32.641C9.68539 33.1605 10.0759 33.4795 10.1968 33.9626ZM13.0143 29.287C13.1445 29.1776 13.2654 29.0773 13.4606 28.9133C13.0887 28.8404 12.8097 28.7857 12.4006 28.7037C12.6702 28.9589 12.8376 29.1229 13.0143 29.287Z" stroke="#2F4237" stroke-width="0.2"/>
<path d="M23.2428 17.1651C23.5496 17.4385 23.8472 17.7028 24.0982 17.9307C24.3307 17.8669 24.5167 17.8122 24.7026 17.7575C24.6468 17.9307 24.6003 18.0947 24.5446 18.2679C24.4795 18.3135 24.4051 18.3499 24.34 18.3955C24.526 18.5049 24.7305 18.596 24.8793 18.7327C24.9909 18.8421 25.0281 19.0244 25.0932 19.1702C24.9444 19.1155 24.7677 19.0882 24.6468 18.9879C24.4888 18.8512 24.3679 18.6598 24.2284 18.4866C23.9123 18.7965 23.6798 19.0244 23.4752 19.2249C23.5868 19.4527 23.6798 19.6624 23.7728 19.8629C23.5496 19.79 23.3357 19.7079 23.0382 19.6077C22.9917 19.6624 22.8708 19.7808 22.6662 19.9905C23.0103 20.2821 23.3357 20.5556 23.6426 20.8472C23.717 20.9201 23.717 21.0751 23.7449 21.1844C23.624 21.1571 23.4752 21.1662 23.4008 21.0933C23.1033 20.8108 22.8243 20.5009 22.6104 20.273C22.3129 20.3459 22.1176 20.3915 21.9223 20.4371C21.9874 20.2639 22.0525 20.0998 22.1083 19.954C22.0432 19.7626 21.9781 19.5712 21.9131 19.3707C22.099 19.4345 22.2757 19.4983 22.564 19.5986C22.6104 19.5348 22.7127 19.3981 22.8336 19.2249C22.564 18.997 22.2664 18.7327 21.9223 18.4411C21.7364 18.6233 21.5039 18.8603 21.2436 19.0699C21.1599 19.1337 21.0111 19.1337 20.8995 19.1611C20.9367 19.0426 20.9274 18.8968 21.0018 18.8147C21.225 18.5869 21.4853 18.3864 21.6527 18.2405C21.569 17.9671 21.5225 17.8122 21.476 17.6572C21.6341 17.6846 21.7922 17.7119 22.0153 17.7393C22.3129 17.4203 22.6662 17.0466 23.0289 16.6729C22.9917 16.5453 22.9266 16.3357 22.8708 16.1352C23.0568 16.2172 23.2428 16.2901 23.5403 16.4177C23.6426 16.2901 23.7821 16.0805 23.9587 15.9255C24.061 15.8344 24.2284 15.8253 24.3679 15.7797C24.3214 15.9073 24.3028 16.0622 24.2191 16.1534C24.061 16.3357 23.8565 16.4815 23.5868 16.7185C23.8658 16.9554 24.0889 17.1286 24.2935 17.3291C24.3586 17.3929 24.3493 17.5388 24.3679 17.639C24.2563 17.6208 24.1261 17.6299 24.0517 17.5752C23.8844 17.4476 23.7542 17.2653 23.5868 17.1377C23.5031 17.0739 23.3636 17.083 23.2428 17.0648C23.2335 17.1104 23.2335 17.1377 23.2428 17.1651ZM23.0847 17.4294C22.8243 17.6663 22.5547 17.9033 22.285 18.1494C22.5547 18.4228 22.8336 18.7054 23.1033 18.9697C23.3543 18.7327 23.5961 18.5049 23.8565 18.2588C23.5961 17.9762 23.3171 17.6755 23.0847 17.4294Z" stroke="#2F4237" stroke-width="0.2"/>
<path d="M34.4755 12.0885C34.2058 11.9426 34.0384 11.8515 33.8711 11.7512C34.057 11.6692 34.2523 11.5872 34.522 11.4687C34.4941 10.9309 34.4569 10.3203 34.429 9.76433C34.2244 9.65496 34.0756 9.57293 33.9268 9.50002C34.0384 9.40888 34.15 9.30862 34.3453 9.15368C34.3174 8.83468 34.2895 8.41543 34.2523 7.99617C34.243 7.94149 34.1779 7.8868 34.1221 7.84123C34.0105 7.74097 33.8989 7.64983 33.7874 7.55869C33.9268 7.51312 34.0756 7.45843 34.1686 7.43109C34.2988 6.82955 34.429 6.2189 34.5499 5.61736C34.5684 5.53534 34.5313 5.43508 34.4941 5.34394C34.4476 5.21634 34.3918 5.09785 34.336 4.97937C34.4848 4.9976 34.6428 5.00671 34.8288 5.02494C34.9683 4.87 35.1357 4.66949 35.3123 4.47809C35.3216 4.46897 35.3309 4.45074 35.3495 4.45074C35.6564 4.35049 35.0985 3.80364 35.5634 3.93123C35.8888 4.02238 36.0748 3.89478 36.3259 3.84009C36.5769 3.78541 36.8373 3.71249 37.0977 3.69426C37.2093 3.68515 37.3301 3.82186 37.4417 3.88566C37.3301 3.94035 37.2278 4.00415 37.107 4.0406C36.7722 4.12263 36.4282 4.19555 36.1213 4.25935C36.1399 4.56923 36.1492 4.78797 36.1678 5.01583C36.0097 4.90645 35.861 4.78797 35.6471 4.64214C35.4797 4.84266 35.2844 5.08874 35.0799 5.32571C35.2193 5.51711 35.3588 5.66293 35.4518 5.82699C35.4983 5.90902 35.4611 6.03662 35.4611 6.14599C35.3588 6.10953 35.2472 6.08219 35.1636 6.0275C35.0799 5.97282 35.0241 5.87256 34.8474 5.67205C34.7451 6.37384 34.6614 6.95715 34.587 7.44021C34.8567 7.6316 35.0241 7.7592 35.1915 7.87769C35.0241 7.93237 34.8567 7.98706 34.6242 8.06909C34.6521 8.3972 34.6893 8.79822 34.7172 9.15368C34.9218 9.24482 35.0892 9.32685 35.2472 9.39976C35.1171 9.50002 34.9869 9.59116 34.7916 9.73699C34.8195 10.2383 34.8195 10.8307 34.8846 11.414C34.9032 11.5598 35.1078 11.6874 35.2658 11.8788C35.1264 11.9426 34.9962 11.9973 34.8753 12.052C34.7544 12.4439 34.6149 12.8449 34.4941 13.246C34.4755 13.3189 34.4755 13.41 34.4941 13.492C34.5313 13.6196 34.5777 13.7472 34.6242 13.8748C34.4755 13.8566 34.3174 13.8384 34.1686 13.8293C33.9361 14.0298 33.6944 14.2485 33.4433 14.4399C33.3782 14.4855 33.2573 14.4581 33.1644 14.4673C33.1923 14.367 33.183 14.2303 33.2387 14.1665C33.4247 13.966 33.6479 13.7928 33.8153 13.647C33.6851 13.4647 33.5828 13.3098 33.4805 13.1548C33.6665 13.1548 33.8525 13.1548 34.1314 13.1548C34.243 12.7994 34.3639 12.4166 34.4755 12.0885Z" stroke="#2F4237" stroke-width="0.2"/>
</svg>
