<svg width="164" height="164" viewBox="0 0 164 164" fill="none" xmlns="http://www.w3.org/2000/svg">
<circle cx="82" cy="82" r="82" fill="white"/>
<path d="M47.0766 82.9115C46.8956 81.1078 46.8755 81.1276 45.3069 80.7907C44.6232 80.6321 43.9394 80.4339 43.3361 80.1168C41.3855 79.0861 41.2045 76.9454 42.9339 75.5777C43.3764 75.2408 43.8992 74.9831 44.4221 74.7651C44.9047 74.5669 45.4477 74.4479 45.9504 74.3092C46.3124 68.0655 50.6159 65.3897 55.8646 63.6652C60.8519 62.0201 66.0403 61.4056 71.2286 60.8705C71.3694 60.8506 71.4901 60.8308 71.6509 60.811C71.7113 59.9587 71.6711 59.0866 71.8722 58.2739C72.7972 54.4484 75.5925 52.4068 79.1922 51.3761C84.1995 49.949 88.1411 52.6645 89.2471 58.1351C89.3879 58.8685 89.4683 59.6217 89.589 60.3948C92.0424 60.6128 94.4757 60.7714 96.909 61.029C101.233 61.5047 105.556 62.139 109.598 63.804C113.339 65.3302 115.953 67.907 116.697 71.9901C116.798 72.5055 116.798 73.0406 116.838 73.5956C117.441 73.8335 118.125 73.9722 118.648 74.3092C119.412 74.8047 120.216 75.3597 120.739 76.0733C121.845 77.5995 121.302 79.3834 119.593 80.2357C119.07 80.4934 118.467 80.751 117.884 80.7709C116.858 80.8105 116.536 81.2664 116.677 82.198C116.717 82.416 116.717 82.6539 116.737 82.7133C119.533 82.416 122.288 82.0592 125.043 81.8808C126.491 81.7817 127.979 81.9998 129.447 82.1583C129.95 82.2178 130.493 82.4557 130.935 82.7332C132.182 83.526 132.383 84.9729 131.277 85.9045C130.513 86.5388 129.527 86.9749 128.562 87.3118C126.893 87.9065 125.163 88.2831 123.494 88.8777C121.584 89.5516 121.403 90.0471 122.006 91.9302C122.087 92.1482 122.147 92.3662 122.227 92.5843C122.931 94.8042 121.805 96.4692 119.452 96.6872C119.09 96.7269 118.728 96.7467 118.346 96.7665C118.165 98.4117 118.125 100.057 117.783 101.662C117.461 103.189 116.999 104.754 116.315 106.162C114.425 110.146 111.107 112.346 106.723 112.703C103.264 112.98 99.7646 113 96.2856 113C85.1648 112.98 74.044 112.941 62.9232 112.841C60.5905 112.822 58.2175 112.663 55.925 112.227C50.636 111.216 47.3782 107.648 46.6342 102.257C46.3929 100.473 46.3727 98.6495 46.232 96.6872C45.7694 96.6872 45.2064 96.7269 44.6634 96.6872C42.1295 96.5088 41.0436 94.9033 41.8078 92.5248C42.6725 89.8489 42.5116 89.4723 39.7968 88.6002C38.3288 88.1245 36.8205 87.8074 35.3726 87.3118C34.5079 87.0145 33.6029 86.6379 32.879 86.0829C31.5718 85.072 31.7528 83.4269 33.2208 82.6539C33.9448 82.2773 34.7894 82.0989 35.6139 82.0196C39.2337 81.643 42.8334 81.9403 46.3929 82.7728C46.594 82.8719 46.7951 82.8719 47.0766 82.9115ZM61.0329 107.51C60.8318 107.034 60.691 106.697 60.5704 106.36C60.9927 106.459 61.4351 106.538 61.7568 106.618C62.1792 106.479 62.5814 106.34 62.9634 106.221C62.8227 106.637 62.6618 107.054 62.5009 107.549C63.1243 108.203 63.8282 108.956 64.4717 109.63C64.8136 109.353 65.1956 109.075 65.6984 108.679C65.1353 108.183 64.6326 107.787 64.1901 107.351C64.0695 107.232 64.0896 106.955 64.0293 106.756C64.2706 106.776 64.5923 106.717 64.713 106.836C65.1554 107.272 65.5375 107.767 66.0604 108.362C66.8246 107.569 67.3675 106.955 67.9708 106.38C68.1317 106.241 68.4132 106.221 68.6546 106.162C68.6143 106.419 68.6546 106.756 68.4937 106.915C67.9306 107.51 67.2871 108.045 66.8044 108.501C67.0257 109.095 67.1664 109.511 67.3273 109.928C66.905 109.789 66.4626 109.65 66.1408 109.531C65.5375 110.126 64.9141 110.74 64.3309 111.315C67.7094 111.771 68.4736 111.533 70.0019 109.531C69.7606 109.274 69.4791 109.056 69.278 108.758C69.1372 108.56 69.1372 108.263 69.0769 108.025C69.3383 108.104 69.6399 108.104 69.8209 108.263C70.0824 108.501 70.2634 108.838 70.5248 109.234C71.6912 108.065 72.6162 107.073 73.6016 106.142C73.7625 105.983 74.1044 106.023 74.3457 105.964C74.2853 106.201 74.2853 106.459 74.1446 106.637C73.9234 106.955 73.6217 107.212 73.3402 107.49C73.4407 107.43 73.5413 107.371 73.6418 107.331C74.1848 108.025 74.7479 108.738 75.3512 109.492C77.0002 107.866 78.5084 106.34 80.077 104.834C80.258 104.655 80.62 104.675 80.9015 104.616C80.801 104.873 80.7809 105.171 80.5999 105.349C79.9563 106.003 79.2525 106.618 78.7699 107.054C79.5139 108.005 80.1977 108.877 80.8814 109.73C81.6255 108.976 82.1684 108.402 82.6712 107.886C82.5907 107.589 82.4902 107.272 82.3896 106.955C82.7717 107.034 83.1337 107.093 83.6767 107.212C83.8175 107.054 83.9984 106.776 84.2398 106.558C85.0039 105.785 85.7882 104.992 86.5926 104.259C86.854 104.021 87.2361 103.942 87.5579 103.783C87.397 104.14 87.2965 104.497 87.0954 104.834C86.9345 105.072 86.6932 105.27 86.472 105.468C85.6273 106.261 84.7626 107.054 84.0387 107.728C85.2251 108.917 86.2709 109.987 87.2361 110.978C88.2014 110.027 89.1868 109.075 90.3532 107.906C90.0716 107.708 89.6694 107.529 89.4281 107.232C89.0661 106.796 88.8248 106.281 88.5232 105.785C88.9857 106.082 89.5086 106.32 89.9108 106.677C90.2124 106.955 90.3934 107.391 90.6347 107.787C91.1576 107.292 91.3587 107.073 91.6 106.895C92.6658 106.102 93.1082 104.695 94.3953 104.14C94.717 104.001 95.0589 103.882 95.3807 103.744C95.2399 104.041 95.1393 104.358 94.9785 104.635C94.8176 104.873 94.5964 105.072 94.4355 105.25C95.3203 106.142 96.1448 106.974 96.7682 107.609C97.4319 107.113 98.0955 106.618 98.8195 106.063C98.3167 105.607 97.9145 105.27 97.5525 104.873C97.4118 104.715 97.4118 104.437 97.3313 104.199C97.5928 104.259 97.9346 104.219 98.0955 104.378C98.4977 104.774 98.7994 105.25 99.2418 105.825C99.9657 104.933 100.468 104.318 101.112 103.526C101.273 103.407 101.695 103.189 102.057 102.891C102.459 102.554 102.801 102.118 103.203 101.801C103.384 101.642 103.706 101.643 103.968 101.583C103.907 101.841 103.907 102.158 103.746 102.316C103.183 102.911 102.56 103.466 102.037 103.962C103.224 105.131 104.289 106.182 105.375 107.232C106.099 106.538 106.863 105.765 107.668 104.972C107.326 104.616 106.984 104.259 106.542 103.803C106.039 104.338 105.637 104.834 105.154 105.23C104.993 105.369 104.651 105.349 104.39 105.389C104.45 105.171 104.45 104.854 104.611 104.715C105.094 104.279 105.657 103.902 106.32 103.387C105.576 102.752 105.114 102.416 104.732 101.999C104.531 101.761 104.45 101.405 104.33 101.107C104.651 101.226 105.054 101.286 105.295 101.504C105.737 101.9 106.059 102.396 106.542 102.951C107.286 101.722 108.693 101.385 108.673 100.215C109.277 99.7991 109.759 99.5018 110.222 99.145C110.463 98.9667 110.624 98.6892 110.885 98.5306C111.066 98.4117 111.348 98.4315 111.569 98.372C111.529 98.59 111.549 98.9072 111.428 99.0261C110.906 99.5216 110.342 99.9775 109.799 100.433C110.966 101.583 111.911 102.534 112.876 103.506C113.379 104.021 113.922 104.497 114.385 105.032C114.525 105.19 114.465 105.488 114.505 105.706C114.284 105.646 114.023 105.646 113.821 105.527C113.6 105.409 113.419 105.19 113.299 105.091C112.555 105.805 111.851 106.499 111.288 107.054C111.408 107.529 111.509 107.926 111.609 108.322C111.207 108.164 110.805 108.005 110.322 107.807C110.101 108.025 109.799 108.342 109.458 108.58C109.337 108.659 109.096 108.6 108.915 108.6C108.915 108.421 108.854 108.164 108.955 108.084C109.257 107.787 109.639 107.549 109.92 107.331C109.257 106.618 108.754 106.063 108.372 105.627C107.487 106.439 106.682 107.173 105.757 108.005C106.32 108.501 106.863 108.956 107.346 109.452C107.507 109.611 107.487 109.948 107.567 110.185C107.306 110.106 106.964 110.126 106.803 109.948C106.32 109.432 105.898 108.838 105.436 108.283C105.375 108.402 105.315 108.54 105.255 108.659C104.772 109.056 104.269 109.452 103.807 109.829C105.114 111.394 105.174 111.434 105.979 111.355C111.388 110.8 114.666 107.926 115.973 102.792C116.295 101.504 116.013 100.632 115.028 100.077C114.465 100.295 114.002 100.473 113.52 100.651C113.721 100.215 113.922 99.7793 114.204 99.145C113.399 98.3918 112.454 97.4999 111.549 96.5881C111.348 96.3899 111.308 96.0529 111.187 95.7755C111.489 95.8746 111.871 95.8944 112.072 96.0728C112.997 96.9647 113.862 97.8963 114.586 98.6297C115.37 98.0549 115.973 97.599 116.396 97.3017C115.31 96.271 114.344 95.3394 113.399 94.4276C113.077 94.5664 112.756 94.7051 112.454 94.8439C112.394 94.3682 112.595 94.051 112.635 93.7339C112.675 93.4762 112.575 93.1789 112.514 92.9014C112.816 92.9807 113.118 93.0401 113.138 93.06C113.781 92.5843 114.304 92.1878 114.928 91.7121C113.721 91.058 113.399 89.4327 111.65 89.73C111.75 88.7984 112.555 88.4416 113.057 87.9065C113.6 87.3118 114.244 86.7767 114.847 86.2217C114.204 85.5478 113.721 85.0324 113.218 84.4972C113.098 84.5963 113.017 84.7153 112.896 84.7549C112.595 84.8738 112.293 84.9531 111.991 85.0324C112.112 84.7549 112.152 84.418 112.353 84.2197C113.118 83.4071 113.942 82.6341 114.726 81.8412C114.887 81.6628 114.988 81.4448 115.209 81.088C92.8066 81.088 70.5851 81.088 48.2832 81.088C48.5245 82.2376 48.9468 83.2287 48.9066 84.2197C48.7859 87.2722 48.5446 90.3445 48.243 93.3969C47.9212 96.4295 47.5592 99.4424 48.1625 102.475C48.6251 104.735 49.4496 106.816 51.0181 108.263C51.722 107.668 52.3454 107.113 53.009 106.598C53.19 106.459 53.4514 106.439 53.6928 106.36C53.6525 106.618 53.6928 106.955 53.552 107.113C53.009 107.728 52.3856 108.283 51.722 108.956C52.5465 109.412 53.2906 109.848 53.9944 110.245C54.3765 109.73 54.7184 109.313 54.9597 108.976C54.7586 108.461 54.5977 108.005 54.4368 107.549C54.8792 107.728 55.3418 107.926 55.9652 108.183C56.3875 107.728 56.9104 107.133 57.4935 106.578C57.6544 106.439 57.936 106.419 58.1773 106.36C58.1371 106.618 58.1572 106.955 58.0164 107.113C57.4734 107.688 56.8701 108.203 56.2668 108.778C56.6087 109.135 56.8701 109.353 57.0511 109.611C57.2522 109.928 57.3729 110.304 57.5136 110.641C57.1718 110.463 56.7897 110.324 56.4679 110.106C56.2065 109.928 55.9853 109.67 55.7842 109.492C55.4222 109.809 55.1005 110.066 54.5374 110.542C56.4277 110.84 58.0767 111.077 59.7257 111.335C59.766 111.176 59.7861 111.038 59.8263 110.879C59.4844 110.82 59.1426 110.78 58.8409 110.681C58.6599 110.621 58.3784 110.364 58.3784 110.364C58.8208 109.69 58.1371 109.472 57.8756 109.075C57.7751 108.917 57.8153 108.679 57.7751 108.481C57.9762 108.501 58.2376 108.461 58.3985 108.56C58.7001 108.758 58.9415 109.016 59.1828 109.254C59.9067 108.6 60.51 108.025 61.0329 107.51ZM115.209 73.1794C115.209 73.0208 115.229 72.8028 115.209 72.5847C115.189 72.3271 115.169 72.0496 115.088 71.8117C114.244 68.4818 111.971 66.4402 108.874 65.1915C104.128 63.2886 99.101 62.694 94.0735 62.2778C84.3001 61.4849 74.5267 61.7822 64.8136 63.2292C61.0731 63.7842 57.3528 64.5175 53.8737 66.0636C51.4002 67.1339 49.3289 68.6998 48.1625 71.2171C47.7402 72.109 47.4788 73.0406 47.7 73.9128C70.2231 72.5055 92.6658 71.6928 115.209 73.1794ZM81.7059 79.5023V79.5221C92.8267 79.5221 103.948 79.5221 115.068 79.5023C116.034 79.5023 117.019 79.4032 117.964 79.2446C118.728 79.1059 119.533 78.8482 119.694 77.9563C119.854 77.0049 119.251 76.3309 118.467 75.994C117.381 75.5183 116.215 75.0426 115.048 74.9435C109.88 74.547 104.692 74.0911 99.5233 74.0119C83.1337 73.7542 66.7642 74.111 50.4148 75.3399C48.4642 75.4786 46.5135 75.8949 44.6232 76.3904C44.1003 76.5291 43.4769 77.322 43.4166 77.8373C43.3764 78.1941 44.221 78.8879 44.7841 79.0068C46.1716 79.3041 47.6196 79.4627 49.0474 79.4627C59.9268 79.5221 70.8264 79.5023 81.7059 79.5023ZM87.94 60.4939C87.8596 58.2739 87.3166 56.4305 86.1703 54.7854C85.1447 53.3384 83.6968 52.5258 81.907 52.5456C78.609 52.5852 75.9746 53.9925 74.1446 56.708C73.3603 57.8577 73.0787 59.1658 73.3402 60.474C78.2269 60.4939 83.0131 60.4939 87.94 60.4939ZM39.0527 83.2881C37.2026 83.5062 35.7949 83.6251 34.4274 83.8431C34.1258 83.8828 33.7638 84.2396 33.6834 84.5171C33.623 84.6756 33.985 85.1117 34.2666 85.2306C35.1112 85.6072 35.996 85.9045 36.8808 86.2019C38.5299 86.737 40.2191 87.1731 41.8279 87.8272C43.8389 88.6597 44.3819 90.067 43.678 92.0887C43.5171 92.5644 43.2758 93.0203 43.1954 93.496C43.135 93.8528 43.1753 94.2889 43.3562 94.606C43.678 95.161 45.8298 95.5178 46.3727 95.161C46.5135 95.0817 46.594 94.8439 46.6141 94.6655C46.8956 91.6725 47.1369 88.6993 47.4386 85.7063C47.519 84.854 47.157 84.5369 46.3526 84.418C43.7786 84.0215 41.2045 83.6251 39.0527 83.2881ZM116.838 84.418C116.838 84.854 116.818 85.0324 116.838 85.191C117.24 88.3624 117.642 91.5337 118.045 94.7051C118.065 94.8835 118.226 95.2006 118.266 95.1808C119.01 95.0817 119.794 95.0619 120.458 94.7448C120.739 94.606 120.86 93.833 120.8 93.3969C120.719 92.7825 120.397 92.2076 120.216 91.613C119.814 90.3048 120.136 89.175 121.242 88.3624C121.825 87.9461 122.509 87.629 123.193 87.3911C124.942 86.8163 126.712 86.3406 128.462 85.7856C129.004 85.627 129.527 85.3892 129.99 85.072C130.533 84.6954 130.493 84.2197 129.889 83.9224C129.547 83.744 129.125 83.6449 128.743 83.6251C127.215 83.5458 125.666 83.3476 124.138 83.4864C121.705 83.7044 119.271 84.1008 116.838 84.418ZM97.2509 109.115C96.3459 109.948 95.6019 110.681 94.7573 111.454C97.0297 111.454 99.282 111.454 101.373 111.454C101.816 110.899 102.218 110.403 102.64 109.868C102.56 109.769 102.459 109.63 102.339 109.511C101.394 108.54 100.428 107.569 99.4831 106.598C98.8396 107.252 98.2765 107.847 97.5726 108.54C98.0955 109.016 98.6586 109.492 99.1613 110.007C99.3021 110.166 99.3222 110.443 99.4027 110.661C99.1412 110.621 98.7994 110.681 98.6586 110.522C98.0955 110.047 97.6129 109.492 97.2509 109.115ZM96.3258 108.402C95.4611 107.569 94.5964 106.756 93.792 106.003C93.0881 106.677 92.324 107.391 91.7006 107.965C92.5251 108.857 93.3093 109.749 94.0735 110.582C94.8377 109.829 95.5818 109.115 96.3258 108.402ZM80.7205 109.908C79.8357 109.254 78.9508 108.6 77.9655 107.866C77.6035 108.243 77.0203 108.857 76.417 109.492C76.2762 109.63 76.1556 109.769 76.0148 109.908C77.7443 112.168 78.6894 112.227 80.7205 109.908ZM101.373 104.754C100.971 105.151 100.529 105.607 100.167 105.964C101.233 107.034 102.278 108.084 103.324 109.135C103.746 108.758 104.189 108.322 104.611 107.965C103.525 106.895 102.459 105.825 101.373 104.754ZM87.94 111.414C90.0113 111.414 91.7207 111.414 93.6713 111.414C92.5854 110.443 91.7006 109.67 90.7755 108.838C90.7353 108.877 90.5342 109.036 90.3532 109.214C89.589 109.908 88.8449 110.582 87.94 111.414ZM69.5394 111.315C72.4352 111.949 73.682 111.593 74.6674 109.967C74.0239 109.333 73.4005 108.719 72.938 108.283C72.4352 108.699 71.8923 109.155 71.3091 109.63C71.5705 109.888 71.8319 110.106 72.0129 110.384C72.1336 110.562 72.1336 110.84 72.1738 111.058C71.9526 111.018 71.6711 111.038 71.5102 110.939C71.2085 110.74 70.9672 110.463 70.6253 110.146C70.2634 110.522 69.9416 110.879 69.5394 111.315ZM64.0695 110.166C63.2852 109.432 62.5411 108.738 61.8574 108.084C61.1938 108.699 60.5301 109.274 59.9067 109.848C61.415 111.93 62.9232 111.91 64.0695 110.166ZM81.8668 110.126C82.8321 112.346 84.7224 111.394 86.3513 111.573C85.3056 110.562 84.3202 109.611 83.3951 108.719C82.9527 109.115 82.4098 109.63 81.8668 110.126ZM110.443 106.439C111.207 105.745 111.911 105.091 112.615 104.457C112.092 103.902 111.609 103.367 111.127 102.871C110.383 103.565 109.659 104.239 108.915 104.933C109.458 105.468 109.96 105.964 110.443 106.439ZM115.672 91.2761C116.134 89.6705 115.511 88.3029 115.45 86.8163C114.646 87.6091 113.962 88.2632 113.258 88.9768C113.962 89.6309 114.686 90.3445 115.672 91.2761ZM116.255 96.0331C116.335 96.0133 116.416 95.9737 116.496 95.9538C116.194 94.7646 116.918 93.3176 115.651 92.4851C115.048 92.9807 114.525 93.3969 114.043 93.7933C114.827 94.5862 115.551 95.2997 116.255 96.0331ZM109.619 101.306C108.774 102.039 108.05 102.673 107.386 103.248C107.688 103.625 107.969 103.981 108.171 104.219C108.955 103.466 109.659 102.772 110.342 102.118C110.081 101.821 109.799 101.504 109.619 101.306ZM113.701 84.0215C114.224 84.4378 114.666 84.7946 115.129 85.1513C115.189 85.1117 115.269 85.0522 115.33 85.0126C115.088 84.4576 114.847 83.9026 114.545 83.2485C114.163 83.6053 113.942 83.8035 113.701 84.0215ZM75.4115 110.522C75.1098 110.84 74.8484 111.117 74.5065 111.474C75.1903 111.474 75.693 111.474 76.3164 111.474C75.9746 111.117 75.7735 110.899 75.4115 110.522ZM103.505 110.681C103.083 110.958 102.761 111.157 102.379 111.414C103.043 111.414 103.545 111.414 104.209 111.414C103.847 111.018 103.606 110.78 103.505 110.681Z" fill="#DCD188"/>
<path d="M64.0695 110.166C63.2852 109.432 62.5411 108.738 61.8574 108.084L64.0695 110.166Z" fill="#DCD188"/>
<path d="M60.7715 89.175C59.404 90.5427 58.0566 91.9302 56.669 93.2582C56.4478 93.4762 56.0657 93.5158 55.7641 93.6546C55.8847 93.3573 55.9049 92.9807 56.106 92.7626C57.4533 91.395 58.861 90.067 60.51 88.4615C59.8866 87.9659 59.2833 87.5497 58.7404 87.0542C58.5191 86.8559 58.4789 86.4595 58.3382 86.1622C58.6398 86.2613 59.0018 86.301 59.223 86.4992C59.766 86.9749 60.2285 87.5299 60.7916 88.1245C62.2998 86.6379 63.6874 85.2504 65.075 83.8828C65.256 83.7044 65.437 83.4665 65.6582 83.3476C65.8191 83.2485 66.0604 83.2881 66.2615 83.2683C66.2414 83.4665 66.2816 83.744 66.1609 83.8828C65.4973 84.5765 64.8136 85.2504 64.1097 85.9244C63.2249 86.7767 62.34 87.629 61.3748 88.5407C62.0786 89.1948 62.7221 89.7895 63.3254 90.3445C64.3309 89.3534 65.3565 88.3227 66.6033 87.074C66.2414 86.7965 65.7587 86.4793 65.3565 86.1027C65.2158 85.964 65.2359 85.6667 65.1755 85.4288C65.4169 85.4685 65.7185 85.4288 65.8593 85.5676C66.2615 85.964 66.5832 86.4199 66.9653 86.8758C67.5083 86.3604 67.8301 86.0235 68.192 85.7658C68.3127 85.6865 68.5339 85.746 68.7149 85.746C68.7149 85.9244 68.7752 86.1622 68.6948 86.2613C68.4132 86.6181 68.0714 86.9352 67.7295 87.292C68.5339 88.0452 69.3182 88.7984 70.2432 89.6904C71.0476 88.8579 71.9124 87.9858 72.757 87.1334C73.3603 86.519 73.9636 85.9045 74.6071 85.3297C74.768 85.191 75.1098 85.2108 75.3512 85.1712C75.2908 85.3892 75.2908 85.7063 75.1501 85.8451C72.9179 88.0849 70.6656 90.3048 68.3931 92.4851C68.2323 92.6437 67.8904 92.6041 67.629 92.6437C67.6893 92.4257 67.6893 92.1284 67.8301 91.9896C68.3529 91.4346 68.9361 90.9391 69.5394 90.3841C68.6546 89.5714 67.8502 88.8381 67.1463 88.184C66.181 89.1354 65.1152 90.1661 64.0092 91.2562C64.894 92.1284 65.9598 93.1392 66.9653 94.1898C67.1664 94.4078 67.2268 94.7646 67.3273 95.0619C67.0257 94.943 66.6436 94.9033 66.4224 94.7051C65.3967 93.7141 64.4114 92.6834 63.3053 91.5536C62.2194 92.6239 61.2139 93.6348 60.2084 94.6258C60.0274 94.8042 59.8464 95.0421 59.6252 95.1808C59.4241 95.2997 59.1828 95.3196 58.9415 95.3988C58.9817 95.1412 58.9415 94.8042 59.1023 94.6655C60.2687 93.4762 61.4753 92.3266 62.702 91.1373C62.0987 90.4634 61.4552 89.8489 60.7715 89.175Z" fill="#DCD188"/>
<path d="M67.6088 65.1915C67.3072 65.6474 67.1463 65.9248 66.9653 66.1825C66.7642 65.9645 66.5832 65.7266 66.2414 65.35C65.3766 65.4888 64.351 65.6474 63.4059 65.7861C63.3053 66.2222 63.2249 66.5393 63.1444 66.8564C62.9232 66.6582 62.702 66.4204 62.4406 66.3014C62.2395 66.2023 61.9378 66.1627 61.7166 66.2222C61.0128 66.4204 60.329 66.6582 59.5448 66.9159C59.6654 67.233 59.8263 67.4907 59.8464 67.7682C59.8665 68.0457 59.7861 68.343 59.7459 68.6205C59.5448 68.4421 59.3235 68.3034 59.1627 68.0853C59.0018 67.8871 58.9213 67.6295 58.7605 67.2727C58.1169 67.6096 57.4935 67.907 56.9305 68.1845C57.0712 68.7196 57.1718 69.1755 57.2924 69.6314C57.1718 69.6909 57.0712 69.7305 56.9506 69.79C56.669 69.4728 56.3875 69.1557 56.0456 68.7791C55.6233 69.1359 55.201 69.5125 54.7385 69.8296C54.5374 69.9684 54.2357 69.9684 53.9743 70.0278C54.0547 69.79 54.0749 69.4926 54.2156 69.2944C54.3765 69.0566 54.6781 68.898 54.8591 68.68C55.1407 68.3628 55.382 68.0061 55.7239 67.57C57.0712 67.5105 57.9963 66.8961 58.0968 65.7266C59.4241 66.6384 60.4899 65.5086 61.6764 65.3897C61.6965 65.0329 61.7166 64.7158 61.7367 64.3986C61.9982 64.5374 62.2395 64.7158 62.5009 64.8347C62.7221 64.9338 62.9836 65.0329 63.2048 65.0131C64.2304 64.8743 65.256 64.6761 66.1006 64.5374C66.362 64.1211 66.543 63.8238 66.724 63.5265C66.9251 63.7842 67.1061 64.0418 67.3675 64.3986C68.0312 64.3392 68.7953 64.2401 69.5595 64.2202C69.8008 64.2202 70.022 64.4383 70.2634 64.5374C70.0421 64.6761 69.8209 64.914 69.5796 64.9536C68.916 65.0924 68.1719 65.132 67.6088 65.1915Z" fill="#DCD188"/>
</svg>
