<svg width="1919" height="1000" viewBox="0 0 1919 1000" fill="none" xmlns="http://www.w3.org/2000/svg">
<g clip-path="url(#clip0_2305_12058)">
<path d="M345.909 1040.66C338.409 961.989 349.009 810.555 451.409 834.155C579.409 863.655 717.409 882.655 829.909 705.655C942.409 528.655 1149.73 492.854 1294.41 551.655C1465.41 621.156 1363.72 788.509 1488.91 834.155C1675.41 902.156 1504.91 305.156 1708.91 190.156C1872.11 98.1555 1916.91 314.822 1918.91 434.656" stroke="#ADDDC2" stroke-width="2.5"/>
<mask id="mask0_2305_12058" style="mask-type:alpha" maskUnits="userSpaceOnUse" x="1079" y="263" width="691" height="591">
<path d="M1753.42 756.888C1696.31 818.71 1589.56 724.591 1507.67 743.744C1440.74 759.399 1407.69 859.303 1339.19 853.779C1271.7 848.339 1237.6 770.557 1194.25 718.476C1148.46 663.472 1067.94 613.26 1080.27 542.722C1093.06 469.495 1196.02 457.749 1248.91 405.588C1287.59 367.446 1298.1 304.601 1346.55 280.1C1397.99 254.085 1457.83 263.534 1514.97 271.049C1583.27 280.032 1667.61 272.166 1708.48 327.702C1749.38 383.272 1698.17 461.059 1705.36 529.719C1713.62 608.632 1807.22 698.643 1753.42 756.888Z" fill="#7929FF"/>
</mask>
<g mask="url(#mask0_2305_12058)">
<path d="M345.909 1040.66C338.409 961.989 349.009 810.555 451.409 834.155C579.409 863.655 717.409 882.655 829.909 705.655C942.409 528.655 1149.73 492.854 1294.41 551.655C1465.41 621.156 1363.72 788.509 1488.91 834.155C1675.41 902.156 1504.91 305.156 1708.91 190.156C1872.11 98.1555 1916.91 314.822 1918.91 434.656" stroke="white" stroke-width="2.5"/>
</g>
</g>
<defs>
<clipPath id="clip0_2305_12058">
<rect width="1919" height="1000" fill="white"/>
</clipPath>
</defs>
</svg>
