<svg width="24" height="24" viewBox="0 0 24 24" fill="none" xmlns="http://www.w3.org/2000/svg">
<circle cx="12" cy="12" r="11.25" stroke="#00A649" stroke-width="1.5"/>
<path d="M17.9997 9.56649C18.0096 10.0508 17.8002 10.4363 17.4662 10.7724C16.1002 12.1215 14.7391 13.4757 13.378 14.8249C12.8197 15.3784 12.2663 15.9319 11.7029 16.4854C11.0099 17.1674 10.0627 17.1723 9.37465 16.4953C8.40745 15.5464 7.44025 14.5926 6.48302 13.6289C5.84487 12.9864 5.83989 12.0128 6.46308 11.3901C7.07132 10.7674 8.06344 10.7674 8.72154 11.3901C8.92595 11.5829 9.12537 11.7805 9.3198 11.9832C9.66879 12.3439 9.69372 12.7986 9.37963 13.189C9.18021 13.4411 9.17024 13.6338 9.34473 13.8018C9.52421 13.9699 9.75355 13.9452 9.9779 13.7178C11.7378 11.9733 13.4927 10.2337 15.2526 8.49407C15.9406 7.81206 16.9976 7.84171 17.6158 8.54843C17.875 8.84001 17.9997 9.18101 17.9997 9.56649Z" fill="#00A649" stroke="white"/>
</svg>
