<svg width="24" height="26" viewBox="0 0 24 26" fill="none" xmlns="http://www.w3.org/2000/svg">
<path d="M10.0351 10.6641C11.231 10.6335 12.8018 11.4303 14.0077 12.9627C14.4334 13.5041 14.8185 14.0864 15.163 14.6891C15.467 15.2203 15.3556 15.7618 14.8489 16.0683C13.1362 17.1205 11.3931 18.1216 9.41695 18.612C7.70428 19.041 6.11321 18.6733 4.60322 17.8152C2.83988 16.814 1.4515 15.3838 0.164463 13.8412C0.012451 13.6573 -0.0483539 13.2589 0.0428535 13.0546C0.154329 12.8299 0.488756 12.5642 0.721842 12.5642C2.13049 12.5847 3.39726 12.0535 4.69443 11.6346C6.17402 11.1749 7.67387 10.6948 10.0351 10.6641ZM13.5213 15.0365C12.4471 13.1976 11.0181 11.9513 8.87984 12.3293C6.72126 12.7073 4.61336 13.3611 2.39398 13.9127C2.52572 14.117 2.55612 14.1988 2.61693 14.2498C3.57967 15.016 4.50188 15.8435 5.52543 16.5178C6.57938 17.2022 7.77521 17.4065 9.03185 17.0898C10.6432 16.6812 12.062 15.8639 13.5213 15.0365Z" fill="#E3DA9D"/>
<path d="M23.848 4.9637C23.9696 7.88542 22.7434 10.0614 20.2402 11.4916C19.1863 12.0943 18.1019 12.646 17.0176 13.1772C16.2474 13.5552 15.7103 13.3406 15.386 12.554C14.7678 11.0319 14.2712 9.47908 14.7374 7.80369C15.1022 6.49607 15.9028 5.46428 16.896 4.59594C17.7878 3.81954 18.7606 3.14529 19.6626 2.3689C20.4125 1.7253 21.0814 0.979549 21.8212 0.315524C22.0238 0.13164 22.3684 -0.0420287 22.6015 0.00905023C22.8346 0.0601291 23.1589 0.356387 23.1994 0.59135C23.5034 2.03177 23.7466 3.48242 24 4.93306C23.9595 4.94327 23.9088 4.95349 23.848 4.9637ZM21.9934 2.563C20.6557 3.62544 19.318 4.64701 18.0208 5.72989C17.5445 6.1283 17.1392 6.62888 16.7845 7.13967C15.7812 8.56987 16.0954 10.0512 16.7439 11.655C17.8587 11.0012 18.9329 10.4087 19.9767 9.76512C22.4393 8.23275 22.642 5.34169 21.9934 2.563Z" fill="#E3DA9D"/>
<path d="M18.4668 18.4996C18.4059 21.0229 17.7472 23.3317 16.4906 25.4668C16.1866 25.9776 15.7812 26.1308 15.3556 25.8856C14.9198 25.6404 14.8286 25.1909 15.1427 24.6495C16.2271 22.7392 16.9162 20.7062 16.8554 18.4894C16.825 17.4985 16.5413 16.528 16.369 15.537C16.3284 15.2919 16.217 14.9854 16.3183 14.8015C16.4501 14.5665 16.7338 14.3316 16.9872 14.2805C17.3723 14.1988 17.6459 14.4542 17.7878 14.8321C18.2641 16.0274 18.4364 17.2635 18.4668 18.4996Z" fill="#E3DA9D"/>
</svg>
