<svg width="120" height="13" viewBox="0 0 120 13" fill="none" xmlns="http://www.w3.org/2000/svg">
<path d="M27.6097 5.14659C33.8952 5.50544 40.1591 5.45246 46.4532 5.4805C49.6913 5.5035 52.9222 5.38924 56.1546 5.30243C73.0425 4.88539 89.9276 4.90898 106.784 3.88793C110.32 3.67506 113.837 3.57336 117.376 3.41539C117.789 3.39374 118.227 3.34328 118.634 3.2118C119.323 3.01053 119.604 2.44519 119.594 1.75747C119.584 1.06975 119.247 0.564345 118.611 0.294824C118.135 0.0995465 117.673 0.178817 117.208 0.203179C110.027 0.551971 102.824 0.957026 95.64 1.25091C82.5656 1.79846 69.4624 1.79691 56.3708 2.015C55.2847 2.04439 54.1943 1.99141 53.1413 2.15672C49.8802 2.68552 46.685 1.50399 43.4325 1.70197C38.8903 1.99508 34.3064 1.98754 29.7483 1.97865C23.559 1.97266 17.3869 1.80058 11.2449 1.70951C8.36829 1.66756 5.47594 1.81914 2.58791 2.05308C2.25219 2.07068 1.92223 2.19809 1.59083 2.29805C0.699921 2.59251 0.00273357 3.1246 0.111936 4.22008C0.249842 5.36913 1.05479 5.90508 2.03612 5.85365C5.99159 5.72894 9.82528 6.73936 13.7277 7.08544C17.1883 7.39963 20.656 7.85108 24.0994 8.33135C20.7852 8.33986 17.4955 8.31956 14.1813 8.32806C11.9805 8.33328 9.78249 8.39341 7.58453 8.45354C6.26604 8.49511 5.67647 9.10415 5.75984 10.201C5.87912 11.4887 6.71989 11.7199 7.70122 11.6685C11.5261 11.5231 15.3725 11.294 19.2104 11.3957C25.2018 11.5772 31.1687 11.7876 37.1357 11.9979C41.3394 12.163 45.5733 12.4092 49.7741 12.5194C60.3308 12.8471 70.8772 12.4871 81.4323 12.2918C89.7895 12.1567 98.1509 12.1039 106.487 11.5569C107.184 11.5204 107.884 11.5387 108.283 10.747C108.798 9.70139 108.271 8.5452 107.099 8.41392C105.51 8.24938 103.928 8.19466 102.321 8.16875C95.0126 8.05623 87.6813 7.99996 80.3714 7.85998C73.9683 7.72754 67.558 7.45783 61.129 7.32674C56.3845 7.2175 51.6671 7.13436 46.9168 6.9153C41.4132 6.65313 35.9254 6.19741 30.4347 5.68679C29.3156 5.58026 28.1979 5.50118 27.0803 5.4221C26.3629 5.07428 25.591 5.16979 24.8392 5.15413C25.7962 5.13151 26.7058 5.19396 27.6097 5.14659Z" fill="#FFAC17"/>
<path d="M27.6097 5.14659C26.6541 4.70113 25.7158 5.08066 24.7618 5.15819C25.5623 5.11623 26.3142 5.62744 27.1319 5.4194C27.2826 5.32891 27.4332 5.23843 27.6097 5.14659Z" fill="#FFAC17"/>
</svg>
